<mxfile host="app.diagrams.net" modified="2023-05-26T08:50:39.455Z" agent="Mozilla/5.0 (Windows NT 10.0; Win64; x64) AppleWebKit/537.36 (KHTML, like Gecko) Chrome/113.0.0.0 Safari/537.36 Edg/113.0.1774.50" etag="AThrEOvfnOW6pxh4FYoT" version="21.3.4" type="github">
  <diagram name="Page-1" id="e7e014a7-5840-1c2e-5031-d8a46d1fe8dd">
    <mxGraphModel dx="609" dy="298" grid="1" gridSize="10" guides="1" tooltips="1" connect="1" arrows="1" fold="1" page="1" pageScale="1" pageWidth="1169" pageHeight="826" background="none" math="0" shadow="0">
      <root>
        <mxCell id="0" />
        <mxCell id="1" parent="0" />
        <mxCell id="ZSY2MWRsBAIIkU0mb_av-46" style="edgeStyle=orthogonalEdgeStyle;rounded=0;orthogonalLoop=1;jettySize=auto;html=1;exitX=1;exitY=0.5;exitDx=0;exitDy=0;exitPerimeter=0;" edge="1" parent="1" source="ZSY2MWRsBAIIkU0mb_av-49">
          <mxGeometry relative="1" as="geometry">
            <mxPoint x="580" y="420" as="targetPoint" />
            <mxPoint x="440" y="420" as="sourcePoint" />
          </mxGeometry>
        </mxCell>
        <mxCell id="ZSY2MWRsBAIIkU0mb_av-53" value="" style="edgeStyle=orthogonalEdgeStyle;rounded=0;orthogonalLoop=1;jettySize=auto;html=1;" edge="1" parent="1" source="ZSY2MWRsBAIIkU0mb_av-43" target="ZSY2MWRsBAIIkU0mb_av-44">
          <mxGeometry relative="1" as="geometry" />
        </mxCell>
        <mxCell id="ZSY2MWRsBAIIkU0mb_av-43" value="" style="outlineConnect=0;dashed=0;verticalLabelPosition=bottom;verticalAlign=top;align=center;html=1;shape=mxgraph.aws3.mysql_db_instance;fillColor=#2E73B8;gradientColor=none;" vertex="1" parent="1">
          <mxGeometry x="540" y="570.75" width="60" height="64.5" as="geometry" />
        </mxCell>
        <mxCell id="ZSY2MWRsBAIIkU0mb_av-48" style="edgeStyle=orthogonalEdgeStyle;rounded=0;orthogonalLoop=1;jettySize=auto;html=1;" edge="1" parent="1" source="ZSY2MWRsBAIIkU0mb_av-44">
          <mxGeometry relative="1" as="geometry">
            <mxPoint x="450" y="427.5" as="targetPoint" />
          </mxGeometry>
        </mxCell>
        <mxCell id="ZSY2MWRsBAIIkU0mb_av-44" value="" style="image;aspect=fixed;perimeter=ellipsePerimeter;html=1;align=center;shadow=0;dashed=0;spacingTop=3;image=img/lib/active_directory/web_server.svg;" vertex="1" parent="1">
          <mxGeometry x="590" y="390" width="60" height="75" as="geometry" />
        </mxCell>
        <mxCell id="ZSY2MWRsBAIIkU0mb_av-49" value="User" style="html=1;whiteSpace=wrap;strokeColor=none;fillColor=#0079D6;labelPosition=center;verticalLabelPosition=middle;verticalAlign=top;align=center;fontSize=12;outlineConnect=0;spacingTop=-6;fontColor=#FFFFFF;sketch=0;shape=mxgraph.sitemap.user;" vertex="1" parent="1">
          <mxGeometry x="370" y="401" width="60" height="39" as="geometry" />
        </mxCell>
        <mxCell id="ZSY2MWRsBAIIkU0mb_av-51" value="request" style="text;html=1;align=center;verticalAlign=middle;resizable=0;points=[];autosize=1;strokeColor=none;fillColor=none;" vertex="1" parent="1">
          <mxGeometry x="460" y="388" width="60" height="30" as="geometry" />
        </mxCell>
        <mxCell id="ZSY2MWRsBAIIkU0mb_av-52" value="response" style="text;html=1;align=center;verticalAlign=middle;resizable=0;points=[];autosize=1;strokeColor=none;fillColor=none;" vertex="1" parent="1">
          <mxGeometry x="480" y="430" width="70" height="30" as="geometry" />
        </mxCell>
        <mxCell id="ZSY2MWRsBAIIkU0mb_av-55" value="" style="edgeStyle=orthogonalEdgeStyle;rounded=0;orthogonalLoop=1;jettySize=auto;html=1;" edge="1" parent="1" source="ZSY2MWRsBAIIkU0mb_av-54" target="ZSY2MWRsBAIIkU0mb_av-44">
          <mxGeometry relative="1" as="geometry" />
        </mxCell>
        <mxCell id="ZSY2MWRsBAIIkU0mb_av-54" value="" style="outlineConnect=0;dashed=0;verticalLabelPosition=bottom;verticalAlign=top;align=center;html=1;shape=mxgraph.aws3.postgre_sql_instance;fillColor=#2E73B8;gradientColor=blue;" vertex="1" parent="1">
          <mxGeometry x="640" y="570.75" width="60" height="63" as="geometry" />
        </mxCell>
        <mxCell id="ZSY2MWRsBAIIkU0mb_av-64" style="edgeStyle=orthogonalEdgeStyle;rounded=0;orthogonalLoop=1;jettySize=auto;html=1;entryX=1;entryY=0.5;entryDx=0;entryDy=0;" edge="1" parent="1" source="ZSY2MWRsBAIIkU0mb_av-58" target="ZSY2MWRsBAIIkU0mb_av-44">
          <mxGeometry relative="1" as="geometry">
            <Array as="points">
              <mxPoint x="730" y="300" />
              <mxPoint x="730" y="428" />
            </Array>
          </mxGeometry>
        </mxCell>
        <mxCell id="ZSY2MWRsBAIIkU0mb_av-58" value="" style="shape=image;verticalLabelPosition=bottom;labelBackgroundColor=default;verticalAlign=top;aspect=fixed;imageAspect=0;image=data:image/png,iVBORw0KGgoAAAANSUhEUgAAAPMAAADQCAMAAADlEKeVAAAAllBMVEX////k5OTb29vt9f7g7v4XFxfY2NgAAABYWFi6urq1tbV5eXmxsbFcXFyayfqt0vpmZmbR0dHs7OyVlZWHh4c4ofa82vvJycmIwfn19fUmJiY1NTViYmLm5uYsLCyGhoYgm/Wfzvp8eHS4vcRVibpYrfdntPjP5fxMqPfn8v55vPkUmPXJ4vyHu+9yb2xLS0uenp5AQED1Tu6fAAACK0lEQVR4nO3c23bSQBSA4RAOA2mkTYBgsGraqm1Fpb7/ywmJVxpcjJ1j9v9dh7D/rklZrDBJEgAAAAAAAAAAAAAxqLeF7xFc2yqldqXvKZyq1ck732NYUq56rG/bZlW8H0UgudJszj6s//bxpmvepjEospFmc+8fadhru7952P/DzjQfq4f7WXW2ecBoloFmGWiWgWYZaJaBZhloloFmGWiWgWYZaJaBZhm0mseTsbVBHNJpXjZNc2dvFGey+4sPrfabzWZfWRzGkYdP15f6vDn5Mg7N41Lziquelpd66pqfJ4Gp7h41m99efOh1c0xuwlvbY81knebk677ZaxweLJ3mZPLt2dogDmk1DwTNMlTffU/gXvbD9wTu8b1KBpploFkGmmWgWQaaZaBZBpploFkGmmWIprnU3Pz6D5E01welpqmhk0XSfGg3J9dmTuaouc5f5aXbg56XfUZm9nwbl6vbN/9vPu+aV7OizyjQ5pvXvX7XNp/ZhK57nUfSPGuXtplZYmlO6kVu7FEDsTSbRLM1NHtGszU0e0azNTR7RrO9twmpeaGmLqiQmpN05kC6CqrZjaCuZ0doloFmGWiWgWYZaJbBUrOhm7N2WGkupkqtLZzXEBvNZXuvMtzo/OfCuKvupnQyy0z96MKsdG7cYff7AfjFgB8V/qdtm3w4LnLfkzh0WtxTScEnxUse9KcVAAAAAAAAAAAAAAAAAAAAAAAAAAAAAAAAgOD8AjXoOaWl9mBaAAAAAElFTkSuQmCC;" vertex="1" parent="1">
          <mxGeometry x="800" y="260.5" width="93.46" height="80" as="geometry" />
        </mxCell>
        <mxCell id="ZSY2MWRsBAIIkU0mb_av-57" value="" style="shape=image;verticalLabelPosition=bottom;labelBackgroundColor=default;verticalAlign=top;aspect=fixed;imageAspect=0;image=data:image/png,iVBORw0KGgoAAAANSUhEUgAAAMgAAADICAMAAACahl6sAAAAjVBMVEX///88c4ScuMD7+/zj5udLfo6mv8f3+PhUhZPs7e5Cd4htlqNFeopymqbB09h5n6uTsrvc4OGrtbmCprBei5nF0NTy8/OkvsbD1Nm5wsTO1Nags7nV2tu7ys+Qr7lmkZ+JoKiTqK/Ey81ykZuvvMG1ytCZr7eaqKzR1NaPnKGxt7nQ2t2AlZx/nqfHy80QoTKqAAAHOUlEQVR4nO2di4KiOgyGKRcHREVEcUQUZcadPcfdff/HW8DLeimQdMI2zvo9wJh/2jRp2hTDePLk38JO8zz0dFvxObxJ4IoDjr9ZvOi2R4146YtrnE2o2yg8+cYREqYfjzUsyVSmomLwbum2Dk5SK6Mks3XbB2XZqKMYlES3hSCsqEWHEO4jOL2dteooxmSi28xWLIiOgq1uQ9vYwnQIkeu2tJkVVIfIdJvaSD4AC2E9uV6k0byOlW5z65lgdAiXb7YyRAkRS9321vEdp0M4XHcpAVIIV3/3sDqEq9tkOThXr9Btshz0zBKC5br1ggiGJxa6jZbRvJuSs9FttAwFFxGBbqNl/KcgZKrbaBntG8N7HN1Gy1ARwnL9VVh9eQpBZox8hdwWSCFwzFFilRHhuN8NVZx9rdtqCclYQciHbqsljEzUhv1AqttqCT1Twdt1Gy0hNs01WsdAt9USQtM03XbTr4l0Wy0hKYSgYzvH44VVIcTs43T4uo2W0SuFACvxRwbfdRstwS51mLhQwrI+N6qEoFbgKcdD0RfzCCIocgyGxv4kZAxWwrLKeB6QAmBRiGXZwZhdCIElwT7L0pw1vxBiQvYlfqzbZimheUXQGhd9jgtWwe5aiLluDoyDLc/xuB2Qano1DErE9XjnpXcvxBzXDYrLMVE8MJPoKKXIbjo5JtNZZUgn1klK4Lt/okrfmQYLvjKO2WI94ygKCqKxafa4OkeJJXMQOTOma+6BBCpjzvvanD1vl1CxYpmSnPGg48H42kmJBx0PvrGjQhoJZex1W9rC6mvMqxisg/Wya3jQeTUj/FEr/Yj8qeu6frDNabIE8Lq7I/m5ijy43kb7y8+nCvUJ1g09ovhhLX5KKsv9t8mnxiWuSXglOoiyxKS2ONN/V/+re+i0Mk2iq+PLps3zWvWfBR4OKgfxWsoZrtJ64t1u0BuYk0wsu/XYpb9Ge32IkEEU0UPI8dFwFWKilY2SQRPR97DK5bBI6IBSrD18D1Uxp4joNrSWHBU/OAPMsBgrgyakW/W9Wjf01+Vv7tLmuIVzjSMUW8ItVIcQg/HhZ3urWejdy4nDZLWDx40LKDzExhxKZpe/3tu95klqF6RpMtuhp9MFFEsv6pi4/wljGxgR6EgxOqqVqwMoPAR5bj/oQkePQEeO01Hk9R0IoTjpRF/S6cBL5gQ68M0PIiAX8kogROFm95RcCMU+ROH6Lb27U6RZCs0PYk0thECHgotUqSMpFIsvMhoeoPZ2ii3uLxUh1MGdomi94CCEIj/5X0UIdWynqMpxGBGKuM7CR0jKWRxWLYq9iBGrCCGOIyRCDIWr9tSRnUaIQj8KdR5PI4RB9ktzSBUj73UL+lSL6KUQdB5PvkMkOjZEh8Ss3TQcND5iGNg2DvLdCJWQGU4HfRGF7CQX1UjXQVmLYl9V4WG2ux1UtUiSxooNXEd/TC+EJI2v8ODnI9QxpILutpwHXLm60UF5PyuF5Y6n/H2+G+WpbXtx7Nl2mr+qne2coSg0npVAHL4Khb3XVHIo46UzlfO2A4Q3aUABvkgWd00nofFeVQulECNpSeidaCUbimuscKVy/kYqpAjxTY4SgY8wkPcESqjvXIe1jRwOKtW2saNCfx1zIZXiLrEhK8RJIfX2I/bH21VQcfyN0sYnQUnp6D5/vNhGQ9/3o81EPehaiItaZJl8N4BvlhYRlvddeMSgcL99HWq4JtsN4AvY/J/03beLKCHbJnbH6KsMCVAJ8yaFCtjs4tzkdgK0DPd491tUwLr2mHckVcDaqx5hcrV1hFawj4olIId/hMkFawp9hMllQByeqqOnU0BD8ghuAmuoZN6lWwFr1X2E2fVlkq4YJIT9btEAZ/QPoKQ2U4mGmes6jjvNhmvTnLOPJ/KNb3R9PONkEVVnZWek9yrGvuREw13zfvNB4u51ZwDOJ3pR/wY37j5sOACYsnwl/sRVOr9uOSZbc46NF3lK+wN0GePV6/XPeAAOYF2+Ss5zq/2hs8pR+Co5xkToNbEp24hyOGGEP/bL82FD47S/Al8aYfqGqXF0Eszry32mVWELtPBewtVNdtiHfgXTbGWEfOdXiKFuk+XMsAMi+jznVjJG35n+pttmKSG+9dFheeJgKzzhz7IobCOC4QmW7y/HCi0rLJ+MV2kiYukkoYIQwbEWgX7SoISjt7+rCOFYiFD5yNtTSJco+QhHISofQmT5ZQWlRw1YFlMUIjvHb6MpfeWN42eGDOMHXshEt81SFNZfjhmKSrLFtUiH7tjmmGmVYLtqea5ZJcg9Isv9YQVySLjOrIIlRgfXKnaJhWjZ5vphmwPwWDJgWow/YoHLptwvC8VvsPHguBG5AdSz/QA6QEsX5wXrgm9t84q7f5xZNG5NfrLcFtaQ1AaUjOjdl79FvJHerMmYnhs2ES/vJpj/YKNxJtkG54qEE00eyTfuicP0V5LanK9oPXny5AkBvwE53Hu2+ZZKKQAAAABJRU5ErkJggg==;rotation=-45;" vertex="1" parent="1">
          <mxGeometry x="813.51" y="316.5" width="16" height="16" as="geometry" />
        </mxCell>
        <mxCell id="ZSY2MWRsBAIIkU0mb_av-59" value="&lt;font style=&quot;font-size: 12px;&quot; face=&quot;Times New Roman&quot;&gt;&lt;b style=&quot;&quot;&gt;phloy tree&lt;/b&gt;&lt;/font&gt;" style="text;html=1;align=center;verticalAlign=middle;resizable=0;points=[];autosize=1;strokeColor=none;fillColor=none;" vertex="1" parent="1">
          <mxGeometry x="829.5" y="309.5" width="70" height="30" as="geometry" />
        </mxCell>
        <mxCell id="ZSY2MWRsBAIIkU0mb_av-66" style="edgeStyle=orthogonalEdgeStyle;rounded=0;orthogonalLoop=1;jettySize=auto;html=1;entryX=1;entryY=0.5;entryDx=0;entryDy=0;" edge="1" parent="1" source="ZSY2MWRsBAIIkU0mb_av-65" target="ZSY2MWRsBAIIkU0mb_av-44">
          <mxGeometry relative="1" as="geometry" />
        </mxCell>
        <mxCell id="ZSY2MWRsBAIIkU0mb_av-65" value="" style="shape=image;verticalLabelPosition=bottom;labelBackgroundColor=default;verticalAlign=top;aspect=fixed;imageAspect=0;image=data:image/png,iVBORw0KGgoAAAANSUhEUgAAASkAAACqCAMAAADGFElyAAABnlBMVEX////g4OD6+voOIz/Z2dnn5+fd3d3i4uLu7u4SVWFyH2P/sRzx8fH4+Pi/v7/FxsfR0dEACDEAGzoAACkAAC6rr7b///ozP1QAEDQAFjcAACYAACwAFTdMVmdvF2D/rQAASFYAACPBz9GOlaC4lLD/6MZDTWDCwsK2traNjY2PUoOioqIAAP90eoVsCFysrKyAgIDPzNyVlZVzc3P+797/9epHJ/5haXdOTk5fX18AAABpaWn+371ZQf7p5fvFxbyeoqobLEY9PT3+6dFZYnEhISHbpgCTrLn91KeViP00NDSqur6DnKIAQE/Js8QkM0v/uD7n5fPZxdXlvb47FP7/wl5FcHlxjpVaf4YvY22ktblbAEiAPHOgdpfh1N6OV4LApboAAA7/0Y//ynqAhpD/w2T/37MYGBja0bXmyIfZy6LdtU2RTofeu2fr28rCv+TkyMnHxuOagJ25l8e4rt/13uDZmq7opKunndvYsslqP2/OmUiQQmPsnZ+aWnj8xIj8uG/7o0aMe/69tP1/bf/5tXSsof1uWv7PyPugk/0MoHbAAAAWrklEQVR4nO1dC2PbxpEGwF0AtgHs8im+ZJtWLACFJTCkWFGW6lCidFFlp4ott0nVNElTNW57d3HS2GnTxznX17X/+mYXD4ISAdGmKNEWPosEsFguFx9mZmdml7AgpEiRIkWKFCnGg0KKvYWjo4vuxmxDNZbm8vlCtlwuZy66LzMM3JtrFOq5DEdu86K7M7MoLlbLPkspUwnoVQoRmhhSpkahV85mjiGVqRGg+4XjNFXq2dxFd2v2sNSI6l2uXKtm5peOFnoX3a9Zg1wpR2gqVOd7VL/oPs0kihGBKje2DemiOzSrOKoOeMouqEExvnX/8AHg8P4tfJHdmx1sh6a8Xl3wy249+MlNhitXrvDtzZ+8iy60k7OA+dA3aKx6xgl94HE0BCj64HKTtR0QVakQXnD/ygmWArz34QV39iKxGhBV2OZ2/P5JaYrI1a2kporZue35xbzsH27WCiFy+6s9ZerXMlUs1HyiPAuFfprAEyCxrWIhB6iK/uGcN55mC9ky82KzgW6/niCNwEQV+fFPR1ingZDdPExsrMjFMz/M1H6vWFzIcG+tXnl9qVLzAVHEL3gvwtF7P/3wweEhOAofXvHYupl8paOYys3z/SV+qr49xWuZLhZ9h7NhBCWHngDdfO8nh9GBTr/1ANh6kNxaAlP+NzXU2A/PNrRFz0rle4Mypn83r7w74pLQh6f4n0lMGdxnK1hn0e0LQTFfAZu7FCnB790MzZH+8aMfAT5+OGZjCUwpXM+zvbPp9kVA287n5oZKHgx07OOfLfv46K1Hp7eVxJRnEQvFM+r2haDYiFUqffmqj+vA1s8/Pq2lBKYQ1/PqSSdfokbkSCSGQV7J8VKIQY5fiEZftbWXxvWrESwvfy+ZqySmeuxcmEEt5hbnFzOg9NpSNR+mVdFSIV+rNvL57FLIaGNzcX6u0AsOtzOL85nwaKm+ueg3mKnWarVqbiFCVnGuAa3VqvWFc0iNfDJEFUjWJ0mDVxJT/KBBg5rMRy0vCbhczuT8ixWWGvVMvX60MJfN1BurQWGZebPzwVfU4KASfEDI5Gp8iICRKQdGJF/OlBtBiK9sFnKZ6tJCJpcpZ4MuTQ+/W7569RhXn8bXTmBqAU7lGsWhmpUluFQo9p0sIChT5wQdwV553xME6mmt78j5R5p3pFQzNb6zX8ntMynsVTMVn2LEMm5Z0DwdhqxcfureyaeBSR/I1vInsbVjmcJLtVw5P4eGa9aPPJX0mFrlbrx3mjlfFX+c4cUF35YtlKPjQjFb51PcC4VMzQs2i3n/nM6m4ryRln1JKLdTA36EVRV//KO3PloOpWv5Iy2m9shoJrO/n8tXcvML6HjNyhG8stkClwKTJRPLPe+0xZyvmndwVPfEL9JkIDeruTxvlH2pb4q2f+FJzxKjNM87yv2TEUPJtKB9ejXg6vr1GKpGM1WvMAlZKtITNTdz+aVi8YizsM8q5317rPEcbJbvo/xgX/Oj1IJXrZHbD0oDoaPeOgqVVQy8nwaX3zPgYGw8Cri6vjyaqtER8up8DkxtJZsPJCasmcuEIxWKcCNwKQGh8mLRTc4hl4liIcPbrHHWSc1TLy40+SFPrZeNCGImc57zliv8/S2PquWfj64Ua6fUHp+aLmxqwzUHYsYN0MCa8CixvDA45e2v1jPeEZeQo3KVq5rKWS5s9gbx+3bk815j1XNKY6zceP9ztv34Opj25bdiaiWMfbg+dGeL2WP3mV9aYH/8Q9/Uy/lQk2r1JS5A3ic3K77z4E/AZatLQRKRH1eWKAHQOd6rc8ojfnbj2o33+7CjJ/kJSf4UN9KZ7EKkZm518NF9btHC+HOpErEzXP2Y+NBagQgV7ifAdYvBOMddEM8kNuY90fEK6nmOCs8vRs3kFHGN4cYv2e7V+AAwiSmh5lmmSM16JDDn5qccmt3VXIQprnDZIhsG8/5YyAxULxsMeCBdmYArL1noTTbtLw4wdz5M9W94VL1fSqyWyNR8NEFVjFpchvowU7xyYLb46Mc0M8ccU1LzW50rhzKpL+aDmV3Pd+X6GNip88QvPaau3bjWSaqWyNRqJWIuTjDlXWXI1NyQ2fLcTWCM+QIS9xoaulotREJrsh9wxeP9zWFlPj/4RDEkSVUyU/xKqnhQM3ol88MWfVgmuMLV0EKZD2Cc8gIpZqtDX07nq/xecOPF6wyixXND6bNrAVc33k+ol8gUdy0z+UjNqEwNewme5xk6EVzh6gv73ljnR0Lb5ciAwKFs13wTJvQ8ql/1gifBZyFVn8VXOj3nGUTDJ5iiEU/cpyZTCc968yK5LB/rPBozuYHyhUkVxjf3b3FjiOpzxUqgfjdWYuv4TAWeyxBT255Bp5GaUab8aMYn+YiJxCAp5du4jOdoBtMk1ZCgpTBpC2paM8M6uYuZCuoEVP04tkrPYyoIUYZmsTx3KlCYk0zxicfAMnFva39wssg/HXgNnmpFvLH5cGqpHsTKMhcqP8gGHEUTq9NGJxgA+3E1PKaC7JHP1CJW5OI+v7haeI9PWHTQHKZiNS41TIlyhUhKiQe8YaZBqYaW20M5kydBB2o+2T1eqbbKvHatuPmL85o+Q+zqN3yv6ldxtbybnQ8OvQg5l8/Xsixhlx3c4REyBfw0chCmUEHqAWfl3FBOfC6qm54PEN4QQfsFHK0alKzWIjejxxfPVfKF/Uo1WzsvPRQRp+rHvlDFeQreABYajf18uICjlm/MRQJYodiAwvwxf4fu58uVfC2frWQbR8Op74Uq1A8zDUdwVBtMKEkLjWylXqjVstlGxNmkc97K+lz9RHNTA0YAaeCqfx5TjxvegaNNBqDycE3aK5Ji78SUFj2azxUK+6u941kd3DNIMawu9wyzSCKn9eLqZraQ2T72ObSwnSlkM6vF81oOoTOiELvW96/duHHj2q9ux1TkYW7jEq9GQx5U5lX98vN4JwEzI/oaL9KYGKrP1KmywpQvV7nMy45Fn6m4iQYfR+D01HOv62KWM4HkM5W40kUslDOVxvbru5TsTODrn5xYqZrPr15InDVTGMdQkUs85g2gjGfSUwg6xlgRk7UvRYoUKVKkSJHiMkDDKYYQy5QqiykiiF8ppF5012YMKVPjImVqXKRMjYvTmFJYYuBV2n2lT80yTmFKoc2mrMgKu3JFYTshCYr/gregdPBSXFMJjt4QnMIUvkvcLdpVMAG+kNwlQAuiWBRlkQAVBMsi0IdEXqrI8GJbhDChGPZYrYu+wrPCaUztuBg1d8hacw91t5y9Jlbc7loL49bO+jreanbdlrmjPWGlXcfcWnOsbrfF9m2LvVt321v4oi/xjHCa9inNuy5aU81W1+qK6hpSFOQ014ApV92zus4TumZvmW2sOF1LXmu2oMxCzpol28Yehhq2tvemCFUyUwqyNfUuMPUENa0uwl2k4LZDOFN4y1onJu6uGTsW6CEYtDWXrSqw22wfmFLwjmWrl4QpEa+tdZvKXaO7ftfdQri9BtKz1e1ibDt4B++BbtlNfBeMF5Q65t56091aazmgd03LhRK3qe5cEqZEjGSw1DJGmA9lSIESf1BTFAzWmwPqyVBDhBds+b6i8HfxTSHqdM+T0yIGFxy6BoNDcVBPjHgKb5SHwJD66OMiZWpcjMWUPBnG7cvUGj4TjMOUrEsTId5eyXyxhzc9T6mq6RpWNazpqupvNLbB/kZjGwlranCUYAgpmQgjbsI4TE36u0At7uZzjuh9ihBhO64l6dQlliVobGMIKmxc2BDLhCMMG9fEbGPAkekQC8XeAo1BHeNt9Bl8ssvnwVRsnllGD6h8/wOC5PsyYquEQAAFfyMNbcJz6qEugXubKQryoSDE6p+sTgZl5pjiQoW4TFEpWMuYrMsaq6ZBZV2/RExRALNQDETS7zP8+je/VcebLFH1eJsu6VHEsQ427/yYkg4B7yYuVkyQKYPKDx74oiXptxhTv/3P32hjYsT1BBCY4krhWwwgzDjR6NSY0tlzBN9LfCBlAlOHVP7gg4Ap4da7AGBKGQ+imcDUANr92J7h//q57FrEgvHDtdh44bpEm5pMnf7ozgSmuFvkewlw8/+D47+9tOlZMZUkU48ecRHCKla8HTxF7ZuEKYpg+LcCmZKk0KoI4rsc91+RKVkfVildh7/wFZ4UfWVjVKlaxK6N6PLFMmUeImKQUKaiI5xntLWkUVA14hpWqGtoGrW4KllABBwiA2mWYWrEsIzAcItIxbJ2Cym3tPu3oou+R7iAFyxThAQu+jGmxkE8U6LM1cjTpWAP/hS+xczp58Ik+wIFf6Iy00x5ztSrMjXKkw4AFwv6qQoShvENZBN2ZMzslYQUzH8HpchYjB2yZ5ApNAFTuhYbzTCmQFpVGN5E4EoFpqAXnCmQN2BKgX9sL2UKLhb0ihEEmqWrOuxg7t1LoHqCjhXMle44QVBDv3xMgd8PTGDYACmCpFDEmaJUFDSCKAy8dIgpCQnAoipeOqaYQwCuFB/0+Y7muezgDLADjfkLQ0ypv1b7pZXbG1+AZM2clzBNplQTUYU95NQkzHRLMqFcpmC4FTSLmNSk0aefSiud2/2VDjDVL32ByckW31ymeMTHX/6OFIkF/XxFwJSkadJGqb/R6XRu7/Y7/f7M+ehTlSlwM2VBkE2LgIMAVsggnDXDoILmGha1qBEwJb/TWen0Sy/gfeMFELXy2mif4GfwpDCJx0SBP1BAEsJns+g0yZ/yKoUhnxT9bFDqM0XVTh+kSdjd6Kxs7AJRnWlYdGGyCBmhMEIOc0UaPjh4/vTZ27zg4MuDA57EPVCePj04+FL/6ulXzw+ePf0K9tVkmbIM2CAmUwizhzt7MmX5MkUiMvVFBwQJGAKm+oypMxn7pIVj4I/d/91bwxh6OnMCU4TKh4fycZnSn3/97KuHPOYTHj37+uunT2HvuX7vm98/f/b06dt/ePbtN98+ffb1o0QffSBTgZAKAyH1z3lMIVoCU76yAaoHNmoD+Cp1zoApvXwMm0DUH5eH8bOh5+ONm5+K4OHDIE+pPWTw9p///uBb2H/48OCbp3/4w7cHo6ZQQqZUk01MCJQwweIy5Y19hsnGPrBTBjU9piS1w8wUKODnXK5A+744C6Yyx7F55Y/DT7G+enV5XKaG81OnQdCee8kF/ctvHh785SApPyX5OWFdVwM75zei8wFQZw4WZ0pCTIhWNm6DWIFQbZRgOxWmcvU//fn4U6zHZgoRwzRGyNRp0DVBTWaK/3QcLBNhjrgMbCHi+egmlQXNpBTcdJNfmYT7u+AadHZBsjaYtQLCzkT7csdQ/9O1a39evj6EcZkyDxGoyKt5CdpfDhLtFE/XQTUW3PluOWdKY3GfrrJBwov7JFwSSv1dIKhf2lgB9QMFPBOLPj+MxT+xB938z/eG8NGYFp0SSl9C+4bx/EBPHPtkUQHLpCCI8xQIlRWkeHEfOFcsJlSo4j3VAZsrzDHYfQHv4Kb3N8Con4X2nQB/IlDcc25OYQpBiPHKnue9p4lMsSl7RhhWgBlgSsNefgorqqCLqoKVyK+GSuBHbbzY2FgBl2oD7Po0PM/SRExN5KN/mRwhY1GBeA8zprDOGeJMyZgxJbM8nuJpH9nd3f38BfhRu//4HOQJPKozsegzxNQpuQTml2oCZvk8lnXBSPaYAp3TKc/k+c9UwR0BPKmNjdu3+y82djt90MNLxhSYbE1SVZ1n6MCS64NMHk+sa0EmD+++YIPe7u7Gxi5I1e7G7cvFFBhsigT+iDRQM0mh1M/kcS+BgNfgZ/I0sy8IzEuH14sXoIrghF4qpngqjzmguuCl9LzMi+65DHxeL7TonU5HYNkpMFLfMbF602RKjPWnoMsqeCCECoSAV8CyLrLpRcgmj2aIMYhmIORBHWFlhf31O7vfQTwze0xFliLS4eUpJyBJJyokruAII2QveydJgwhZOpZ1EVRd76xARANe+krnuxedM4n7zpapqEydtrAFKZpWKpU0vRQUlRJlyjJMi0KEbJl0dNaFGIPsMKYgVZ1Sv9Tv9P+3L01jTd5kTMXlEgYoBTvMJ5L++tcflv72b7/s4d/fjmMqKlN+WlBIkCn2S35BZUwBXcI/fi1NI5M3GVP3o+unRhL1ryD9gjUw0HfuPC798Ac+U/fuvB23JtaTKQNkyjDASB2XKTjHEnnu0H+BJcoS/kLHCHwwffaYgn9iYtxXunMvYEqEQf3One+PxdRApiRB9+yUEMrUQLCOz4yKVBD4M8ZmjilKTNd1E2XqccgUxG7S+EwJmJjEpAKi7I3NOJh+Jo/PYhkw9iHzOFMhZo4p81BGlCbKVIQp6aWY8gdMb36U/en+YkbuT3nu1jkzdWMCmaLB6qkxmJLFl2JK5attBbgVsiBC3Cf7s+2Ez7YT8NFler5M/erHgNjHoCczdfqqoAlkis3yaCxxp3mZPDWSyVN1b+XUeTI1Bibw0UsRpvSXsFOKtyoIhj0syoqAeSYPh5k8He4QHJ/vqqCpMlX62z8HYx8i2GPq+/+8dxpTbLEdm0xUQGkVeFMlHcv89z+6CIUaXz8lxz/J9vVj6v/uDJjy/Clg6s6df5VOYYqtCBrjlwyzxlTyL4zGZyqwUz5TpWTtG6XMx6EoMb/FoiObPJUpNOHDuePjWBqJkNEopv7++M69YF0K2F/p8eMflP792GNKuPc4tuUxu4zjovIR6ZyxfglJjIkQn0VCp330nXfeOXE8KBtx56fX5bGYGvPXGbEr7OMxtZbPvuHJfofsN3sKHWPBa8b7GT1/woAYHISlL/tIAcX/qDh4lwcdVvwv8ndEJfwX09okTCmu7YpsZTciVkJWbayrMizsKhQjRUQwjru2jSmM42z6UmaluKk2LUzZxY7dZKvlOvBx1ojDhg/oakuxFRuCcmrJsgjF2DX5l1CFZd2VFobvijEWkzHlNMl6u9VabzotuznRo24YU3a7abWbzlqrhZvIajVbzabdctprtttuY8do2VDgNO1xv0dxbLpuW9CE47Rt2lp31y0HNx1it9uW01q3oePYhW9s2q7dbLYdOIa6XTRaqiZkyhRtR7HtlmvBdnxeRjRlObJtAz3Aio1wkwJljmU3SdO14dIcBd+VYUP2WmN/j+LQpm2rQAQitm20XGDEwVYXwTfIrfa6rbSa2HVd22o7RnPdsYkJVe24OzEZU9S1KBXpuqVYdsytGPeyEDRFqOxS0yJgTRwqO4gS5IjwhizCnnVFZEchNH4kPdE7R4QPGi7onoVccEbhxdpxDQiOLYuI1FLYj1XhKmw4iR1kIfiGmOs4A4sOXYKXOaFNPzbyDPaDIt+2v8TYEXxeVCLNDdoJHtQGQHLUzse0NhFTQSP+67XFOJ1Pn1YyLhKYSp+mO4RJo98UKVKkuFBgy0p8uMYA5/m/vc4irDbZE48Xqu0RNcmIsssEyxIci3S3NLK1J9Pultru7pHmEyoI6+tdoQmv9voW398S1ta6wt7ajkK6e5fw/8SytuDyn9BWa0vQyRZxm02stXUmU08QwntoDe1QxPaFLrKFFtkSiNtqJfyPB28sLFfbEu4SE+8Jgr5jGkobq22ufdjdk7vEVLG1p8O+0KWO4BpbgunodM266H6fP1xHaBp2s0mc9rrltG1jHavrwl1FkO5aO8KWs6Y9sfbgtSPsCTvujrAjGI5tt92L7vf5Q9fAgAsy+PFstlWR4QD+FPZ/iLJ1I1TztxI7QdkiG/iEnLr9KVKkSJEiRYoUKVKkSJEiRYoUKV4N/w/a4x+JBkYCBAAAAABJRU5ErkJggg==;" vertex="1" parent="1">
          <mxGeometry x="812.78" y="401.5" width="91.72" height="52.5" as="geometry" />
        </mxCell>
        <mxCell id="ZSY2MWRsBAIIkU0mb_av-70" style="edgeStyle=orthogonalEdgeStyle;rounded=0;orthogonalLoop=1;jettySize=auto;html=1;entryX=1;entryY=0.5;entryDx=0;entryDy=0;" edge="1" parent="1" source="ZSY2MWRsBAIIkU0mb_av-68" target="ZSY2MWRsBAIIkU0mb_av-44">
          <mxGeometry relative="1" as="geometry">
            <Array as="points">
              <mxPoint x="730" y="550" />
              <mxPoint x="730" y="428" />
            </Array>
          </mxGeometry>
        </mxCell>
        <mxCell id="ZSY2MWRsBAIIkU0mb_av-67" value="" style="shape=image;verticalLabelPosition=bottom;labelBackgroundColor=default;verticalAlign=top;aspect=fixed;imageAspect=0;image=data:image/svg+xml,PHN2ZyB4bWxucz0iaHR0cDovL3d3dy53My5vcmcvMjAwMC9zdmciIHZpZXdCb3g9IjAgMCA0ODguOTQgMTM5Ljg5IiBkYXRhLW5hbWU9IkxheWVyIDEiIGlkPSJMYXllcl8xIj48ZGVmcz48c3R5bGU+LmNscy0xe2ZpbGw6IzAxMDEwMTt9LmNscy0ye2ZpbGw6IzIzYjM1NTt9LmNscy0ze2ZpbGw6IzAyYWJhZjt9LmNscy00e2ZpbGw6IzQ5OThkMzt9LmNscy01e2ZpbGw6IzhhMjc4YTt9LmNscy02e2ZpbGw6I2VkMTU1Nzt9LmNscy03e2ZpbGw6I2YwNTIyMzt9LmNscy04e2ZpbGw6I2Y3YWExYjt9LmNscy05e2ZpbGw6I2E2Y2UzODt9PC9zdHlsZT48L2RlZnM+PHRpdGxlPkJva2VoIExvZ290eXBlIC0gRmluYWwgLSBObyBQYWRkaW5nPC90aXRsZT48cGF0aCBkPSJNMTYuNDksMFY1Mi4wOEEzNS4zMywzNS4zMywwLDAsMSwzMC4yMyw0MC43NmE0Mi4yMSw0Mi4yMSwwLDAsMSwxOC0zLjg0QTQ2LjUxLDQ2LjUxLDAsMCwxLDcyLDQzYTQyLjg1LDQyLjg1LDAsMCwxLDE2LjQsMTYuOTRxNS45MywxMC44OSw1LjkzLDI1LjE1dC01LjkzLDI1LjI0YTQyLjc5LDQyLjc5LDAsMCwxLTE2LjQsMTcsNDYuNSw0Ni41LDAsMCwxLTIzLjcxLDYuMDZjLTYuNzYsMC0zMC4wNi0xLjI3LTMyLjI3LTEuMjdzLTE2LC4yLTE2LC4yVjIuNTJDLjg0LDIuMjgsMiwyLDMuNSwxLjYzYTYzLjU1LDYzLjU1LDAsMCwxLDYuMzYtMUMxMC41LjU2LDEyLjQ2LjMyLDE1LC4xMVpNNjIuNjEsMTE0LjI1YTI5LjczLDI5LjczLDAsMCwwLDExLTExLjc4LDM2LjQzLDM2LjQzLDAsMCwwLDQtMTcuMzksMzYuNDYsMzYuNDYsMCwwLDAtNC0xNy4zOUEyOS4wNiwyOS4wNiwwLDAsMCw2Mi42MSw1NmEzMC4yNiwzMC4yNiwwLDAsMC0xNS43MS00LjFBMzAuNDcsMzAuNDcsMCwwLDAsMzEuMjYsNTZhMjguMzIsMjguMzIsMCwwLDAtMTEsMTEuNjgsMzcsMzcsMCwwLDAtMy45NSwxNy4zOSwzNywzNywwLDAsMCwzLjk1LDE3LjM5LDI5LDI5LDAsMCwwLDExLDExLjc4LDMwLjA2LDMwLjA2LDAsMCwwLDE1LjY0LDQuMTlBMjkuODUsMjkuODUsMCwwLDAsNjIuNjEsMTE0LjI1WiIgY2xhc3M9ImNscy0xIi8+PHBhdGggZD0iTTM4OS4yOCw3My41YTQ1LjYsNDUuNiwwLDAsMC00LjY1LTEzLjM2LDQ0LDQ0LDAsMCwwLTkuMzMtMTIuMjYsNDIuNjQsNDIuNjQsMCwwLDAtNi42OC01LDQ0LjQxLDQ0LjQxLDAsMCwwLTIzLjMyLTYuMTUsNDUuMzYsNDUuMzYsMCwwLDAtMjMuNSw2LjE1LDQzLjM5LDQzLjM5LDAsMCwwLTE2LjM1LDE3LjIxLDUxLjUxLDUxLjUxLDAsMCwwLTUuOTQsMjQuNzgsNTAuNzcsNTAuNzcsMCwwLDAsNi4xMSwyNSw0My4xLDQzLjEsMCwwLDAsMTcuMywxNy4yMSw1Ni4yOCw1Ni4yOCwwLDAsMCw0Ni4yMiwyLjIzLDQwLjEsNDAuMSwwLDAsMCwxNS40MS0xMS40MmwtMy42MS00LjM2aDBhOC42LDguNiwwLDAsMC02LjQ3LTIuOTIsOC41LDguNSwwLDAsMC00Ljg5LDEuNTZsLS4wNiwwcS04LjUzLDYtMjAuNDMsNi0xMy40MywwLTIyLjQ3LTcuNThBMzAsMzAsMCwwLDEsMzE2LDkwLjYzaDU0Ljc4YTY1LjA4LDY1LjA4LDAsMCwwLDcuNy0uMzksMTQuMywxNC4zLDAsMCwwLDEwLjkxLTEwLjg3QTE0LjkzLDE0LjkzLDAsMCwwLDM4OS4yOCw3My41Wm0tMTYuNTQtLjM0QTYuNzksNi43OSwwLDAsMSwzNzAsNzcuMjdhNi4yMyw2LjIzLDAsMCwxLTIuNDgsMWMtLjI1LDAtMy41NS4wNy0zLjU1LjA3SDMxNnExLjM4LTEyLjE0LDkuMzgtMTkuNjJ0MTkuODgtNy40OWEyNy41MSwyNy41MSwwLDAsMSwxOS44OCw3LjU4LDI3LjY2LDI3LjY2LDAsMCwxLDUuNDQsNi45M0MzNzIuMTksNjguNjIsMzczLjMxLDcwLjY2LDM3Mi43NCw3My4xNloiIGNsYXNzPSJjbHMtMSIvPjxwYXRoIGQ9Ik0yMTIuNTUsMi41MmMuODQtLjI0LDItLjU3LDMuNS0uODlhNjMuNTUsNjMuNTUsMCwwLDEsNi4zNi0xYy42NC0uMDgsMi42LS4zMiw1LjE3LS41M0wyMjksMFY4NC45bDQ5LjY1LTQ3LjA5aDE5LjkybC0zOC4zLDM5LjA3LDQyLjA4LDU1LjQ3SDI4Mi4xMkwyNDcuOTQsODguMjlTMjMyLDEwMS44MSwyMzAuMzEsMTA2LjU0YTE4Ljg3LDE4Ljg3LDAsMCwwLTEuMjYsNi4zNmMwLDgsMCwxOS40NSwwLDE5LjQ1SDIxMi41NVoiIGNsYXNzPSJjbHMtMSIvPjxwYXRoIGQ9Ik00MDIuNTQsMi41MmMuODQtLjI0LDItLjU3LDMuNS0uODlhNjMuNTUsNjMuNTUsMCwwLDEsNi4zNi0xYy42NC0uMDgsMi42LS4zMiw1LjE3LS41M0w0MTksMFY1MS4xOWEzNC4yMSwzNC4yMSwwLDAsMSwxMy40OS0xMC41Miw0NC44Niw0NC44NiwwLDAsMSwxOC42My0zLjc1cTE3LjM2LDAsMjcuNTcsMTAuNDRUNDg4Ljk0LDc4djU0LjRINDcyLjQ1Vjc5LjkxcTAtMTMuNzQtNi4zNS0yMC42OXQtMTguMjEtN3EtMTMuMzksMC0yMS4xMyw4LjEyVDQxOSw4My42NnY0OC42OUg0MDIuNTRaIiBjbGFzcz0iY2xzLTEiLz48cGF0aCBkPSJNMTcxLjI4LDQzYTY5LjY4LDY5LjY4LDAsMCwwLTQuNjItNS40NmMtNS4wOS01LjQxLTcuODEtNi40OC05LjQxLTYuODFhMTIuOTMsMTIuOTMsMCwwLDAtMy0uMjFjLTQuMy4yLTcuMjQsMi40Ny05Ljg0LDQuNDdhMzEuNTcsMzEuNTcsMCwwLDAtNi43OCw3LjE5LjQ4LjQ4LDAsMCwwLS4wNy4yNHYyNi4xYS40MS40MSwwLDAsMCwuMjMuMzcuNDMuNDMsMCwwLDAsLjE5LDAsLjM4LjM4LDAsMCwwLC4yNS0uMDhsMzMtMjUuMjdBLjQxLjQxLDAsMCwwLDE3MS4yOCw0M1oiIGNsYXNzPSJjbHMtMiIvPjxwYXRoIGQ9Ik0xOTQuNjUsNDkuMzZhMTIuMDksMTIuMDksMCwwLDAtMi0yLjI5Yy0zLjE4LTIuOS02Ljg3LTMuMzgtMTAuMTItMy44YTMxLjU4LDMxLjU4LDAsMCwwLTkuODguMy4zMy4zMywwLDAsMC0uMjEuMTFMMTU0LDYyLjE0YS40Mi40MiwwLDAsMC0uMS40My40MS40MSwwLDAsMCwuMzQuMjhsNDEuMTksNS40NmguMDZhLjQyLjQyLDAsMCwwLC40MS0uMzYsNjguNzUsNjguNzUsMCwwLDAsLjU5LTcuMTNDMTk2LjcyLDUzLjQsMTk1LjU1LDUwLjczLDE5NC42NSw0OS4zNloiIGNsYXNzPSJjbHMtMyIvPjxwYXRoIGQ9Ik0yMDguMTEsODZjLS4yLTQuMy0yLjQ3LTcuMjQtNC40Ny05Ljg0YTMxLjMxLDMxLjMxLDAsMCwwLTcuMTktNi43Ny40MS40MSwwLDAsMC0uMjQtLjA4aC0yNi4xYS40LjQsMCwwLDAtLjM3LjI0LjQyLjQyLDAsMCwwLDAsLjQzbDI1LjI3LDMzYS40LjQsMCwwLDAsLjU4LjA4LDY3LjU4LDY3LjU4LDAsMCwwLDUuNDYtNC42MmM1LjQxLTUuMDksNi40OC03LjgxLDYuODEtOS40MUExMywxMywwLDAsMCwyMDguMTEsODZaIiBjbGFzcz0iY2xzLTQiLz48cGF0aCBkPSJNMTk1LDEwNC40M2EuMzYuMzYsMCwwLDAtLjExLS4yMUwxNzYuNDQsODUuNzZhLjQyLjQyLDAsMCwwLS40My0uMS40MS40MSwwLDAsMC0uMjguMzRsLTUuNDYsNDEuMTlhLjQyLjQyLDAsMCwwLC4zNi40N2MyLjM3LjMyLDQuNzcuNTIsNy4xMy42bDEuOCwwYzYuMDcsMCw4LjQxLTEsOS42Ni0xLjg2YTEyLjQxLDEyLjQxLDAsMCwwLDIuMjktMmMyLjktMy4xOCwzLjM4LTYuODcsMy44LTEwLjEyQTMxLjU4LDMxLjU4LDAsMCwwLDE5NSwxMDQuNDNaIiBjbGFzcz0iY2xzLTUiLz48cGF0aCBkPSJNMTY5LjA1LDEwMS41YS40My40MywwLDAsMC0uNDQsMGwtMzMsMjUuMjdhLjQxLjQxLDAsMCwwLS4wOC41OCw2Ny41OCw2Ny41OCwwLDAsMCw0LjYyLDUuNDZjNS4wOSw1LjQxLDcuODEsNi40OCw5LjQxLDYuODFhMTIuNDMsMTIuNDMsMCwwLDAsMi40MS4yM2wuNjEsMGM0LjMtLjE5LDcuMjQtMi40Niw5Ljg0LTQuNDdhMzEuMTYsMzEuMTYsMCwwLDAsNi43OC03LjE5LjQ4LjQ4LDAsMCwwLC4wNy0uMjR2LTI2LjFBLjQxLjQxLDAsMCwwLDE2OS4wNSwxMDEuNVoiIGNsYXNzPSJjbHMtNiIvPjxwYXRoIGQ9Ik0xNTIuOTIsMTA3Ljc3YS40MS40MSwwLDAsMC0uMzQtLjI4TDExMS4zOSwxMDJhLjQyLjQyLDAsMCwwLS40Ny4zNmMtLjMyLDIuMzctLjUyLDQuNzctLjYsNy4xMy0uMjIsNy40MiwxLDEwLjEsMS44NSwxMS40NmExMi4wOSwxMi4wOSwwLDAsMCwyLDIuMjljMy4xOCwyLjksNi44NywzLjM4LDEwLjEyLDMuOGEzMC45LDMwLjksMCwwLDAsNCwuMjYsMzIsMzIsMCwwLDAsNS45MS0uNTYuMzYuMzYsMCwwLDAsLjIxLS4xMWwxOC40Ni0xOC40NkEuNDIuNDIsMCwwLDAsMTUyLjkyLDEwNy43N1oiIGNsYXNzPSJjbHMtNyIvPjxwYXRoIGQ9Ik0xMzcsMTAwLjM3bC0yNS4yNy0zM2EuNDEuNDEsMCwwLDAtLjU4LS4wOCw2OS42OCw2OS42OCwwLDAsMC01LjQ2LDQuNjJjLTUuNDEsNS4wOS02LjQ4LDcuODEtNi44MSw5LjQxYTEzLDEzLDAsMCwwLS4yMSwzYy4yLDQuMywyLjQ2LDcuMjQsNC40Nyw5Ljg0YTMxLjU3LDMxLjU3LDAsMCwwLDcuMTksNi43OC40OC40OCwwLDAsMCwuMjQuMDdoMjYuMWEuNDEuNDEsMCwwLDAsLjM3LS4yM0EuNDMuNDMsMCwwLDAsMTM3LDEwMC4zN1oiIGNsYXNzPSJjbHMtOCIvPjxwYXRoIGQ9Ik0xMzYuMTksNDIuNjhhNjguNzUsNjguNzUsMCwwLDAtNy4xMy0uNTljLTcuNDItLjIzLTEwLjA5Ljk0LTExLjQ2LDEuODRhMTIuMjQsMTIuMjQsMCwwLDAtMi4yOSwyYy0yLjksMy4xOC0zLjM4LDYuODctMy44LDEwLjEyYTMxLjU4LDMxLjU4LDAsMCwwLC4zLDkuODguMzkuMzksMCwwLDAsLjExLjIybDE4LjQ2LDE4LjQ1YS40LjQsMCwwLDAsLjI5LjEyLjM0LjM0LDAsMCwwLC4xNCwwLC40MS40MSwwLDAsMCwuMjgtLjM0bDUuNDYtNDEuMTlBLjQyLjQyLDAsMCwwLDEzNi4xOSw0Mi42OFoiIGNsYXNzPSJjbHMtOSIvPjwvc3ZnPg==;" vertex="1" parent="1">
          <mxGeometry x="842.48" y="530.5" width="34.05" height="9.75" as="geometry" />
        </mxCell>
        <mxCell id="ZSY2MWRsBAIIkU0mb_av-68" value="" style="shape=image;verticalLabelPosition=bottom;labelBackgroundColor=default;verticalAlign=top;aspect=fixed;imageAspect=0;image=data:image/png,iVBORw0KGgoAAAANSUhEUgAAASwAAAEsCAIAAAD2HxkiAADMRklEQVR42uydB5wkxXX/z0nyx0G2ZTnI4e8gW1awrWxblq2EJFsJoWQr2hJCkgVIgAAJRBZRZIlwwGU4Lkc44OAycFzOt3l3curcPd2Td+f+3+ranZuNN7O3Ca7rc5+5ntnu6qpX7/dCVb1Xs04EJShBmdYyq/FbOzo6nn766ePHj5fL5WJQghKUCSpNgLCzsxMQXnrppaOBMOuXgKb1xbbtXC4X0KG+mKaZz+cDOowHhLL89Kc/He1PVFcqlQLror7Abb29vQEd6guSulqtBnQYjzkqy4033jjanwqFAjgMaFpfUIOVSiWgwxAQ9vX1BXQYDwjb29s3bNhw8cUXByAMQBiAcHpAiE/4zDPPXHLJJQEIAxAGIAzM0QCEAQjPSBDiTPf29t5www0BCAMQBiCcHhBu2bLl+uuvP++88wIQBiAMQDht5ijKMNCEAQgDEAY+YQDCAIRnKgjb2tqeeOKJYIkiAGEAwmkDYVdX17PPPhssUQQgDEA46SBE4+m6Ho1GN23a5DhOYI4GIAxAOKUgBH6XX375vn37FixYgN5bvny5/L1arUI4+On6668fbeNfAMIAhAEITxeEpVJp0aJFDz/88Nq1a1etWgX3zJkzR/5p69atN9xwAwj80Ic+tHnz5nw+nx1WTNO0LCsblLpiGIZt2wEd6guCHgsroEOtDAKh67rr1q2744475s2bN3/+/D179ixbtmwIaseIogg0YaAJA004MT5hLBZDfre2tqIMNU0LfMIAhAEIpxqEoxVgiZ686KKLAhAGIAxAOD0g7O7u3rRp0w9/+MMAhAEIAxBODwgDczQAYQDCaQYhhCuXy9dff30AwgCEAQinB4RBFEUAwgCEM8IcDZYoAhAGIAx8wgCEAQjPVBC2tLSsWbMmWKIIQBiAcNpA2NPTg1sYLFEEIAxAGJijAQhfmSAsV3qzWU83bNOyPS/X21cNQDi0QLhSqRQsUQQgnAwQ9vb1OabpKGmlp1MNd7u6knWyZ0ie7mCJIgDhjABhsVT2DM1KJ61whxHu9PSMYxhniDIMligCEM4UTWibZlYVmlATmjDjoAnPQHO0Wq1u3rx54cKFHR0dzz///LJly9ra2oY8cMstt4xWV3AgzPASHAgzIghHjAvHJ3SzrvAJTdv18n3VM9InBELbt2/fsGHD2rVr77vvvjVr1mQyGfmnlpaW1atXr1q16ktf+tLx48e5szCsyEjNQlDqim3bnucFdKgvpmliIIz652JR/DuTyiAQlstlOGbdunWPPfbYSy+9tGPHDrSi/FM4HObrtm3bzj333FAohIlVGlZcv5SCUlcQTCjDgA71xbIsOC+gQ60MAiEcs2DBgueee27u3Lnr16/fuHFjLcdMrdx0002BT9iUTxiYo6c0R7E8c7m85+UqvWfi+uHQiZlYLLZ3716EdyKROHDgABcnXefeXmAWLFEEEzMTOzEDHpH+nq7mDdUxzcqZt44fLFEEIJxmEJZ7+7KGXrK0oqV5hpYvlgIQnqIESxQBCMddKn3V3r5qNuvWgxBb1MFLNFX+2bpergSa8FQl2LYWgHAcBRfQy+UdQ8+apqrpQ3xCsWHNyTq2XSiWA59wrHLs2LEVK1b84Ac/CEAYgLDZUqr0OrpWstSSraVisRHVXfVMJU4TIIxEIjt27Lj00ksDEAYgbLYUyxVXV3H8yo6ejsfOzFnQwCcMQDit5iiOn5MFh6aaCYWipuO6Xr5QLPVVT/Afliqq8hVrBZR7PS+fL5aqgU8YgHB6C3hzcwVNUeI9XcmuDi0WcQxN1UyQmTMUxzDKr0QclsoV29DpYFZXvVxhAnzC5cuXBz5hAMJxF5Re3tRiXe1OuF2PdHu6koxEC6ZYnMgZai6Xf+V12UPLG2pRLMCojmVVT98nfOGFFy677LJGQNhbrVYDpgtAOMQzLJVdU090d2rdbXo0hA5MJdN5Uy2aKoqikalR1OnLK7zJyxUdTfWljJJ13CnyCfuqYiEI68KxncD/DkA4yDMUYSXFZDyRTKYNzXCzbqFUEYsTloWpdkpwoUht03RMM194GSzoo4XQgrZhpJIpTVFB4GhwaAKEMFM+n7/uuuvGAGGpVMrli54h5sHyQD/rBiAMQDikONls32BDqRFRDQc7ho5RJ+w6w5j58h21nxUTwqLBlmn2ji5jmgChPKLw29/+9tgg9DxPGBiWWBTKDjvoNwBhUMaX6ElEGxpa2d/dljW0mT+bKmZ9DQkEDfExRpaAWcPVnWEYJ/yMMrZtN2uOAsJyRUwH8XotndZNe4YTi+blcgWEVgDCmQxCGJhRymRUR824huq8HNLPgDrHsj1duLuumxvjzllDELhkyZI5c+bs2LFjzZo1Dz744K5du4Y80EhkPaaCYWcNJZM3Ncc0wOWMRSDNo5FZQy9Mzr7hILJ+RBA2O20HE3uGBvzUjIq/83KZmsEEha9OKeKHgjAUCq1atWr+/Pmg0bKs2nHZR48eXb58+dKlS7/4xS8eOXIEsOWHFRlZzwUqEWI56biTTlipmKrq/JSfcaWgabqZjNFIOxVTMkpuEt4hI+vzQakrMrK+8ftdL6emkoKdMgkjlbBspzAT2WkkDvOxcMrWzhoitsPh8O7du2+//fbFixcDQtAo/xSLxV566aWdO3eed9550Wh0eGR9uVzOZl3X84r+N8OwnEzSVVIif5blzNAQbztrppOummJ0TcOk2cIwLZeDyPrJjqzHaPKpLAheGpHgZf9P/mgUikVdUbIK7JQ0MinXy490e5nbixM9fOMosiWFUhMtmTXEgZE68Nlnn8UcfeSRR/bu3TtEdY4WWV8olpV0JhqNa6rmOlkx9Zx1s6YJLmfswo5YTXG9rGW62ezJufJ8YWJ9wsAcHdEc9ZeyPMe0UHRDjFO+8SNjkXVcOZ9RLFfwrxzLzI0yOmU8C9vhEYzV6fZxKlnREhsntsFHZg2fXJHJnWAdXdcH9dPPQDPiEoUIRTENLRZJtR+XOyGyjtPn+6YvA8O9r0pTGcK8WFnBjdYKEzdPE0zMjAZCxF/OX8qCW7zBe2VgX7nbu36VC1bqHcWT5E8yItFfvdCK0zcH0ddXPdkSXWtwNmRiliiwAnKmrkRDaudxAxBqGYTWyyhlHU21TVMGd8MZo+3xC0A4IcV1xTohUq/oL2Uh+4asJ4PPwqm2eg2dhzQNuRjA8BWmLza/4mcJKPZnCVAb3FQwMTtmEACoYDUejba3qtGwmJP1co2s/OSxYmeGtYan4e8kVm3DmMAmBSCsl3ResZwXforQhAw9ukLkldH14uANawObnsXkfm5M70CyUAlDzPU8XeWfklHcXHG6FEBV6Hm3n5Esq7exHQUTFkWBNDJMWzUw8f2ojVMRAZPP1sVyIkxfnAFrGFV/Nhm7aGL38gcgrCFQs3MZI8u/WFrt8/0UeEAEMY00+jL8hxvG4KNiuez4K9KOWGEq5wqljKJZYiFRm8ZzLETmOBGcVWh8T08TIDxy5MiSJUu+//3vj0qUZjJwO04W0xn7gc9X8O62AIT9MrdcyeiObrmG7XXH0mBsAnzLOhZys65MGHVyS035ZTMf1gQI4/H4rl27Lr/88lEJ3UwoE8DD7ZZG/Nj7CSbVeAhAODUFizHtg5B/PfF0s+bGiCOFCTrAQorr5yx1RNY24Uxizc7AhFETFtQ77sh6DAbbdijS/BAksx1T05KJlGlYmP7VqSUHRjNOv5PNTupW4ACEJ22fXCljuIrlZTSj8R0zlb4+5LXtLx1Vh82CwELZunidHGNqGko6k04rmFrTGCVcLJXFkontSFcLG1UuuvA53F9tAoTlctl13bGjKEYDoS+lDD+tnWKbply64MO0nFz/woA6lZm2/B3uYou5mAR3nGoAwikpjHsv7Og2sXcULKHoSqMEHFZ91qoOmmuomH78nkigaFnTskZGk8RMh5/EEaFAA3F9PT+iwhNz7/nxg7CRKIrRQIg88AxNTiILw92XW2J5Z2BhID9S4yZTQeVztUlw05i8oQpAOJIn0igIxWSjZZVMdWDp6NQcImbX/OXHoh+7MC0RTyKrlaHJNrh+wAfuq1yPgd/o/lSbo5gECDCvUFZVn466oqp6ccBpxht0kXD+BNdpetJ0tVAqi0C1qph2G7s2WoXbUBDtwSP1GCqxVuJzBtYyenKi5tZewSAs+wSv7WgplirV0wAh5M+XKkOkIeOiG7atZoRKGeAQ7uFd+WKFIZMGZ31LhBYyTSHTDWW6Tjjs66vali0SduiqY9kymVXWEIrRVDKm46Gui3WdndxET2ItyNAz8XgqHNIz6WQqk0xmHE1BGcr1H3gdOz7r5k4z0oLaqNM1VMvCBnHEJLWued5YgpM38l7eni+WMZVR1AyeZWd5kMf9YJlqAMIxFI5cHrBNy5RE0zWct0ZoNhyEtldMG07GyOrOSZcJNmVckNGZVNqw+qcSxGY327FUJREKqYk4VoxpizQOrjzHwtd7IvLQy3m5Qt/0bdiiJWLl2cvXlgoRE6puqniryUQyFLLUDH6Q3APUBAgPHz68ePHiMZYohoBQbiZC9emRLivc7mSSeiplZlJlWxqBZu8EqRu530XYurZupJNaKlmyZSSl0duA2VOb6XY1JRWLyWeRWxOyevmKBGFV7PKziz7RsmoaIQvlxcIAbk8DRBsCQjSCgJ8/ccoF+nDIuIgVCNertzbNVMIWqaK60DaJaEzelptaj2YcREN80Eg90g0crFTCG9jc0wQIE4nEnj17Gl+iEKftiKBGRYt0m6EOQKilUsYACJGgEyWnxB4oQGiq1GykU4CwLEHYGM4df7GkDA8BwkQiAGFDIHScgimIhl2TSUBwCUKtkQlJf8dMX/1sjQCh6RqWmzayhQE/om4RS6mBUKSKEkfbJ6yQn68NEMYTEoTYn7kJ3Xw/CZLLyfXDod1OJ+hIwZc4Q0Go6/ru3btd100mk/v370+n06fjE4qJWtNSUqlkLGZhrrieI3JA6RgYeIaYi9JgqFT63Kyn65amm/zTDUvVTNO0PS9XFmo9JwKCCmOFcgrryDSwSEWOKd5i6Ap6XxErkKfcRC78Q8viWTHf7eWph8fF1v7AJxzLmO/FzLE0kS4NLwN1CN1cryFFBAhxizQ7hxUqjU+3UMqYblSxelKm7vQnAi73Mi4248JnbX5FBFi4nqVpKEBMOxFpkSs4/vAJ625mBwxgJgAHNZVOisZn0qmMogmGHxrUO3/+/CeffHKRX5544gm0X//zfvIYyHfVVVdxXR2pyHDeIT9CPmgKo/MpA1gcN4d7WkC8aWKPPBajcOPUtBLqTHS0pjrb4h1t6c42NdIjVFMqgy7lZiRuvjDyewdeJF7hT8xUGRjDf4XYSu5g/FTHLrQBAonbTlRrTZ2QAtHK5XL1lVjErIluejp0VnVF8ZCSjZW0ZiRUSzWcNG64m5c/ohPiqq0YjqI7AFKOpByX3sHDxzfJUfyT4BQ8Jofv5UA0fxqpomu6o6SVns5Md9uswbM6kFXfvHmzDK6fM2fO888/L/+0bdu2G2+8ETX44Q9/eMuWLeAtO6ygvBCOQ35064r8IQP+42EjETHiYcw/03bSsWg60pNoPRw6tDdyZH/Xwb2xo/vjrUeUaKi7rU3cmYhosXA6ow5UMkI5+QrXVVSN+3nKTITT8biTPUXhuZPtG1ZG78upi2EYtm1nX4nFdpxUPC5HR41FVE33GqAMf++JpcKxdDSRicbT4YQiQsFdF/OnR/6YyIRiacOy3cHjMgpTnRy+4ffkc14u59U+vYZHbfKKbKphWUo8mgp1J1sOZVoPDQJhb28vCnD9+vWaph08eDAWi82ePXuISr355pvHMEcb2TtaKJWzRn+sh/Sks+KUAgXVl+zqSHd3JPxPIxZxdDWWSOPuD+wGrDRuLMmIEqo1TLu3eSOlLBS40OH1s+aI5JLQk32Nb4l6ZQf1wlRiuVUk6TF8svQ2si4Xz+gxxZLTME6u6FO1DzorlqeZrmJm45pTOu31vUKlSj0Jw4tr2YSR4zNXnikb2cScJaJZzSjhbqWnY2h6CxTgo48+iq575plnuG5tbT2dJYrRSh4XLov/lZfLAAyD2AZoOfKfaTm6aeMW4jramoLPwddmg8SAOvBLJVMgWcQKNgxgWoTvamtaMhJR4nHb0PN+iLTYdmcYYn45HLFV1Z+OrzYCwlfwYr0/cLmszOGb9RCUjqGNEY2JwYjLh8brSeox1XHzJbdQFqEVela3c4Vyhb92pwzsUn7kT+NuGH7lti0vPLF4yZx7H5x3/5x599z/7KMLtjy33cjOlJkbsYbheoYpWL2J2dFDhw6BzwsvvPD0QdhIoYl1YRbeeGqAHWo1ONnGvWfX0O1M0gp3GOFOfB6kgggbtW0xtRUWyy1W/9RW+QwH4aBFVz8WXkxK66Pm2PQKJcXIYnBqZla1XDCpCu0n1ifAoVcQ0YbcYMjlCtMdd1jgodbw4ZULn3zogZ23XDr/2qv23HzRC/ffcnjFggNHOmcg9ZoAYTKZ3Ldv349+9KOpAaE/Qy1zHKjY0eODsUygUDCaBaE2AMIuAULLrPhpCwChHu62AxAOK8VS//GDYvFJJLod2fBDuUkQqmYW4xOoAkIR3+SbpoAwVyyn9YE1w9MG4YaHBQgXChBe/KIA4fz9Rzpe3iAcxxLFaQnXSi9mpKtrImkHY+zl0Ydjr92VfRWPMSlXq8QOJssSNTRljvroFeZoNJKJxx3DGGyOJpORsK0J5VzjEC7y+YLtZHXDFnGSdZbzGQJCGVHum6O6NEex1XO5gpCkhZPn8qEh9SzmaCqlOwASKzauOqGUmTaymiMWk4Cl7uTSunO65miutH3Li+sXL33kntlz7587954HNi5asHXTDtOdUnMUA9vM5tOmq9o5Jz9qvH8TIARgjuNce+21UwPC/omQckVoIbGVXs3L3BOjLAf7G/asnKHkDRmoIYRxb5UaeptdPqr6i4f+HMygmQa53CLnx+trFJvmdFWLR5XudiMVF9NOA0ryzNnALYlWGx2ZLkTYILpWqEu1Ah/qplWq9IETwIYtGlcswy3UHGz+K1LPBEzM9CX1bMrMpww3ZeUTejY3tWG+5UpfxnBjGfNYd6IjqtBZyz3t8wm3bt2KGhxfFMVpQtExdRmBMUbyHLFXfSBQwxUwmDrWFymPDVWLhrIRMambN7VamPKZGUXhRz/YMm6gYJzcdDbgJoh9uZqdk94gn2a28Mojgufb3qGU3h5JtUXSYgnU8k73fMIJnB1tbkSrfj5CUxFb6XV9DE2I4Zo3ZBCX2dtgsEz1RP8q/Rg39PbJf8Nv40dkBJrQNVQ9HlW720xfE9Yi385MEIpIUbGrWxFB7qqSHbyTRiZ6sr1CxhCaEBXh5qciP5qdKyt2vneqNtWgFTCqo2jCHjRhJm04pps/8TIFobQDxX40Jzt2Wn+RAdZxs062QQ8Qo1K1vbSezZjuiAfX+JOijqEo8UhEz6Sd+v1T/ccwim3iuUIR/8eybFUzbOTFmecTDhksx7Zxm9PJVDKlZFIpR9eyzslZloHkv6CiqAlnqTQFuGgLpzeve3LHqhXP7zxYmCq7NF+qaE4+rjm4hQidCfAJDx06tGjRoilbopgK0egVM/5cnOoH0YxgUeTyGMB6Iiq2C8fC+TrLCqS5J8OCzdG8zjMQhJjitexByXii34/QT/oR4zsa7XRKrtS79alne9bMja1fsHv5o+3hzIyiWBMgTKVSBw4cGHuJovSyAiGOsmL0uyWI5JFAmBOxJ4mIOGM9FsrXJYaDpbzaypgVgHAQCGuxRclYrJaTt5agfupB6BZ7tz75dGTtvPgTC/ctX9TSk3y5glCWsZcoHE9sjc/mS71+plfLK+RLM5cFxfyV6eKTpOvC2IZaVqalp9Pxnh49nbJNs+aR9vmWatY/hlFVxTLGiLbGmQZCHAHTdjKpdFZTHcO08A4MjA0RYF6bo24EhAwHzOMW+hPY8mw2X9SdPNYdRmyzSSuo43BbZNuqFS+tWLx1y4vZwiRmMxIuTK5keSJ0frJAOIZPCAKjaV01xcJrTLXxtTDzYPHcFGZwatqB6RP798cYVGgKOUU+ArFY0jdk+sHx8nomI8xUkXQ8f4aDsJY0xFEzumHLdRx+hHT17tApQQi1YR7FZx5kOk8Cv5Rmt4TTx3tSCdXGk292HZ+7U4YbTpn5yXQI/abmMn7jke/lCc/AffDgwYULF47hE2pWNp6G+GIPRFtUrVl6qJlXKtt5Xq7/1ARTnJow3Cg9o0CIC50zBw6INkc9jOSUIDTdgmr275tRLQ9WhqGTqt0WTrdHUrGMqZjZ4ozM7SubWssSkGtM5TYBwnQ6fejQoTF8QivroQl1y4OCHQk9pTu6b+xlR5mAZowqTQo0kTNvgNPlBovpLWJ6RldBYK7u/KAzFoQihtunhp9IclCSpfqBOyUIvUL/On7GcMxsXm4xRRO2htItITShlbHc0TZg9IkoxKrPG2Mxh50v4yhOOAVkUzEAxdKLkW0wd9lQEB49enTZsmWRSKS1tXXNmjWqqjblExq2m7G8rqQRzVhdST2pi1iVEYmBBYhRgeLW7FylMTDh2duGISK4/f1Qjoi5tqY923lORHbb2aw3IlucaT6hSL8r4ifd+rNQ8gWR94Cx649ca8AnhG1gDxAoqYp/pWdzcc2JqY7miHiLkSdg8qW04XYm9O6kjkYa0Q+C2fYd6di6dv3mJ55uC6Um3iuu9GI8q3bOa9gLGwTCcrkM8DA777zzznnz5u3evXvx4sU1gNm2bZrmT37yk+Hh87XI+lKxiD8tTh0wMYsdzfZGCzH2TWdbSDvdhtanDEkWJ/VoasFQELTpRNLMpIqmgkNm+SEO01vGiOl+BUfWj0GNenrgE1q6xsCJvM+ayAQFCHt7e0+HqqNxCPozkTGP9yRaQsmkauFYVoYxRyRj7VixNLp2XmjN3M3rn7RypUkhQjM3zxpsH1ZTqdSKFSvWrl3LJ9xTO7N+27ZtN91004033njWWWdt3bp1tMh6VFMio4f8EOmIjJsepUSSSqT/tkw8o40d9czfDMtOx0QQt5mMhjo7kqEecyA2v4HA+RHC4ZuPkh8rXHq06PtaZL38xfMm6JUTEd9dX7yJI8eQCizbScViph+An4lGdMMyDN1xnGbr6Q+09y/qqe35VOXTtJ1QPNMZTh5o6T7Q0tMVSfbEMtbgF+U8r6Un8eKShT2rHula8dCmZcuiaYNnc/3Fc8fT36Ej646UhKG+qfVk59/QHDO33377unXrenp6gN+WLVtWr149RHWOEVkvDiIXSXeFb6r4h2DlRl+fKJR7M/48ajhtqU6ukXkkPzGASCRuWY5tWuL8OlNv5BxGcYapMGF6h/jQOKsTPnNbFVZDKZcvSDsKaSUj68VZXxiubn54S6alFKBJvuDvxRPHcmT9JJmF4qRsXnG9nGuIfb8yGy/DWJ2gbJd0wMmVTLdo54qGW4gqTlSxWiOZtoiCS8aPQ1tSrOw+Flr42JqdSxe9tPLxXftbYDv+dcXV/Ue7Yoo9vjlhKOe4Of+Yt97azLkIWc6Xaz5KUTS1aLoFR9wlyO4WxBqe5RUHgbBUKu3cuROl19LSglu4cePG4Sm7G9m2hg2AQVw6FauVK30pw40rlljJwIs91f0ytXahKM6soxfAr9SAuyVDHPJ+ku/aru5SpV9SjLG3fXwIxDmE28QZkaYJpWV6C3H0haHryXiqu9NIJURLpvVIRoEKnyamTjGyaiYd6lIiPeJ016w34Tis+pj386M3uk7Y0GSsH3zYk9CPdCcPd6eO9aSiGTOq2Fau6BXKw/emFSt927btOrhi4f4VCxcvWX8srMiVvCPtkRdWPH5s5fwtK1eFUkZzc1HlCqPJmKa6OxhfRll2U7XEfAd+mWbnRIbrokgg0C2amoikDbg9qWeTmn08JJrdxOzogQMHFixYcMEFF5wShI2OTbWq+NkmdUvgwclNwubvgTS1xcER+ohPZSDhrHIawaPDJ28dQz95bnOpnM/nKr29MheLFg05kQ6x/c3UxpcrYIJm8MQBDzJ1r6Om1WTcUdJWuNMId4jkdKbRO8nbWSYKhLqTE/PwUQUPcE9LpD2ciqR0fhltRiRlei+sWh5fvyD2xMI9q5dEfb1XqZ7YtmlHaM28yPpFrSvn7d53rDlx5ubypqrFI1lGNhoSK8ZZF6WXrktnLGaVnDwNa49m2iOp7riaUK3upIb6aQunOiLNgDCTyRw5cuTHP/7x6DonXygURxt4/lX9f/JCajbkhCLmc11EWq4wKcrBFQAQ0znIfm8gOayI4PbfK94uZo/E5HLVn2KuzTWPA5kiF7hlFXzM25qGMM7lhSaUh/Lo8YjR02YkYp6h1fZwNVLnBK7E9Pppd7NONu8fdWSpiprOZNW0FurQQjKNgNWgrSjJJUk3eSAcMi71P2LaZQwHS/JYd2JfW6ylJxlNmzB9odQ72rLE5iee6l49t2fNvK1r1ij+RkXqeWHXoaMr5kXXLXhp2aO7jvYMfZHk2FHGBQseF4kx1Xva9XhYGEG5vMwpLvZCmtmMmUU0i13KhtMZU473JMMpPa7aPSkjqdqID5o9YdvWMHCj1K6Yw/d/icQhphdKmd1JoytphNMMvicXWzGOkWeK5Y62kjER2qkv67iOaeID1w+lUIaWqzk5HFcEFf5Ap1jbzFr+tjthrFruODxGLGR0r5JR0qk0Ckc3zF4RVFzl7SZmSyrDT41nFharMv501+mfGydOcRBpkcVpfvliBRw6lombimPoWHYmo4DHrO2UGvNXGThIhwMmidbU8DUIQlgZ3oipYlww3vAapDDiXWnD7UroMFJ3Uo9kLFgLtcYnozZ2VFRPQtv67LZtG7e0hdK1BjPiL+zcv2b5ugVzFm9c++TeQ21lf6+P5+UYrGQipSvCm60MWnQp2obpmJY4GZvbDDGyjC+jLPNZ54oVsWBoeZBamkiIjKTugD0a3O2joCdlhjMWF02AUCwDGsY111wzgmUsQqfcZEZPZgzFGrRiJpKcm27K3+5wsCN+pDPeHknjial+ipGanpwCG2y0H4VA1futmogvpXAMDNvVhC3h9jYffwaDWrpvlNpaJhGvpaKRArXxzorIrP6jZ/uPuTstDypf8Ppz9oh9BfUtqfoNqzZzdLGRzeHwdMQUBDlOjjhDomEx0SAI/XER2oNXhJO6zASF7BZBemmDwcK6w5BRBxSa7MippWTfieGr9PneExs3bu9aMz+2bv6Lyxd3xlRxqox/6IURasfOzOknN2PIcSnWjYsc2SFvr1ZH+AVRCBw03wtDeI2cBn+MIvP/jhhZ7+s6AcKUYogtc3XS1J8szaJ5wd7B9thhCULN4f4ZkrRcmsRtkQzWOZISS70nqZu2Z/ie6jgOuJMx/rB72dZVQFgcZ8SqzJ7UvwvstI/aE7nnLFmb0HinSzRHEI2hxBMLJTXVdL3CBINQuHyG70eFU90JTc4aYJtwASZFuHo4LUBoeafv0bul3u0bno6smx9dv/DgigVHO6JiRh07MxkTbnykW0zs2fbA/GX/8YPizBJTbyoTB3ZZxjzpLkqiTcwG7j4/W0E0qcVSmkhsPthzMFyx+7Y1kjnakzrSnWr3820Mnz4WSSwLZX73aV2pURaEZ3OlEbsqZ4fdXMGfbe9tmBBVrIh8sT/uAULgH3YltKPdqYhvJGAzp3QbwYGRI1pSJ2sc0bwSn64w5EojukMi1b/j4ARmNSUSiZkO/F8cEo7MPTxOM/r81Og5vxfApFQWrwO3GKKAWZyo4+8Ol7rrpFVSLHv9bSgOl2V+DWIFotLX57+o6OYLiBXcPxGZlRG7q2WaHPEiUUPfgMTsFSfV0ZJhVOUe7pRT0zwL98cyZldcO+rPSYYzWGbFBqVqgyAcmFHUjnT7zp6/H5pXgDoEJe/tjKsM3GibIhU7v7s92ZEQezl60vauttTujvTeTizZ4gDI80fao3Sh19djew93oAMPrViwacNGVJSIkjFNK5NOdndp8ahjaJCx6K/riHFhfA3VVjOZjJavW9cp+IthY4tLNLzMZIXNKPeKTVgUBR6/ZmVNZwSx1OdP0QrezZd8jJXyxaEHSnIPwtWftE23RZXUwMoBJPY31DvIjyHuitipKOb9E8meTjOdxDBoZAubQIjkbOMkZxfKoKuE9wzqEiL+w8FqB40402lDbOTvd0WEAaYy/B098Vg4Ig5adEY+kU+sAuUKiqImI+FYZ7saizq6VpsWEvmFHRdoCVlrWJbBYKcYbD0REysZmMKGmFx1LKsopnaKPtrrDMtc3tFVJRZN9XTBB/h4Q2QBN2T9ZRLTME3Dop2pUI8SDZtKJpbIaBkBRUE6dL2/fOcfKy22tkBDI52i2nhPT6q7S1JVHgYhTrkTRNNE8gBDpwYgDR7sXAmiMXAZ3zJsZJKm8YkZup/1eSabPymFKzVhnS+NFiiXsnKz1+16YPmW+1bumPPM4ftXPX/p/U+ce9Pim+c/Pe/pfVauZGQLm554+vCKBS8sf3z/se6qP02KFXq4PaoPJLzxhWO/SEI4IiKzev/iE61hfDNpRUTPiACaXD/ZdU3eMMZScNWXL+7Akah8NLdEMW/evDGWKIrFQqk0zmUGyC2Fa1tYmBloTuxVmRpdH1jDGKI869Mr6SK9Uj8tTuHZ+mdr1Q7urhda8owuOBOlEUoasYwFHOQahmyJsFrD6WPd8ba2LpH4UE1T1WjkRmnkLT0d6jZ7WsVJerriTzz2K/D+nFS+vWorGROzJ4zv0ePqSiIa9QP2BwXC1sMbCe35aYjtcIeVTniDs1r5x0KauCt4pJaS1pJxO5Oyw516uIOnUrGYOALe1jw9k/IjbuV5BIIsXj5vano8QrWRliN2uN2IR+Shf+KvAxHMyWjU85PHFE3Vy7rlAaJJ+6rQ/PmEk1G2H42BwEXrt89bu/2SXzxx/4ot379j+YU3zb9u9tr7V2w92KMea48cXoHxuQgTdOuGjflTnTJMc8Xxe5Y8uFtBKwqlpw+cy20alT5xGufADU2clAgYmwChoijHjh0bY4litHXCEYXjkB9LvSI/HGYGDjeMngaEYuamqvlrQeLkumHRGEAu58/7mz1tZjLqn2xRqAmbMRw2RwBAbPa3B892yDkkmQIslDYFCC1XFdOkfppaO4dibI9kjnQl2jp6EqFwVk07hlHLflgd/GpxcLmppyPdameLOEkPEDpOdcC0sw1DrtQpqZSlZqxUwugREwDwejKRkpHpQu4Whxix/cfc+SDsNkLtAmCGXh/Xww2WZcsaqFmcH4b5H+rQw0IQUDnP4haKE1ETKX8FVRXJsyuVfL7o+bPttCTa1mL0tFnJmNDJjGqlD00uc/umEkmelRM84qRxAUIx06D7Mw2NRLJOAQgPdGfuXbZl4bptc9Zsv+yhjQ+s3Hbx3au+c8O8Gx9Z/4sV2zpTdlc089KyR6Pr5nesmrt10/PlUxnSMttYwVTkuGCCCi0tPHaRWMw3JWo3CN3YyEaumks1ucl/5UQ2TFw/hS0y/HgFEXaVHRQ/4RZK6JzuVP8ahtzxAGY024updndST5uuW9c3ufaAfQRbKBk1klTT/gy1SPNseWBmtF0pSHakmsgpPGzKBDtZMT2aIa1T2EvMJmcsMBkWcSHiuithRFJ6IiU0m8zp1CcmoPMJMQFt4nOIzvpoQY+lE8lYNK4puPVOvc4Up3FYltBpeF/+HLeYCldFpnAcQ8e2NUVJJdN27RVigSGHnSPS6ZbKWdtRFXFKh5LOYBTZllMsl/tpkvU0VUslAadYC/H8RQ6+qhnFsS0qF4sTfj3iRZYt2uCLbWFCu56clKdOIKpkRBsyAshqKpXGA+J+UUPWFac4OlkZ5SwmS0whtvjnk7132kGILNi4r/v+NS9dOee56xZu/cnc525avOPahVseXPvS1sMRYXv3VncfaNn2xIatz21P6k5jaKnUxsUSixMlT5xmadqWLTmt7Pvw/mJYrqk5xyZAmM/ndV0fcYliNBBqdk5GZ6LHalPYbr4/1bk4dWBwwkm5ACpXSOt/9BfW/XoMZ4jUF/Fj1RMZUwQxYj1GM1YkbYpg0P5E69VmV8D76lafpR8YSmrHexLdCTWjO6ZXkKu38l9toUlMpsdVbgsl9dqsl6+uvZIfVz6iqzx4b0D/GrR0e0zd6J8E921m1JRvEPqBi64nby5WerEfpWUod8n5mf+ltD6ZaHCg8oE9Er7Or7VhyGxK7WaoapoWSg+ViyJF7Vu6LhWdrGHQRFG5N6k5kuyI17EPSJ6yHDNP7Q/9YtmWR9dvv2/5lid2d6HP84PX8d1ib6mZbbxiXAzT34whxgUNMSSotZ62kwLCMZYoRgRhn8BGLcoYCV8cYNlaeiURN93IJo+TZ5qPlCzDX3sRNxi2BwLDabHKJxYY/M0KpzOKlltQjWxnXGmPpDqiijpKlgAzm5eT6R2RVFdM1SzX8fo7O754QpHiUe+fBBc53cq9Of9wG7n5rjZXLize2hqGrmEYu44j3ZL6c97Hu8mhmjUNT8sY4U68RCeTFPPyo2g5LAg5RvJUibHJPmUgXPNi25zVWxeu287n8u3HTr9CMS7+tsR+R7o4MelSZ41uBFdLpdLws/WayjuK2YkSU/r3Z/cNSM0KX/30Myfnl3FPQVdNvIqJqWIZwxKVgk2LsQf8qEfxE4TS+WJpkCvt72ASk6g9/r4c7kxpTlxzZA21V/fvJC6WGsQmTRVxHinjSHcSFUez60UAreUr9WODxRSrJ6Ef7RYr19GMbQ4kmRwbhGL9QPSlXB3ugThZnDd/jtQWq//ZnOYnsxGO4sBsTW9VZv5XuTPrb+kwrKyhZPIiS7JIQCyy4xRHXkcB2J6f+2WMSTxUblZTM5FwJtTliGlYmwdo8PC0rqBO8fcAJjW7RvbaP2Gh9lWnHoTHo9rPV+yYvXLLz5dvP9id8f2jakfSPBLRj0a0rpQ1mrDIl3s7YioeUM1XxNT0Awaw9vvHxT9qoTopIEwkEo8//jh888wzzyxZsmT4+YS33HLL6LOjxeGHhOaKYvZ/yMqJPIqgZhtI74tR1ByxxoingYaM+WtB+If8DlG8gqhHUAHuNEWi+yETUG6xHPHnyoFfd0r4J5imx0LpUErHWJUeZn9Mjdg/7TZIP9lUP1imVKybdejzN74mVLGm0p3QeVfScE2vGNOyMUVM7Yrt83WhTCNyueM4OdmXYUmiqv7eKNxXbE5xKhvmKY6vbg5J7y8EQV6sFhb9Q+SpDc9NN8XuM+jjGjq/OIMzTZzw4w8kwWtLVaO1EMhh1uKH5gpi3TJri1eMGEGGRIBKoYwVVQTZj4cVPlsimeOhTFy1NPvkBqkJDGU6ZelO21sOR9oTpi8pTmzY3XnX0q3n37X2+3etvGfp1o37e4a3o1Dp27Z9954Vj720YvHOvcf65MFvpuF33ITOclwmcKvJUBC2tLTcfPPNwOmee+5ZsWJFMtmfoXH//v3z5s2bO3fuOeecs2/fPm7IDSu2bQuuGlzyef7xMdKP/q+I23BSiadU/oUTCrI8o1uRhHK8K364LXSkIxpNKvzM3YV8HjdYS8TsVNxOxTLJRFbMkPoV5nJgM5JUE2k1mREuXFc03dKTONQWOtwRiSaUBJo06ykJ8SCPq4kYLnSugSKbWsjn84O7oZl2NKm2hRI08lB7hEbGMzoeoGyD6AvfLUccC3UyZnRQMa1BfXGG3SZfqRumLm9Lx9R02huhhaKoqmYko9xmpWKqojhuTkkkZGd5i2md7Kzn5aIpTRIcOtPKMbt/smi6oSei/Q1ODW0JxFENO5ZSWroTh9vDOw50HGjtef5gB0PQ2pOAVsrAiwzD8DwvNyWlWChUMDX4L5/Hovn5sq23LXz6uzcu/N5P59+xcMN9K7YnVCs/uL+toeQOP+q3e+XDm5cvjWRMVVEtn7ZmIgqdh7LCaZcRzFHABpxA3aFDh2qR9aqqohWB6IUXXsg10r0yrEjKVposGDcidY8m/sUV08sXLTeXVMzOaOZoV6wtnOJatVzu5J1i65WSzunpnJY2RK6Ecq0eZHZCEZUout0ZUyMpvSumUEOrrAEpXS7rqsKzeR31mhZ7TSrjL9lcIaGYPXGVV7T0JHkFhiuGZVLtb0NcaPCi57oIrPoHay328gWaQUdEX1S1WCqP+CLkjO3f5qkpQ9fLI99Vseyso6S4zVVSlmmJg4rprF85b+Fd9TendDutmjSSLphubqTBrPTWfcriuJ7tv8JviTG8Jbabp0LIfqwrtutY6Ein+DzaGeuOq0nFsr28fBHcVRKhoFNdVNt7YPULdzy28bs3P3r+TQvvXbxx9rqXMJJO9PWKmE9xJokIMkGZb1mxLLJ2Xs+qOZvXrBOZTi3bVUXHobBtZ+tJVJ6Iho0AwoULF5qmuWzZstWrV69fv/50fMIGi9igZIpDIeXeFEwsI5tPaE5bTMO0053+lQwsAbE5LqWrGSWVUjBycAV7By1yiLlyUU+uZLn5pOa0x7SQ2GtviDyoqpnJKEomrWSUGBB28o2nZx3RVMPjTelZXhFGWNqerE1so7U8TDK8U3ph2A4tUWxPbCvRs1FVrH9KT7gq976YhmOaY7j4VX/lAHNIrAWPnqlAzKM4Ip0Gtqs0/qlTrMSYRr2t668PFXHbelIGBj+UUa2c3Ol/0h3NFaEhtj1NrQ9KEIGI4hBC0ZIRw6l51o8VyLbHNWqGMnx2xPRwWlADz1lucJn6DNy1sq8zPXv9rp/M23z13Gevmbfppsd3PLmnM6a52KWPPnfoxZZEJGNv37Fn4aKVaxYt2frE02j1E/2nazh0HArX81uuUIYhGeXT3NY7AgjRZmKqwzS7u7vrJxX4HR3Y1BJF46WvrzrEOan09ueuq83ay5V0zRJrd7GMJbdoDJmuHJoTsU8s96d0JxJLRXt6zExKUzJ4if1rGKZ3muG88nWVwQn2yuJkPJGxT7ddNHksY2IIHetJ7GuPHetOhBKD1jDqGzz2i07ZVOlO1981vHL/+A2xloDz3JnQ/Zg3sYBU2xJo54r9QXr+ckvaGBQjW22gJZW+/oGT/8q9fYgq1ezPAiimcF13ukAo/OFCxStW9nUrdy7ZtmDtttkrt1y1YMv9y7fMW7MVd3H+wlXda+b1rF2wYcWaHsWtly+Vvr4hqzIyL2N/SOppzLg2t0Rx0003Tf35hLU+90+C215XQhcnS9qu7k8tjM2cEAgyRUBhJKwmE2YmHUlqMkOxiHrunfh0LzB02hCMbjne8e5EDFWcUEHj7uPh9rBYw8A2Hu2UrMku9TuQOmJqLa1BbdYXoeaHq4sYcKDIdW25ZXxFhNHUhZnnS73TC0JZXmyJy31t89duv+gX6x9ZtfXR9Tt+vmzz47Pnxp9cGF2/cN/Kxd1JfYwa3EJJijPj9JIz5IqVl8fRaCcG0qoq/toGtqVUNQnVTpluZcyQP/9E2Gw4ng53h9CEpqYlNFusKQsBlpuMaTqaqvgZYAHbsR6xthFNm8e6k4e7Ekf9wOohR19wf6FUgTvzAwn5gbHc3+uvqfQO34NSEuvOPFJBNo3YA26gzr5hOtbfEC9PBRRkVP0FJEzlbL5cELX5R3mpdm25BXcAr0k0ryxeJ01u6s2PeXbAkLUuGSwmM8P3VqszAYSYoPetfvGhlVseWLH1jpW77luxbe6abTc9uuXuOWuPrlrYumr+5g3P4tSMPW0uVtrMbEqDG105FvlyrwiyaGbilJtfNiCUitvPTiVCRcRio+lhl8qokDHyJlX9YCXdySO0sq5XKoujmC1X1DN5AY200MwWetJmVzTdk9TgcsXO0QbFEi5EPQJFbI7tr8eE0vhpcp2G0RXnGdhi8x0XIhtVnToSsVd6tjOutYTTiCFDZG0dIqTFDaIGa4SUxDzOI3LtDus0lBZ7jFojir+cIJZbQikzrvH2HM0Op00U5vFwmn/tMTUtkjXn/TR5kN1tMF1VRbyogLtY8nE7jT5hfenJ2Bv2dO1sTbiFysHuDFC8YcFzdy/desu8pzbtPNLINhIRdWB5Pf5Gy2OhNDTkk6Hk2UozseBNgHDfvn1z5sw5//zzpwuEQ/epuAXNt6yE9zXzjrsAaWjCREpVdHuMwFNUEyqiJ6mLnD/RDHhri6m+1e1GMya/S8tZeFM+41KP4u8cag2LgNqoH9Ven1lM3iB3VCujh9vVbEVgj22P8bmvNYrL2h5JK/5BcdL0EO2JpA93xg92xHgdX9tjGp/+1vYsYmUclJkhIBwiJhY+sx8XEQP1/pXbDobUBh8UmcLNbFdck+4Gnz1+/HE2V5oUEGqa1tbWdsUVV8wcECp+EI06I8+cAYTAI55SxYoFPsMoWtf1QYjJ2hpKAkLUV1tMkyCMZawekWhDuq8nExGgThXDaQun20Ji1kcYAnXTvFUfPHKrbeZUJ1GX/SOdRdovQNgWPdYl8h6IU6ztXK+fCy+tOe0+CA91iOUi4UnGB0BojJPsMw2EfX7OiwXP7J+zauuiddt+vmzLoR6lcRAqfuRxa1hkfGsNpTB8MqeSfeMHoSxNRVFMakGKi3NC/ADctOF6hdKMAiFgwOgNJ5SEHxJSb6mKJQdx9Hd/BIbu5HDDWiIKkIsmtXhaLHKKyYwstqvYjgcCHT86xLdO7bRqRFJad1Jvj6rhtIU9mdJtw7RcL9efcdhf8kn7xw/3DV7C4RdM0PpZBL76Cy0q6GqNKqGUSFAiwwIHcg6IF6GfOxMaf7LcomZ5MjC8NK4sxjMHhDjUR9ojO7bvOtTSfaBbfWj9rvtXPb/6hVbpL2CxQ66E7sgwoHqiYYhifJm+ZyGGT7EYPgjIJ0PJL73VyTFHPc9TFOXqq6+eISCUjI7jlNLkTMNMPAjRzrqF0qApfsd2cuJgBtUxNMnEVV+g4EWIIzW1TNHPROgMpCQWf+qrykS30YQS7g6piYSjqY5YgO9NaE5CMUM9kUQ44oqQxWztVM3yYHcw59fgH/6RHZLvuCLe3lce+Dc4xrLPb0D/n6RJzN9LQxZDXp4gPNYZ37n8se7V8/YsX7j/SGe2UMnYeTnfJHKH6tlI2jjWneyM+QlZvJMR94hFOafl7/vzKTPwr1xpeqahCRBu3759GpcoRpt0Uaz+QA2MUnPicmlPVBmygdvPDmyUaoHzg9O0OrZdMkeOgZDxHJFYKhUJp2IxeYNMRxBPa8lIOB6OiOB90xgNG7VD/zT/0L9pzLE1c0D4/M6DnavnhdcvCq+Zt3XzC4NXDsoQCgcPbxmDHNKpdv+IFEqVzKDcvqe7yvVymh2tAY9u1zKOiEOgjP459/qdHyPOWPKg/DcBlkylr5E0W0NAKMMjRHJuU9VV1RMb80/2xfXyrv+nrC7SB5X9BsunTK+YUJ1oUpWa0BV5h0oydiGpWEITRqJoUd200VH+JHlVatH+LouJ5SKWkr9iflKoj8P0oLbK6c0qzxwQtvQkX1j+eNfqebuWLTpwrLvf5XbyScMLZZyWiBbNmL4mVJOagy/g07aP/+KqiOkZO2b1FQtCRt/Iihn8WpotkYMoV8QUHTvlnnRvOnF7IgoERS2cDuksP2GWPMy5KRBKZei6uURai6QMHK0Of96/fyNb9YSXz4v02IWSLZY3nbTvGWp2Thy6gMeoOEgcR9zQ/14gAUEyyGndiiQ1PLpj4UzUT01giEZmqd9fflDoe0/SiKr2EPem8eKvpuQk8XPFyisAhLDTsa7488/vPdgSKvlu3PPHY/eueOGS+zf88L71dy3d/uTurpTpyV1+UO94ONMWFfQMp0UeMMR+uTIBHWluieKRRx6Z3iWKvJ8Gr98SaDhzqTz0IqOLGcXW8MCM4nhPF/U3xPS3gYuxh2HEeELcPxqQVO1WkdUqlRqWhRVVkx7YHiQ3ecqUU2MsXtn9c+Viaw6fKbErTUvpDtaUTPdK3wGwchpZOrE0MgNHoJ+OQTsDlyhkMdzig2t23vX4pu/d8tgFNy28+7GND63baXql/thuP4n9vlZx6IU4snvwytAUgVDX9Y6OjiuvvHIaQZgrVsYBwj7fbEuLtbVU22mDsHjaIJQ7uRKqNQBC2+9LX73lXANhd1LvB6EwfkbdHiXyFZio+hoIHVRfWrPb6kAIBcZYLGlgOr40kBIhe1pgnqkg1LPF2WtevPvxTeffuviCmwUIZ6/dqWcLMnNCR1SAcG9r1Gchf3m2VJkUEEKdUCgkTwt98cUX5Wbu+jK9SxSwoD7YHG10ardQErPt/iRyUrNFhuLx8hAP+uaoaIN1KudqtMh6y18YaIsqchvK8BOpbJHext9b55+9nPG7PIbJXfEXbPBhjofTEeS05UlCYY62RDIt4Qx956t7Ggs5MvGu7PjpTETPWBAystuPRu9dseOi+zZc8ot1967cwVc5UyoyWaVq5mgGj8bfqDQ5kfW7d+++9tprPc+bO3fuk08+OfyQ0GYj6yejyFn7cfBQqbcP07/cW52INlTLDbRhjMj6sr+KMEZfKv4N/TZwA12WSx0lv85qXQ3+P/pePf1tev6sWN9p0m8qI+vHURQ7nzBy/Ms4g0LAynWrOBPCQqOCECDNmTMHZbh06VIQVQvqlQ7hww8/fPbZZ+/du3e0yHpKLih1xbIscUpzUOrKVEbWnzpzQi5XGBwnz9diQfwrTGj4fHOR9SAtnU4Dv2PHji1evLjfZzWM7u7uzs7Oiy66COcQc2J4gLCssRKU+rj4YZH1fhC3OLZW5goY8id+LohESpURcxf031AcdIP8nwr5dcSnZlpBUpfL5ZnQkr6+3nyxlDJcN1/kerqaMQIId+3aBcZQdwsWLKjlmJk564QvrzLcJ8yVKnJPmTFsmaRU6VX8yR7NyY1oOpYrfYrvlWm2V587VC7bUG2+VJn5NJk5PqHpFRdvPnLfyufnP3MgZU7b2clNzI4i1FOp1IzatvayAyGAUcz+EIe0MXSfnTz/uf/gjZFWIA3/1GV5Q23rmVso11YO/OjSAISNlucOhB5Yvnnhum2zV2xe/ULrywCE27dvv/nmm7/zne8EIBw3COVxF7VExkMyR9QSltdjbDSU1mLzxbnCdcs2fTMehTMHhBt2d81eKeLrH1m1Zdm2Yy8DEAbm6ISYo/KwNxCo2t4QwOSLFT+cV6zmjbj8iLUpb8j4SZBPrhzYHnqVat18aebTZOaAMKG7Dz2x+74VW+9fs7PDz00agPCMAOEJf7nfz15RHXH1BSiOsZYw4g0ik7fIPdH7sqDJjFontHKl1rihOtMZj9oECPfu3fvQQw/NnMj6ly8Iz/AyYxfrXwYglEkQp3fbWgDCAIRnNAhlmTmR9QEIAxCecSCEdslk8qqrrgpAGIAwAOH0gHD79u233HJLsEQRgDAA4TSbo8HsaADCAIQBCAMQBiA8U0G4Z8+e2bNnj7FEMWWhTC+jks/nA4YbUlzXDYgwThBalhUKhS6++OLUKGXDhg1btmxJNV90XR/HU6qqZjKZqXmKomnaOJ5aunTpoUOHmn0qnU6P73U8xbPjeB1kmZqnKA8//HB3d3ezTzFq43vd+LhLUZQpe13T5uiyZctuHaV89atf/da3vnVrk+Wmm246++yzb22+/M///M9FF13U7FNf+9rXLrnkkmafuu666z7zmc+Mo5HnnHPOpZde2uxTV199NQ+O73VXXXVVs09dccUVX/7yl5t96vLLL//KV74yjkaeddZZ0LPZp5D+X//618fxOrgLHmv2qQsuuOCb3/zmOF736U9/+pZbbmnqkVkTqFWffvrpnTt3juPBMaL1xyirVq06cuTIOIRIW1tbs0/h7t52223jaOSiRYtisVizT2F03HHHHeN43V133WUYRrNPJZPJBQsWNPtUJBJ59NFHx9HIn/3sZ+NwW1paWlasWDFl3LV79+4nn3xyHA/efPPNkz4xM0ZZu3bt1q1bm30Kl6mjo2Mcr0skEjBrs0/F43Hbtpt9qlwud3Z2jqORc+bMGceDeNfje11XVxfyYhyzRyBqHK5dNBodRyPRS+MYAh5h7MbxOrhrHG65tCrH8br29vZmk3dMJAilJxP42UPUhed5AR3qC/IFoRbQYVJAGJSgBGWaQYh9OA4z45VaMArC4bDMIYTZNpPzi01NwU7GFYQOWAfSZsZbzmazZzJNsJJGzjEzvnLkyJEHH3wQFyjAIQVuu++++5YvX44bs3DhwkceeWT79u1nMkGSyeQtt9yCVNq2bdvDDz+8dOnSPXv2cAHDDM9te+aY5TfffLOqqhMGwjVr1sBwTz311PHjxwMQIuBvv/32VatW7dq1a/HixcVi8aGHHjqTCQIFHnvsMdhu/vz5vb290OTee+81TXP16tXjm4J6BRTXdZFB6XR6IkEI/M5kmtYXzIHW1taDBw/efffdjz76aCqVgvnOcJqsW7euo6MDOiiKgnWA3RQKhR5//PHxTbG+MgrCaDyL9aMV1CBGFyAMdq5JTQh9gR8i6emnn4Yy41uGeSWVl156CYZDUs+ePXvr1q0gELKsX7/+TN7WBx0Mw5jIiZlyuRxMP9SKSNQ7II+Cfe0n/LOxhlAjkNeSJsESRVCCMs0lAGFQghKAcHQnc4ZYcbZtK4oyE1qC+xSLxUY75mmKi6qqM2Q5CrN2fDvaJqPg9za7R2rmgnDPnj2O48yElsD3M2TdpVKp7Ny5c4bs+WppaZkhE5vZbHbXrl0zhG8PHDiAeJoYEILm+uBLrsexB9IwjOFHyjRY9u3bJ7dTwHmmadbcer5aljXGlBrieXgw++lEcyNlW1tba3SQEYk1AZHP58emDC2fqFhy+rV7924JQohQ6yaVQ+opnhVra2urDxDJ5XIMGdJqeDNoHnQrFApjEIp7xrEdvzYoe/fuPeFPhjE6mC1QQ15M4NwPIz52bdzA0Bw+fFjuoJY9knGJQ3bV8ydurrHEqCD8n//5n7e97W2SanTyH/7hH771rW81a8W9//3vf/DBB8dWMo888shoEkWCcPv27a95zWvWrl0rf7/jjjte97rXjSGDP/e5zw0JVqK3H//4x3t6ek4fhFT+z//8z9T2r//6rz/5yU9guOXLl995551jPA53fuQjHwG3E2KOShDy3h//+MfnnXee/P2aa675+te/PsUivx6EO3bs+Kd/+qcvfOEL733vez//+c8PCadKJBKf/vSn16xZ87Of/Wy02mDWT37yk+NT8jUQQmQG6MMf/vCf/dmfve997/vYxz526NChiervZZdd9uKLL45xww9/+EOagYEgQdjd3f2Wt7zlox/9KKP/b//2b/Xn7QKNCy64oCbHRwXhf//3f7/61a+WoUl8cs0wM/br1q274YYbnnvuOa7hzieeeAIUwYXUGIlE+J37Q6HQtm3b5s6d+xd/8Rf8ApYeeuih22677ejRo1Jg3H333VdffTWoAFF//ud/jom1YcMGOXLr169HfjzzzDM8KEUAF6961au++c1vnvBXQT70oQ/9zu/8Dq+mk9dddx1VSc+Ex++9996FCxf++7//e3t7O0KLl956660ySIchGfcughoI6TLjijjAWaVaGI7XQfQXXngBXS0DlNH86XT66aeffvjhhyELbeNmGBQmw1u45557aDD0OeEHndzkF4nP559/HizRca4hFHTgTsgCf/P7wYMH5eDBB1IBUttb3/pW6AwY/vZv/7ajo2Pz5s3cuWXLFqkTaOdPf/rTZ599lmbv37+fmufMmTOBbnYNhAzo29/+9qVLl/JSxvq//uu/Zs+evWrVKjl8z/qFUUNF0BdGja/33XffL37xCylkqQfegFwf+MAHaCoEhJLUIG0x6LB48WIIgixG7qxYsWK4TVEDIY/TQQjL0Lz00kvoH55iLB599FEMFj5vvPFGfpeSHYLwlfolemmDHD4YCcDMnz8fcvFeaCgVAKyO6Gccad7NN98sTTx+pFV88mqqgiDHjh2TIIRnkNcIIF5Nl9/0pjfB8FBArhszsow4wzcWCL/yla986lOf+sEPfsD1RRddxDVy96mnnvrEJz5B+97xjncgkgHnb/3Wb9F05BzI5K/IIe5fuXIliIV2vBiAXXrppeAelgIJtO9///d/QRQ1I/noD9ICCoIcCVHuAUJIDiAkOYZG8xVxQv9xFP/zP/8TEtOBD37wgxDuu9/97pe//GW0zRe/+MXvfOc7V1xxBRClt7zxG9/4BqKX4edBbp4QEPJ22iN///nPf05fIOgll1wCib7//e9feeWV559//qZNm373d3+XwYOGGBSMAWqTMfvqV7967bXXghMqQdD8x3/8B7ITQp177rkIGu65//77+RMcAI/+6Z/+KXf+5V/+JVqX+qEPvE5tjHdtYgaOZJgR/JgbEB+744EHHqC/GzduhG8YMkYK/MN2NOb3fu/3rr/++gn0J2sgZPj+8R//sdYqLmgqBIdQwIAWPvnkk3QWQtFfDIc/+IM/uP3224EcQlPXdVoIGBg+ZAoAOOuss6AS7AG/hcNhRhOmWrZs2bve9S6AihCkd6OBsKZnIJcUW1AMrQic7rrrLviENrz73e+m2i996UtcICUx8ZAOjALDd9VVV337299Gef7mb/7m5ZdfDtfRJAQ998AAtBDcMogMB2zGQMOE73znO2kVQ0AlmAC0DYOcTkkQMqbymsI9DArGwhvf+Eb6+9nPfnbevHm0EyYfFYS8knYzkIjYz3zmMzT3a1/7GrAGG/z+d3/3d3AD3Ia25WYah+bkk6f4ChsBALp6zjnnnPCDlNGKsNSb3/xmuA0ISc8VfCKQJG7pMCKECzgJEDKE9E2CkCGk2gsvvHDJkiW33HILmEcQQJqzzz5b+q7vec97EEI8ArvzCx2DFn/913+NXIDoXPCVoZ0oEMLu8nc6BewlCGEaWsUviBLoAM9Jtw3uRGciWZC1yCxuAK40mCbRZanboQPkooULFiygp2ASatNfOQpYcVzAMag4+IkHa+xOe1A71MMvcAAEoQZAy7PI7EWLFjFSyDiMF8iFKJwkc5T2w201VxAbBJmIfOSNcAjMQ2PoHUjgF0SztJy5gO/RTvCVNN4YetiUPjL0qBokOFwOARlWxg7eRcahYIdPewwBIWSHB3BnuAZ4QJ0LuAuRRKv+5m/+hj8BQnkKNRTmpf/3f/+HSmB0wBKeLYLjhJ+mgBZyQRdQZVTFyDI6qBzww0Aj3WgVoo0xog1wMvTnHuncShDWImypBMiAPQQKYgIOwSCinbR81hieFdyPYEDYf+9732MgIRbWI3VRC+IWXgRRYE+CkF4h+SQI4UuegnCwBUIRJEN9zBXahBbmU7aSPlCDBCo/cj+WBtwG7BF49LMehFCBevgdMvGJDSBfTVXwNDoBXpTuL+NNaxET6JPHH38c0EKOCdSEWH01YwGrCd4CV+he2sBY8naEPQJPCghMBoQRtKbZfCJEuB8lgNSAhpJlYWL6ApxoLdqVxkNnZBZ/heagjn6hLqDDG97wBti6fokCuP7oRz/iAh6CP6gBi4M7eRzCMlJIScYeRuH3SQIhhjH2sLSxKWgwWoW8ppv0C85GAKEHaiC8+OKLuQ1+gMUhILpFzg5wD39FUtML7HwqAQ9UIn0N7HCMeeCBHds4CCGgdMYQc9hf2GhwGkoSDSkNUQYRKjFG/ImWw1pwGoJMglDmm4eS/MidUFIONKSGsF1dXXgiaHWscX4EAnIjnvSP4BmEr7TJsZDhBDgQxkCyIEd4EbcxLkBsVBAi15/wy6xZs8AbPeF5mg4gkUY4ctJjkeqIUUc80DfUN/KGNnEnCo03MQB///d/j2yjS6973evoDOyCQ/iTn/yERzAvufnIkSNICEYIgY19S1shYs2BQVAhNhCHvJRxgmuxTJA99IqBxGxACaD0ASF4A3jYEog9EIutS7MhFiiCiWnP6U/MwBMIcujO6PJGxhtBCx2BEFKD4aRVjMfrX/962o96ZGBQCzQY0iODaTaYQdgDPCwCIMfA8zhEo2sAjJGGBQGhhBZdg8iAELWArgC3kLreKUJjSGnNI9CTGqAkb0EIoqXpPgYtI0VtUGOSQChniYAHeMNOY7jhTn6nJVie+AJoQjqLzYyKBl2IKv6KDoSVqYSu0WV+hD48CAFpNhQGNvwVoSwdS8Zx165d6AAYd2wQ4p/zFADmGqaFSaR9xINoqj/6oz8Cb4yXBCfKhiYhLBivxx57jF7A84hs/oTavOyyy7iQPghjIcUrg0U9gJkegU8MPcaFx8ECAhQU1MzRv/iLv8C0ZoxAI+aSnFPAooEmtIfbWlpaYNdRQUh1jDpgxf5EmwEMuAFqImIhEKwAz/EjLZYzMdzPO+gPN0BT3iQDVeTUGYO0yC/IdXgaEGJaSNVH/dzMNb/QE8aGByET3ZaRZsgeaZKBRqqSlgw+PdYdMhXcInRln3E5aBs10GDeQoX0HJxLuUu1pw9CGoY2g6yMhJxQQeJiVINwBgzUod5BAqOIMYyg4VnIAkGQiNAKMABRRBKtok7Igrcmc5lQIY8jSqEJLIWI5UdoDm0rlQqkw3CFR3Hl6xdguFM69/wVrUIN3EkNEI3hB5m8lJGCwvv375+82VHezlvAGKqjJuygErJYztzAvohamgrbyakjHgdaEmCMI42HttI+4iscAul4UEKI+iEafj7EH57JaggIkd14LnJ/BfpDtgdPDwEBbHgLjYGwUlLAydCKtsEqvBd9i5qSLQHGiE7JeKhK7oT/wdjFfqGd6ANEML1GwaAkgAA34BNKExQBjUqQmdd4VnrjcDJEg7FhAz4ZKfA8cxfra0sU017qQdhIgeIotMnbwzBDFuuHrBMOKXAb1ocUJZNdhoBwegtobzbT0swFIXJohqRIQtM2lSURDTlJGzjkOuEM2baGhhljsxjqrjaNPNkFlTKjQNiszTUUhLgfaF60Kjqa6hhyFDQshRaWWhttyw2oKYzVo0ePyr1L8oJfuK3LL1zwtXY/VXEBK1MJTipfGUJ5P79QQ2RYQeRjo8prbkAX8QgX/Mi7Ojo6qJCvXOAByh/lV+6kAbyaB3lj7Xfu5zZull/l75EGCg/STnkNIOE82kbNUb/wLuqs3ckruAELMzIJBdOUseCz/nWoIzpLryEsF/RLfqUNI35tsNenLNCEBtAYus+nHI7aX2kMwigyJYUhkNzC6GBMSlbkk1+kfcgNjBeDzgW8KtmbC/kJf3JBL+QqH9c8widfYblmKYbyAB28ixoOHz5M5dQguYXaGAiJixrncDEUhJg6GNO4gpjvuIyf+tSncLTwhl/96ldjWpx33nlyeupP//RPqfE973nP1772NSxjvEwMMCTfr//6r2NGY4hzgeeGY4pxj1WJZfKJT3wCL+5b3/oWri01YyuvX7/+N37jN+AqrGdtWMH0r13Tnm9/+9u4T7wL34Bm4ELgyvMVQ/yTn/wkRvk3v/lNmdkFGx23kDYjIHndTTfdhJOwatWqz372s/fccw/t5Da6gLvCDVoDBQdaboOiGYwZ7f/ABz4ACyLwcFowPs8666xkMsmdH//4x3kRt2mTViRZaBKfX/ziF+kpchNf+m1ve9uXv/zlP/mTP8ER5ce3v/3tfH39618P/fES5V/5iheK8TZRLWHg8NOuueYahv4jH/kI/CQbNvUFmuP0Mr54a3/zN3+DHqa/dJyxZrxWr14NWWASXLivf/3rUAA18P73vx/mkUu4cLucffnoRz8KQuRqLewxd+7cs88+u6kBxXzDvYTBaMP73vc+uSCMw09LqO2//uu/eAsMQ+VyxhEWmjV8dyKP4WWCpVmzZkm3mLu5xhPFy//t3/7tN73pTZ///OcxihhaOJuLt7zlLXKd8Nd+7dfow6ZNm375l38ZErz2ta+99tprqZM7eR98/+Y3v/nGG2/8rd/6Lbx22PdXfuVXMCRokD1moT3nnnuuPCT4kUceAW+AUG7aAvDUfPfdd8s5gOuvvx62eOyxx+Ri1Je+9CVIL9e1kQJyNpKvOOhf/epXaZjdcKGRAO+9730v4oOvSCuEC5/I4H/4h39Az/D1He94B1RiGOxJLowcnxBfJrChYfhgDBOcByMiH+VXBgW24yssxVc4AArQ5glpA/2l1x/60Ifg5n/5l395zWtec8MNN/CjPeUFavBeBhQJu2TJEiT+9u3ba/OitBBxj/Sh77fffrvceoWue9e73rVhw4Z3vvOdaB0UzMc+9rFbb731rW99K5L0937v98AJag1Ggm1gv8Ybw3D84Ac/QBkAbCCNBwEUZe5wuI5WySWQarXK23kLMnRUENINgCfznFMF11SKnAOBEpzUAqO/6lWvQgTyCwNMpVwgY3gNF5s3b/70pz/N2KA3+Cp30L3hDW+ACny94oorkENcYPE2AkJUrlw6k/h56KGHfv/3fx+tiK7md6AI+fhK/WhCuerNzWD13e9+N9oJoN522208K5eGEVSQA/HRFHGRcOh2BhKoM9jg7aqrrmIIGT+Qf9lll0FcSCQRMgUghD8WLlzIQCD+kUErV66Ewhg8l1566Te+8Q1GDQsFQ4hmQ3P5FRGJHpioZsAqGb8gTxFPYHIK+j4iNeTaIEPAEP/hH/4hOoden3POOQwW1hbNwyD63Oc+hxZBYcDVyGIEFgYnmhCOBYSYeJg2aEW8CapCbIEfVAgjC06a4pPvfe97aAU0IfUwOlSCIEAs8go0E7z64Q9/WG5zk4vbI4OQccJgRVkhYrkJG4w+yMTJCBtsHoQEwGC8sXZQUA888ADvYLyRJXQMg5j78ROo5Ec/+tGVV14JZpYtW4bSg13uvPNOZBLAQBpxP0bzKcWn3EOIFKAxaB6uMbvvv/9+iE4Nctc8dWJyoPefe+45/kp7wDZkZVQgCvqBfmH68iyVgHx5Q1MjzcCgxkHgddddhwrC4qdfMqcTfH/55Zdj/U+BGqwVcMUA0QvcD/oObRl4eofXMeJX3IGmutwgWRgdXgFB7OkrtAGZiOuE4UNLACFNgvEAIbY644I5gKKGM7EI4AeAAeNhIiK8wCTAAx7ZgYKE5U7ghKSGT5oCIQyASUhjwAst4SuODM04//zzMeKonMZQP/DhAk1Ly0cGoTQ2uKYKiUmuaRO2DeYoXeVa9pxucA04aai8TdoGXPDJL0W/cAOf1Fb7Wru/QQOG+2EgGkMlMihGVkJtjl9kzbRHxhbxJ27md/mgvK32e+2iqZHmkcpAke2v0UG+fSoRKNtTGyCu836R7Rnx64QjsN40laSYxkLvJD/IEa8NCizh+oUL2inpwO9cc7Fjxw5wyOP8tV6bUQlCH1tPev5NtURyYI0mkjnlS2vcIkdN/jIqCEcUNkAc2Y/YmBbTPyhBmQzx8fzzzw83pPkdSwdjbQKt99HKCCCU2B2xIB7QPzTLCUpQXikFxQXkhv/u+WUKGjBrxEjwKStT/LqgBGVqGLWp+4Nsa0EJyjSXWWPs1brkkktkjF97e/vFF198Ogmt5syZMzyNxZEjR84777xTHsX4wAMP/OAHP6ABF110EZ+XXXbZ6tWr9+7du27duqmnF37CPffcs2HDhvpQBkx0GrN06dIpPtvk4MGD4XC4tk3swQcflJuS5dfZs2fXvm7evJmv3d3dk9QSBlFGl7+SsBGLxSDaCT+NEEw42uAqirJs2TK5Gb22oe/CCy+sxXaNH4T79++fNWuWDF/YuHEj1zt37sQblMyXHygy2khe9Pb2ciG9yvrNtRjWH/7wh9///vfLbXGGYchKANInP/nJU54mDQM9+uij//Zv//b5z39+yZIlc+fOfe655x566CEwqeu63OQtZ0rlBS2RE5gyURXvgkVkvC9/lTNP48vj9sILL7znPe+59dZbZdhUzXr//ve//41vfAO6f+UrX5maNI2maf7iF7/467/+axnF8vDDD7/3ve+99tpr//Vf/7W1tXXevHlcyK9tbW1IQC6uueaa973vfTJ9wcQWSPqZz3wGmkwvCOW4yxgLrmsh7bBlLeOTTIsOQ8rb4A3JGJJ15f1y18sJPxhdBl5DXqhXe1byFfXLsYYVYePayeHc9qMf/UiG18FvMlSCC5hQ7rynkXJiRW4xHWGJol7K/vIv//LPf/5zpCmNAITAHRbkk+Z+4AMf4N1f/vKXr7zyyhN+6OQVV1zBI+94xzvOOuus//f//t93vvMdmrh+/fo3vvGNb33rW//4j//4c5/73L59+97+9re/4Q1v+OhHP4pU3rVrF18bFBgwOipIYvJnP/vZ448//rd/+7cf//jHYT55vLiMv1y5ciUg2b59O5j/j//4jwMHDtC2D33oQx/5yEdaWlqefvppWv7pT3+ajsgolaYK+IcgXMDlMtj0hH/o17ve9S6ZPIvOTk1yxEwmAzX+8R//UZ6r/olPfGL58uVcIAjgAEgtg3HOP//8H//4x5/97GdXrVrF1//7v/+T4zWx5e6776YBUHV6QUjX4Kt/+Zd/+Zxf4DqML1if7v/nf/4nOEEewWwMHH+FUYENv/zv//6vNHC+/e1vw9iQ6GMf+xj1YOzI8HHYGEbCauvo6ECKSZY799xz//mf/5kuI9AvvfRSGFJm05D68y1veYuM26Ye4MBY8EaYkDZEo1G5Y45W0Ya1a9fed999Y4Hw1a9+9Wte85o/+qM/+p3f+R0AuWfPHgQqEIfpf+VXfgVVCfPJsGiahRJAUYBVVARiQ2pOCEEjwO1rX/vac845Z/78+V/60pcQ4fyVd2MycdFglND3vve922+/nYtFixZBr8cee4xeoQaphx5Ss9yOhNTHZMU4/Ku/+iusAhoDCFGSd955J+Tm2Xe+852IqJ/+9KcwaLPDLMMX6D6yg/fKH1988UXGWAo5oD48A8rkFbomTRUIgmHP6MIlGAgXXHCBzJXCuEANevrd736XrzCozJoxgWXr1q0QFt5AGU6v9fiFL3yBzkYiEQwEmBvugkPkhlKMdsBz//33wxJ/8id/ggIAY0CLv0phypjyFR144403cjMMDGMDQoQLuAVvGHcYbn/+53/e09PDWxhxbuZZeB4jqN4yQhbjx+EaoHL+8A//EMowNKgomPDyyy8HsS+99NJf/uVfglV4GBijXU+hCWk3b0UDgBZkPFX/2Z/9GWLg3e9+N1oVKNOCE352pq9//es06Nd+7dfAOvoHlOIj/f7v/750BTFHP/WpT8ExYADO+PVf/3XEJ+P3q7/6qw1GCdVASNMRV8CJjtVsWiCB7pWWww9/+EOcRhrJV0i5cOHCE34us7PPPpv2S+zxuGx5syCE1rAyYqX2IzSV6XokCMehYMddkGgShLjroA5hBG3vuusu9CQDj7jkKyxY+0rL5U7aiSoyjxOyAJpj4MiEEdNVUANQgzECIQAJvDEuiHjI8sUvfhGrAduNr2iFE34+OwYL5pFfkaRyyyHsgY7iT0gWQAhrHTt2TKacwXCTqYMQ6Jj6XMBRMuFFfYZeCtYHthIgpCUn/KB+mRIF3YAq4l0yHwWsIiscFYQACeBJsuKDyU2hAOx1r3vdq171KplAEkkDqHBJUXQ0mkoBFW2CL7mf3xkYsIcRiC6lP9xMn2UKQ7gBWfVLv/RLDYIQWS5fihUB3oAWwMbghrLwIoCHdtjrjATCButLKkaZ6A15AeFAHdiTuRXQnNIOaaosXrwYHchA5vzC65C7qqqi8JFZnZ2db3vb2yYkv2iDpZajARkkU9HIhF9IIogsvzIKkGjTpk18hR0nNsYP/Y8ZjGiD7fAO6icnpr7gHDHuKBaMQBmOBH9+1y8Yjeice++9F5cEtpFRfzJFGuqEcUS2AkJ8HFiUm9GH//3f/809gAQ8/9M//RM+pNSWPAsfXn311VxQ55IlS9BvQLp+ou6yyy7DIgPhEoSoaB6BCRFVaA50FQ/y+7Zt2zB3xwIhAuD1r3+9TIPJ3Th1mMUn/KRRQIjOcE2jUbhvetOb/v7v/14mksAbBKhoeYxYmJUb/uAP/gDlixz61re+ddttt2EMIBjwnZAliAT0am0Gb+zCMD/wwANcQGjcHqQDdYJwakPk4JhhEtA3rG0U5lNPPUV7Tvg5vIA9vMh4IBqxzqmH31FlMt1QUwUK0lkGj3dhsUBNhgpHCIrjZGKrj5bIeJIK7CVBBRTRcnRTJjKRX4Ecoy79ZFQiXxFJw3OTT0hBAMkolmksSFvGHbmAUEY44sJBEOxSBgtphYxGQAMMmR8MBuavaDB+BwmgBf7kkQ9+8IOoTfAM20BGlDwU468AEsTKhAnwodQHyHGsOSQg0JVTErKAYTif+6Wzhj6jDVTLixKJBBpVKgB0laxwVBDKiSPpBfEpJ3ngYyxPuLAW3I2EkPvuKPIRmIALeb+cwMV6hjRyeiqdTsstc7JyPhvMD8/jkoHkJJX8BPC13OlUCxTl1FP92YDIOYRiLaO+/L120ez8W20LBR3kLbX05hB33An/x10kHWqLBPXijMaM8XXCC4M47af31KhBS+QiuGwSHCizEHEht0DXN1geJlPjT/gEJ5BnMU0ZYvkjMLvhhhtqFUoeky+S3IuDV1srqk3C19MEjMCEtZnYIW1obrEeAYAfKLMtBSUoZ0gBmbfeeuvkJVtpDoSAeJLsmaAEZYaXyVuAmTWiFTpaKQyUfFCCciaVSWX7EaIoTNOshRTK6On66/EVGSs55EcZHnXKarPDSm37uTXlpRZiMuT3qW9PLb5+HF8nqTHWK6tItq8x4WjUG07bBhm7VkaOJ6RSTdPa29vxZblWVZVrfhl38oKwX+of5zqVSh04cOCU1XZ2dh49erS1tbWlpYULmdVLpjOb4mQKUgTghRuGUR8gyzV+PLSavKjZ4bGd9B06IDFl/Kicl+JTNrL+K5+MKTfL6//P3lmAVZWtfXzyzjhx79ypO23M2N2toLQItiiK3WIXJnZioWC3KBaIqKiIAQqIigVIS3fnoc7323vBGcaxcBDmu9fz7Idn78M+e6/1rv9be7/rv96QZGJiYv6b5hkKFQC0oncADy14Ht7EIoSqQ+Bx69atyMjIV8Tnczlm3NzcqlSpIt5K29vbf/zxx4LIVYyimCksHDTnix3aqlAoxJxDAUfxDcG0vr6+np6eeDYlpqWz4+Dg8PPPP9+9e/cFE9K5wvTp0zU0NKpVq1a3bl0dHR1tbe01a9Zs37595syZ4umWYFgQLeFSYla1uIWYSS3uK07je/Est6zzkjkfHI8YMaJz58604dq1a6KPXP/MmTPdunWjbYLOoAJsQWBg4KBBg2gJ9/X29sYk0TAtLa2JEyfGxsZGRESIQ1NTU8ABgHr16tW+fXt+EhwcXO4TspHt1q1bjYyMhPmuLLURQSPYU+0IrIp9/grOBxW3g7BQgrpCtcOYiielnHP16lUGmn10YejQofROfC9WvBHX5F7AuEuXLqBUDD3/3blzZ4sWLfz8/MSDUIE6AXsVC4Fog8DnS9jWREXi6dOnRe3ounXrGHIuZG1t7ejouHfvXjs7O07ev3//qVOn8JabNm3at2+fmZnZ5cuXaROoXbFixapVq1q1aqWpqYkUOGHy5Mk2NjZc5ObNm4MHD/b393+xecbYc8KwYcPMzc3pobu7+9mzZxn1Hj16zJ8/n+tjsTw9PWkAHRP/vXfvHs1YvXp1SEjIyZMnx44du2XLFu6OfeL7xfKnrPwA3HrDhg1YE2A9Y8YMhkeMIh6gefPmiAiJ1apVC7/9pudi0xLaD+jp+OjRo+ndwoULhwwZguvDEFhaWi5atIhDLDGNtLKymjZtGhhCjB07dkT+pXkcyoViQyxOhEWoRCUEbEARQGKaGQuxSg8wYICOHDkyZcqUXbt2IS5s0O7duxlHRlDQkwJdfgsIDx48yM6lS5dQp7Vr1wIP7KyamhriAqUgFjDv2LGDf4Er4M01BZEhaBeMSsLKcxpyBieIRSyMRbjHzpgxYzifWxDTscN15syZQwNQqxcp4T/+8Y+WLVtiRNu0afPee+8dP378+++/p29c5aOPPqKfTZs27devH44Ove/bt6+YbCFKtL/66is6OWDAgE8//ZT/vv/+++gMOvzDDz8YGhp++OGHOA1MyAcffPBSykMxox/TLigP8YEgDJl+9913QArYIXe+5F5Kec1AQEnHaCHgo7d0AdlhAlauXMnhF198Qf8xXeC4THAUVELYIMwbt0Asom6GLzt16iSCarTx3LlzZWLIe21GBkaB9uPccHeMgohZ6BTC6dOnj+DYQzlHjRrFwDFSkyZNql+/Pka9HGNmwXrIyIJLfLIqO6r4D7gVJdEgG+wNkT+I5eLFi4RRgK1169aoKPrwySefzJ0718TEBNEhRgIExIjuAQniCzEzYeDAgUj1xo0b/Ba9Bf9IG50kNuT67dq1IygDjWJpTWNjYy4CCEVeIEzh8OHD8Qqcj/PAVaDMILZt27b8dXZ25ntGimFCM11cXF6khKgKjRg/fjwG9d1338XJoAn0E6B/8803qD76Jl75c3UMM0rIaQwzvghtFPU0dJir8StaRldpMffmyhgPorhXUUIRaaiUEI2ih0hKFIsKwtb169eLKgT8gOAdJfrlEBGIylrBEYwJFAUTeHJaXibe0VSZa5TB6N27N0N1//59hE7D6CwiFgkDESCif9NKKDCHOcDcMjRi9SuxmizdZyAQiKg3ZKSQG86wUaNGjGPNmjVxC+XVPGH4x40bN3v27PPnzyMTsYRLpSghQ4MSCjqzDh06eMsfFA+9AhsgBwngA4iYRNmzh4cHpvPKlSs0GyVEMYA6uRyBEoEbWAUnIBnBip/wL84RRaRLly4VdfC6urrEWQRlwAntEH2nJfhS8IkG4QBEGR2eUBRL0kjUREzrA7pofmFh4YuUEI0qHY5i8vnZ559//ttvv9FEfowSYgW5DSaBsWckcJ6gk+bi+g4cOPD1118vWLCAKBER0DGcFcaYjI6LEEb+FSWk23yjlNct4spolyibEkSRKKHQSe4oFpSnIyjh5s2b8QzK1yX/panE1QQYqJ/giaPvfNmwYUPsH2MgFjB+02mh4AgDGQhBFG10796deFsU1uH/iUroIIezZs0iagIExGAcYq0xPeWlhMINAlN1dXWs8L/+9a/KIv8V0Mfv4fGwhqgTIER5wDqDRfNOnDhhYGAASBgsDhEaCobpxAsROgp4iDWAASp6iFlBUABeKGGzZs2IdMSSuEgbHIqF6wTvK5os6AVVGTLRoiD/xURyPkZB6BHqKlbaBIp8D3Rp6svJf4UGq8h/ySvQIvb5higUP4MW0Y1nkv8SNxOzEY4yQoL8l25Xq1YN9HNIP/8i+e+XX34pwlHGHv3HEHBYvXr10uS/xMxIkLHh7ozHXyT/Rbi//PILhhCsI30GElgz6gzGyJEjCWBQBkzmm/YGDBsmpnbt2jh5xIgPpJtEwoAMK+Dq6orKoaLiEGNKs8EBCMBoIqIysWi+9CM4+ZE/IZl4ll5ZSigWKmY4aMndu3dxTVhMBoV4AX9A1kroBIaJLRlK4aYePnyIGElP+AnKSZgAigjs0T1iTvAJtsnx2H/w4AGuRUxcBoeIVMwN4sr4IbwC4BcG6CnyX5QNwGAOyCq5I+Hhq5L/cjlCYVCLRREspeyTRGL48S0//fQTLUNzAgICwAGejVHHrZHdMvDEJHzP+eK1BK4JJUE6OG5EA3wxEqRwtIDQjvPFo/OXGl2cMPCiMbdv32YfVQd5xLpcARxgHVBLQYyNeSMjpz2Cp5S2kQ6hfuLBjMjZvLy8xAllir5oMwNGbokbx7YxhPSLf9FxWkLoT2RYAQx5fDDtqpaAFeRDsoEPpIXCD4tDsm76GBkZSYhFHovnLHcbIYJSsX5tJb5RoNf0nXEHCQwNIHzy5AlgAIGICN+FkgA8kIyO0WCSKf6L3EiYGTt0A1uGNQFFZmZmYANrRbjBf1EqgixiK4DKlZEnOETBQBH/BcN+fn6YQgAvhp6/+Ez8J/qCTDjkshh99BbDzSHnM3xcB7RwwZeT/4pXTCryX+702WefcUvxSENF/iveTLyA/Fec8FfIfwVnq3gJIchVxa2fIv8V706eIv8V7BtiqFRvMt4E+W/FaOBTLRHhpaqkQ+W3VYfimbh4pfSGPNXfgfxXAEz0XfU2QvU+QLy3UA2ZqsHiVZYQlwpFQpgCriL4Hzp0qPgvmOEbgSIx4uKapQ36M8l/RQNS/yL5LxdFxdFm8p+35L9vP/87H9BOfhgTE/OGTNgzlFBYkWcWi5Um/01/+3n7+Z/54MdU1Ujl/nnLO/r28/ZTyZ+3Svj28/bzd1XC8PDwsWPH3rt3TylzAYwZMyYsLOy1b7NlyxYVPZnq4+3tbWxs/NIJ6Rs3bhxb8hk/frypqamtrS0xumD1q+CPp6fnihUrTpw4UXrheNLro0eP7t279/XoTF/v4+rqSkscHBzE5G4vL69NmzaJ8VLK/FccCkaSoqKic+fOLVu2zM3N7Q01BrQwHH9n8l+xft6fvyfOBJm+vr6CzFJ8ABjng7HXo65CX0aNGlVu5L+iDkO892MIk5OTBfjEk0+xuJQ4ZEc86gSR8fHxqvEQE6O6dOkiuOX4lYoFFdwYGhq+lNj7+vXrDLCamlr//v1PnTp14MABZ2dnQf7LpVRkr2Lis3hOJR7Gcmuawb3EEojiv6J5KmbYMn2uXr3aokWL9evXd+rUadGiRaq5nlgohC7ekqsIL97o58yZM61bt96wYUObNm1279595cqVjh07rl27tl27dgyceEMlDrF0+/fvp8EcNmrU6OLFi+XeGKStp6fXvn37SldCRhk4iXnn4tG9UuY3QdOmTp26ZMkSgV7cSUJCgvjJ9u3b+R5rRfvFNwCsSpUqd+7cAVo9e/YU1Biv/hGETn369OEW4nGooHEBhCoGanYAp+AEe8aDGdVHUB6uW7fu4cOH+DFRwN2kSZNDhw6B8rZt21pbW4M5MZUB9ZgxYwbDX79+fYb/hx9+GDJkCC1AeapXr16rVq1vv/22V69emBZOqFGjBpjw9/fnsEGDBq9oMCZOnAj6hUVYvnz54cOHuU63bt1atWqFTxDrIQsbhskHlGBUW1sbPe/Xr1/Xrl3V1dXxEmfPnqXlBgYGzZs3d3FxKesY4+sEL/quXbswCuJLRh3NZMiBYO3atd8ExfUzIwsGgh1Ua+jQoZiAnTt3KmV2uVmzZmEUaCGHIG/evHmIiyCCUdfR0SlN1lhen1WrVhnIn8pVQoDBoACJAQMGEJJMmjRJ0JRhrJEVI96yZUs/Pz8OcQmYJ8CpInEC5IL7EJB0794dkLi7uytl8ihRilSmoACQ0xJ7e3twzr2QOdfU0NDQ0tIKDg5GswBnjx490KZjx45JyvUCJfzoo4/+9a9/ff/991988QUKCaBRMH5848aNDz74gKY/k/wXWKAG7HAoJh/Rmm+++YYfYpI5H7//7rvvbt68+a+Q/2KuNDU1sSi4REEr/BT5b82aNVHvxYsXg1FkzU0HDx7Mb1FaRohATnAfvgbBwbVr1wSJpfiyNPkvTaoY8l/REu7FeBMbY+AuXbqklCnZ6Sb6gGxFnRQKiXH8+uuvMRCC97bcoT98+HCwIbg0K/GDUhG4AafGjRvTHgApEhacEoJauHAhGMAKiyIVUTqD7vEXj4fuMXY4JSMjIyJ5DDdCEwIUCC/T0IjaUa6A7nBl5LNgwQJAKNZLxvfgP2JiYo4cOaKvr8/3L/GEOGuxkrAg/+Xwxx9/ZJiBcmnyX+zKq5D/4qbQfjQZd/+GyH/pvCD/FZWljISovCsX8l80bf78+cQtpdeiwWQyroI2C2sqZl2+6Q8woptE+EL3dHV1RZMwq2idIKVVytV5OARAYGZmxjgSsIh4oRybgXsBuHiMatWqCbL9SlRCHM6gQYMwNygAOyKZEhYKcww2LCws0BClvI4AOEQnUUKSatDOb8EktpvA4bfffjM1NSW6ETNFy9oSghEiEQwB46KUyX+FTfwz+a8gJn0J+a8YWhX5LwOJT0NzRFU0mMPqEAriKk1MTLgouqci/+VXBKK4YFTis88+I21AA9FGggRxhTJ5QrBF2CP0R5D/4usxXagftgqPT8dIPomQBfmv0DHEwclgZeXKlWBRTOtSyvXsr8GTyU3pL2m3is+CoJrQn6Daw8MDI0UHSegrAHAYddATGBgoJlsSYgEapIHVp5H0mm/EIXZTTCIjicB4cVo5NkMsR4UwsfRA/zUi/HJsCUkB0I+KiiJOAYEkRPgxDtEoGmZubo4RR1FJTMSy8oRvAQEBRIYMGf6KcBGEk3GQYxNfkPNzGtLDu5S1MaRm+B7cgyALxvYRGwJChE92UJr8F/f7IiUEUtg2walMAFa1alWR7WBXCFOF+yKi/emnn4Ag/WfguSuGhJgYu8L5gmwXz4kUsJcgAEvzyy+/EC4jJiwTYe2vv/76igESrUci7GDe2Hd0dOSmWCmuhuxw7qi3iLy5CyIWde5kwxgbQfDKjTAHqnVjRDZbpg+/peWYHmybIC/G0xJ+oNuMJf5QUO5XwAf/hsKLlmDdMY6MNyMKYgjRGQKxqonIzIEgiQMnI6tXjDvK+sEciNCjsj6MwurVq1EwbCsx19KlS8EACEEBGBdMJEjGaqNstBOcEEQAIcH5wH8xpmJSnsrii0UBURsxH6VMHyw+XuH+/fvCE6A4SL53797AFaByu5EjRyrlBTDEXJ93XtArrItqzVGxT8vEHHkVY694LsphQUGB6rTSv8VUY5LFCcqSBaXYFyeoTnvph5+Im6ruxY6gElaFRuKpbKH8Ub1C4HZARDyYUn1f+oQyPfhSKBSCIUvQdqgIIOPlT0UaflGOKFoiHlGSCKiEyX9LHzJM4Ey1+teb0IG/AxcmeKCnNEasOiamIghIcChWzmKHYE2cIB4ikKo91X4BMDykoaFhWZ+OqrDKFVQYw6kCQvHgQIU91Qlle1m/du1aoiB8vfLt5+3nv+KDYSJWF2+w/vxu7E08TP7zp2xKiE1R/netxvr28/YjkF2JN/8T+W+RMju/6HlbTr5S3oqy325vt7/BpihSet7yeuTrl6Uo8PC85fs4ICu3wN3j9x2/x4GZ0o6nnz87+X/cCRI7jwPYKbhZvJN/08OjeMfd83FgcGYOOx7+pXYyindC2Lnh7u4fFMK/rl67HhYRrShUvkYv/jSLolCZmlvElparzCxQpiukQ/6yn6Yo/tdrbBn5SranvuSyWVw2V/nS33L30ltGntQw/r52e157S1MU3/33b+gI35RsL+3OG2qJOFTd/alDSVz5f2kEX9SS3KdlUmEbAvfyfhiXmp2aUxSflpOYoXjeTlJmHufL3+SV/EvaSUjLSc0pRDKckJhZ/K+U7AJO5rfSTk5h8c9V1/l9p/hf6YqixyERAaFRApNcLauwDAJ5hhJKqFIUJaTnPngcHJOcmaEoikvJYp9v+D4tt8wbvwoMj2Er/fMMhTIyMe3mnft048WX9QkK87rv5+0T6O0T4HXf9+4j/+DI+MiENP6+Xntee8vMl4QTHBlHm7NlQbExTtFJGdGJ6dFJ6bEpWclZeRXTEhAQHBEHUDBkHDL8YbFJ/GWTDhW/H3ICQAmOiFV1oRw3cbuQyHhaUu4Xf5UtNafgVU4TUnpm+8FVZEJqUAk+OQ3Yp2Tl+4dGhUYnvmKn0ExJmWW0J2Uo3G55R8SlyHbw5b99thLmFCndPO9++OGHR09I7wntz1744IMPXD3vsC/7riIFGW2hMlep5ExUWexwyzylkn/ly4dpshMTj5z09A21dbsVKqUTCpTSDznNwcn5l1+qIgJxzeeN8Syz+Tp63apVq16nXn19gx7duhtabLLctmvfjNnS8utcMF3GmWgJO9lFkrgV8r/4ea58Rw4lf17yvfhXWdEWGh0/eOhwta6aXTW1nK+7IwFuh3Xo0auPnr5Bd8OeLVu3OePkLPr+BjUwT+kfGtlvgLE67dDRu/3ANyohdciwkUh4zPiJMckZ4bFJJkNHaHE4wTQ+Ncvbx797j54dOqn1MzIODI/OzFOWowZGJ6WNHjeRZmjr6mEfsypWDwGYq/stTIxoTDH2lDKGldJwp8pgBgD7bWztHC8I3OaXAID9G7e8R44Zd+WGp4amNufzzUP/0PYdO3t6P7rmfht5puUWvIpNxBP6+Ieww5UBZ4uWrfxDIgTgAYkKhCJCUZSoCefTvOcqoauH9LLe9qRUeOFw/hL7R07YL1+95vYDP07YuHWb/bmLO/YcOGbnmFug3Lnv0DG7M37BEastNm3fvX/qjNnnna9y79Co+IVLlpsvXd6yVWvGKSUze836TXRs76GjKdl5N2/fHzRkmP+TqJcaG9ozYvTYJStW0yuPuw/PnL9ovXOvQY+eM+fM4fpEI+53HtCAvAIlFuj0uUsoNs3gfLyWzXG7YSPHrNu4JS033/PuQ76ft3DJ3IWLw2OTy6SHSNNisxX6lpqeabbAXFNHl2aj2AQIvkFhgWER23cfaN+xU1hMQkbemwUiLVm0dMWgIcPTMrLGm05BB+gR8klISsFCbdiybYH5UoAVn5Siq9/dcttOhmPE6HGZOXmd1bps2rotT1luzcuXWzJ2wqSk1IwVayxsTznkFlWsEuYp7z7wTc7KZyciPmW1xcYJk6cds3fMyi86fOzU7ft+igIluL16w71dh05dumqGRsW6uHmMGjth7gLzJ9GJaILJ0OFHT56+5f0I4aCBKVm5AwaZfPXV11fcPPOLlL379bc7e+GlVpW7h0TGBT6J5gqh0XHt2ndkINxu3d6x9yBi8brns3PvQUBovWtfZl4hkR3oXbZq7ZQZswKeRB2yPfUiJfzHP/7RuGkzve4GzVq0fO+99046nP/xx58mTp7mE/gEJ7nn4JEmTZv37S+94mzRsnWf/gOcXCTSbvbr1K3/ry++eOgf0qef0T//+S9ssET+26vvuo2WP/9Std+AgRIhos0xh/POUknqfV9VaPe8DUMilFAqTNu9f8jwUbv3H/7hhx+3796nb9gDkO3YvX/gIKkCZrPVdsw/tuOjjz5C0Lv2HWrVpu1BmyN4Kn5Om//95ZeWVjuwCGhvmeCYkVd0656PT2BoXpFy5Ohx9CKnOHSXEoDE9Gy1Lhrnna8plMo3j7yim7cfBIZFZecV9h84iLHsP8AYG0T36SMuEbGfsHfk0HzZSgAHjBo2bjJq7Pi69eq737n/grijjFmGEgkMGDSY8KR33/6Tps4Ij0t+0wboeeEoYl++et3Q4aMOHj3RqEnTOw8f9+rTb7+NxIBs0LP33oNH+xoNQDIubp5NmjXftnvf6HET+vYfQEbTpm37RwGhN73uqal3xVktXrbKbL65Qc9eztek93BAaOKkqbmvMKbEomx0PyYptZuB4ahxE06fvVilSpWxEydzEUIWG5sjOFh8wOXr7lU++WT1ug1oO8bR1cPzRUqIpoHd6bPm0KZ3330XFzR6/ETUcv3mrd/+5z9hsYn0Z+Ag6ZU/qm9kPPiCiytKxWkXrri+8+67h2xPfvvtf8A6FqV5y1baet3oGDfGmXBlROZ44TJR7qsoocoTci+sy/BRY7fv2jdu4iSpiNnFVVNblyYNGS5VIWzZtmvC5KncurthDw75cuVaae7FGafLspewHiDrKgGDscnQgjIqDIb/vl9A9x69uCP2TIVmhXxBgJhTUFQxaSot8fR+QMBp0KMXybaWtq69o5PoPlqhpaNLOCBVt23djkvcbL2jeYtW02fOrlO3HhjNKSw3JUzJLsT5k2tcvXa9i4bWgsXLcpWVE44yFgSQxFkzZs+tXuNX/JjRwEF0FiH07NOPUG7h4mWbrXYgkEEmUqE/Lqh12/Z8TwaRmJ7r6nkXGTo6XaY7RO/0Ba+eV1Cw7/BR3W7dX4rP0uEoQ0Mb0HM0qHWbdmCsq5Y2gJTKHg/bYq7Qjs7q0owNp8uS0IqULwxHUbzjsn0lz8HFEfJduOL2+T//WaPGbyCYHzdt1sKwZ++cvPw69eoNMDbhov/46KMHj0Muu7rj6xDB1998Q+CXrchr0KiRjp4+FhqTjCC4yIo16/+KEgL64aOkim0Ex5UJj8mCOCQSmzhl2qGjJ4cMkwu4Bw9Zu34zO4QcKKGl9U4cAofEA0TCZVJCGulx50GLVq2tdu5WyCG+lIvKD8HScgpwgydOn62YYIyWuLh6oFdAhGYwEIY9euPepVpZs/kz58wjXUQbpSLG2fOmzZyjqa2z75D00nnW3AUIpByVkKiPmMJq5x4uvnj5KkxedmGFh6MPfVOyC9JzCzCCw0ePPXvxUtt2Ha7d9MLRHZGfaIB4Yq458xaihBYY62GSsSZMa9ai1fnL13APcalZbp53yajJWYibcOxfff01dpbMgniNw1cNR8OixUOHKdNnkQVcvXGLazI6HTurAT9uamm9g8gFJcRVcnj24hUNLZ3cFygh3UDxDsgO/bi9xOrLRVNzFGgR+4SmfA+gcX1YFL4hIuKiUp23b6DkCd95B9fPLT/+uAr9lMh/tXQ0tLR/qVq1n9FADmeazT99TqoLx4C9ihKiMwsWL+WmVjv3GpsMw63/+9//XmOxHoTh6y5du0GstXrtuurVa5hOmb7vkG0/I2PZ9hzFXe/avVe9iwYwtd4l6Z4sjp3EJ4VlUUKEy5V//uWXeYvMJ0+fSaCLnZo8bWZqdsGdB4/r1W8Q/spPw/7ihhaRydSsVXs+LZk289gpO0xss+YtV61d17R5CyzFgSPHxWGz5i3cb9/DMLdp285i/YZGTZpY7dhTjpYCmXBB7P1W622M8mHbkxWcE0pxIBqoUKbm5IMuMmTSwv989x12Aa3T1tFbYL7sk08/dbzgsspiI2Hd2UtXGjRsbGm1jYAIUx6dlNahY+e7j/zdbnkjIuJ89Bm/ikk9c0Ga9zBv0RIk/OrhqJAJzdhgaeXi6t5JTR0lXLVuIw52z979iOjYKQfa0EVTS37U4tyhU+fnKiGtIW3FXZD+ZecXPQ6JRNahUQm5hYWEnVWrVouMp7XSg2mLTVvQb5tjdsSiQeEx6EZUYnpwZBxSCItNJklYuXbDmvWbsQT4PYLvJctX79p/6IDN8XOXrhIS4NDIp7ndS7OgS9du4oppzD3fIPaxZLh4rkYjk7OkNzYAkXudOnMeq8aNMASczG8P255C4fccsBEPowmJ+Z4dTsjKL9uLFgwnHmaDpTWbnaOTb1C4zXE7bk0oYud4QYxBxWyMn6olSBIDfPjYKZIZgpEs+e3uoaMnOGRQMHCxKZlEHxiOvYeOSE6j/AJm+VLKg0dOzJ638JidY8UnhKpwFAnc9wtcvGzlzr0HHZwuMy5gb7XFJgCGCwl4Eh0SFb9xyzaQ6Xz95iyzBeA2OolQRjlyzPjd+w/HJKWccnRCbmJzcHLmTFLuXn37o8Av9YSlw9HM/KKrN71QbO6Im+EwOSt/x94DBCloAaMD7Bk+QBgYFmN/Vjrh2UooPGx+yUNeEemi4sTcn3762XzzpeKRhnggKx765yiV4oWEeI2eLz8CVj2NzZNfS9CCvFKH4rKvOHIIIruw+CUE+5kllxLvHoQFEhunSU9+lcrUkoc64o1IWslviy9S9uwlR36sLDbRfkWJHBQVmwvllmqJgIjopgoupQ/FKOTI3whZlXtjxFbxLwnlcNQPlIvBFQDI+eMLM4Wy+D2qeC3BvwQexBtUz7sPiaJTshWlR1B0x/m6O7FeuiL/VZqhCkcFVrMKil+PibhdUUpEnJOrLFYr8c1zlfCZ7uia+20S1riUrJf6rrfb261itpSs/L/yczTh9gO/2JSspwIEEO4bFBYUEfuqL+uzC4kyXq8NZVBC8UhA8Was6dvt7fZ6nvDOfZ+/WKUkAvhn6ucraiDNCI6IDXiFN97loIRvt7fb384Tvq7/Keuj4Fd8MFOeSohyF8hZnAheC8te5/XUY7Q/Z00Z+a/kV0X+UyBvqiyInDC7MuwFt877Y3KlyntV6UeFtET5VEuy5UOVTEofckKuyNvfzKNL7pL3xhLOynWz4tmHeLrxfB0rzjNLu9YyifrZSshVHgU8GTjI5Lr77bwCpfudBwOMTR76h6gELTLdjPxizRQ7ojhT5Luq8RDVcSvWWCxfvS5HLqIVOWtOofKau5dhz95+wREvAC5nLlu11thk2MDBQ4wHDx08dMSwkaN37jt0weX67gM2eSWgTy+eNFC8I/6KsjLRntKnvXqY8efGnHe+Nnvuwp17Dyak5woJBEfEbd663WLT1o1brLdu3+3tG1ABekgCc/rcxVlmC/Ydtk3JzkcNnFxcFy9f5eLmkSU/l3K6fJ3DK26e0tOsnILDx07NmDPP4bxzuSfzyJa7zF24+ODRE8lZ+RVcUv/U6IixVu0IEKq+LA0A8d/iySV/xE9WCUofPA5eumINO1GJ6UtXrolLzRT/ErgqvqZCur6do5Pltl1i3BH4zdv3Bwwyue8XJJ7eqUD45zaI5r3kPeGR4xJfFfdg3+nytbDY2KRMBVd5EpMUHpccFpsUmZCK3KWd+NTEDMWT6MTopAz0SpTzcZug8NiwmLjO6l06dOrMpcJikh74h8SlZKE/3MKwZy9JCZ9fSMXFL7u6n3Q4o9ala/+BgxzOndt76KjTZZeNW7aNnWAaGBoaGBZDt7kgDchQFJFhRyWkxaflRCelB4bHEKvEpWZ53fN9EpNIpzhNNM8/tMzhe26R8vT5S02btdhoadVJTX36bLMcuVLc/0n04mUrFy5ZNnnazG++/fayXNj9Zh+NFikP2Z5q0ar1pi3Wrdu2QxT2Zy+079DJYqNlqzZtL7t6nDpzXj7czOHVm15btu3q2Fltw6YtDRo2Kt+KAiyp40UXNfWuO3btbdu+wyHbk4qiynGG4AQAMOiPAkLBYURcyoPHIfguEBibkun9KID/AjP+Jc+/icOj8KukzDwAyW/5nh0QC25RnqCIWPCJJNu171govejbMN98aboiLyI+BZvLf1NzC+8Do/iUfLl6RFNb1+H8RQwcl8pQ5I2dMKln775hMfFcW8wviUpMu3XPl1uDDcw3h4DTJ/CJ9Fg1KuFFFTPvv//+oiXL3Txu4cTeffdd0F+3foNtu/bR2ibNmltsttI36DFh0tRCuWJjvOmUqzdu/frrby1bt/nm2//06ts/Pi1r1/5DP/z4Y/Uav3751VcGPXo5uVz79bda1arXAEBe930uXnGrWav2Pd+gF1cz0u4ipXL0uAm4U1p4wuEcdnf3/sO/VK2q06170+YtHJycsfSmUyQquz0HbMwWmp9xutyoSdOumtouru76hj00tLTbdejk6uFle8qhSdNm3br3aNS4CcAtU+0I2N2+Z7+oRLG02tGxk5rK5eYKojuz+VLd1ptHIc3eYGmNDxTFosQIJsNGWO2QFsTGEEyaOmPo8FHWO/dKPEVTpk2fZYZL5JvQiOguGlr7bY6V49sUkEpgsmjpigvOLlhqv+Dwin9VqKrjA4pt2nXAKql30dDTN6hbrz7K4xv8RENbR7+7QWf1rjdueaNgjZs20zfoCQCQoaf3o159+iGQ6x53jAYOxoz3HzBIW7cbPmP/YVvOB0KJ6dnqXTU87z4EsVgxTS0dDHGPXn1atWmHYwiLigXYltY7r7t7CvfoFxJer36DTp3VcWDgvENntV37Dmnp6GpqaXdS63Lf1597cXd9w54NGzfmXxssrV6khBL57xdffPfDj1/8+9/vvfcejguDqqffHZf4wQcf4HObNmtOo/lV6zbt+g0wvuAiFcqsWb8ZJ84OkVvNmrV0u3W3d3T69tv/dOtuSBRnZGyCaFDp1RYbzzg5s3Prnk+Zyta27zkwdMToHXsOaGjpZOfmbdm+C4mjG4OHDBfFk+NMJ9sct6tVu05QWOSceQuHDBuBmVi/2aqv0UDrXXtxDqkZWVxq2MgxZa0dFfp2+qxTvXoNrHb+XnqSI8+IQQiR8ckVkxOK910Mc5269Y6cPG1g2FMUi+IVjQYOQuaYIaU87QMluXLD88uvvq5Zu8533/8gzTYqvwJuDD/C/61mrcFDhjZs1FiaxlVJD/YYSlKbGbPN8DxYdjvHC5eu3ejQsfMNr3vrLa18/f01NLXXbth8+4Hfz79UDQqPoamoFgkRkJac3nV39C0sNnHl2vWPHgdiufoZDeS3Wjp6OIkWLVsR8SFG/Ed4TOzUGbOx42kZWWg7zp+go179hktWrBKCzS0qwhRutt5BKvfDDz/eue+LlZy3cDHDMXvewtHjJ166euPXmjWj4xMPHDmurauXU1T0IiVE8cB0VEwcDk1aXP7uwy3bd3/3/fd9+hkB5ay8gkaNm5Kn8SsOjYwHk4d8+OGHPoFh1zxuv//BB+RsX3751SYriacQG6Cjp48S1m/YiG5XqVIFt/aXCrh37582U+KxveJ2iysjXzSTQ8zbhMlTyU9Mhko6ieLhutk5d+kqcEEVRe3otl37y1rAnZ5HMJOLfNt37GwvT28R8bZQwlFjJxCU5lfIC2taEpuSwR3VumiQG9MSLW1dm2OnJCauDZbDR43ppm8gyiZXW2wiNCI/mTNvUXRMHIbSdOqM8vLVcrFYIdLAnkoIm7tw6IhR2YWV5gkZawIiIkxNbR2iTfStXYeOrnJRqNGAgURAGy2tsfi4L8bd/c4DpIdecUicdUGeBhAcET1w0BB8o5a2HvDAsGrr6HEmSoi5cb52k5CKni5btRbjzg5BFqrRuElTIqwi5e/V/KraURygmN6AzrODb8ABXrjiqtddIv/FS3HBF9WOosdP5YRunnf9n0SS9hCm4s34HktQt279/TZHPvv88wHGJlz03ffeI1bGCHG+w/lLuKOOndX3HDhU5ZNPMCoYS7Ip25MOXIGeiLrwV/SEDLD5spWqqUzWu/ah+TEJCYTK6P8+G1tkHRsXp29gOHHKtAM2xzE/nDxt1hw8ZFp6OqaIkIzf4hkkevPtu4FmQRlrR4k6MCJe9x9iSp9EJ5AVEw7wLzKQ+g0avjSuLseKTaRHqHPPxy8oPDo2KWXi5GkYppj4BBIEYgQM+YjR4zgk+qCn3Q17EjEmp6QMGTaSrKF8a0fRee6ekpIKamfPXZBbVGlK2Luf0cEjJ8i41NW73vMNJNTE3AMVWpiQmNhVU2v5qrU4EgBJs91ueRMo4utQoYjYuGkz56APOAmC1bjEZDILw169UQECeJwKoiZzu+zq3kVDs0guVZ8xey4o0tLVO25/1rBnH9QhJSu7dI0xvueKmyfeVfIE/QfMnrcgPSODlmCqnFyua+tJrN6OF1zQoOcqIVqBbqBCBDmFRdiJ67h49zsSHSrRsLRmzUP/fCkcsiffoxtt23WYMWcu8Wq9Bg19g8PpIedzztGTp6tWq16rTt32HTuNGW9qsWkL5xMGNG/ZaoH5UmIAAneU9qXYpT1m8xdhXWgM15wzf9GJ0+e4KT5Qvasm8TrpMkLE1+nodVu9fpO94wXEVFCkJEvhS6CJvEjZMUVmCxZxEUzm9NlmeWVBDI3E/hGBd+mq2aGTGm24eNWN2C8luwBziyGQ6T8qJhYtAvfNW7RCkh06dSaCCgyLIQRFFCbDRyam5/iHRgrJYHeSs3IZ9ZatWpMUgSHQWY6WQjxF51663fQBRsCT6EphuJCgX6ScNG0GEUpihoIM2TcojJ4OHGRCXEqC16tPX/aNBw8BooOHDsdS4CexwgnpWTgPVMWgZ29ChocBIbgKwtqhI0bSKdAyfOSYdEU+9v3qzVue3lKBG6AiPMT5g6KRY8Y5XXFF23G5k6fPLAlHJRNJqIkLHTZiNBgjmWSkSB2xhqHR8bhffsh10FJsxHNn1qveP5beR743ve5gKnDcWfmFOGjuGp+aLR7Wi5NVPxE7KE9UYppEVCOfwPmR8anJWXnSVDS52uivFD2nS3wTCTRAPPwlDsEjPQUCDpMz8x4FPhFcLGm5f6nGOjW7QFTZsyWXan9Flm4/syVSN7Py0QHVi6LSh1lSDXcWEVqJEMqZ7YY2+AVH0J7K0sA/vzdX7YgXDOGxydJOQlrpN/tiDi470gPSvOIXb4gIg87JgJZ9VQSEj5Gqjp810Jwcl5odEBb9rNczheKE+LQcn8Anv4so53UrZmjEyjXrcQIEu6r8W7xsefEjhPRST8wELMrx+YTqalJLnvVoToDyv77UTvWm63mHb04If3MJq4DxzBY+T24qYKNa6BjhVXRS+vP6+NRFyiqiMpetifeMb6ul3m7/O1sxv+Ybi3fe1o6+3d5ulbw9VwnRfjI6lWvOLvxL8QZh8Z+zEfGy66WXzZLLREtvojiuUhyyqjTvzwVTYquwqOypljwV8Dx1qCriqzCZ/Hc4QBVoBUv1c/1k/tMx7asA+yVKSBwcn5Z9655PVGJahqIoOimDfSLj1yb/9Q0K9w0Ky1D8Abjhcckubh4vviz/8vYJdPW8637ngfvt++zcvH3fPzQqLDbZ/0lUxZP/klv7BUfEJGWoXqskZ+WT95Pch8tFfGTzFdAq+dFLnl9weGxKlihoTM0tCgqPEXW8gho4KDxWVTkZn5bDEIhHOOXeEtD2OCQyTn5C9l+kgVIq6BMYJleiSXN/ZZZq5TOncQCAyIQ01Q8T0nKcr98U5Muvr4QqoqfS7wmve9wuK/mvmHrPR0dPX0NLR3Ch5pdMODjj5Fy1WjXvFz4055pm8xfpG/aoWq163foNevbuY9iz9wZLK6sde8TLejFdOrM0+W/h0+S/+eVB/stvgyJi+g8c1EVDu7Nal/OXr5Um/9Xt1r27QY8mTZs5nL/0xsl/85U+gU969u7XVVNbXUPT484D9H+AsQlCHjZiNHYzNCreaOBg6XDkmJjkDK/7PjSvk1oX2vk4JLwc9VCwfQ4dMVp6I6KhyY0qUQ8Ru6KE9EDsCPdVGgCliXdLT35X7Yi5KWK7cuNWl66aop5m6IhRabn5qn9xmrgmOycdznXspDZj9lzR9zy5bKtlq9YBTyJLk/8+sw0S3fBLyX+PnpBYogQjk81xu/mLl2ASsLKrLTaecDhnuW3n4WOncguld9+HbE9iNhYvWyWXVk+yP3sBxQgMi5lpNn+W2bxmLVpq63ZLTMvkBJNhI6x37k3KzL3pJRWbv7SWWuj2yDHjlq5cq5TJf+0dz3EFPf3uplOmzjKbj19yu3WXluTJMzNOnD53+8HjjVu3zV24mAbsPXhk4OChy1atTclW3Lx9j+ZNnz132sw5oVEJZSX/XbdpS9/+A7JyFAsXL+uqpS2cAK6Pu4TFxO3Yc0CtS9fIuKQKIP9duGQ5Cpadmzdp2kwkM3vewrHjTVPTMw169Fq3ccvc+ebjJkziEONFf6dMnzVq7ITcfKVaFw0Oy5f8d/6iJdLL+vQs7nvi9NnKKlvDIAKADVusR42bcODIcYuNW4YMH4V5QnMkYr6RYy02bSVqIDpYv9lq8fJVCO3uI/+AJ9FAl98SpnFaZn7RqTPnkRWdCoqIvu5xByVUFBYZDRyEpoVGxa5Zv4l/mS0wxy1hehBmbkEBwl+7YXN4bIKw8iFRsa3btMPqXXP33Gy9A6gQxKEpgHCDpXVGbsHDgFDasGDxUtSE++47bPsS8t969Rt00dBs0Kjxe++9Z+d44aeffxk3cfLDgJAPPvhgv80xDD+gLCb/7WfkdFki/23TrkOjxk0/+/zz+35BeK1///tLDLZM/ttnzfrN1Wv8OnjIcLkc/IjDeal2tKxla9t27zcZNnL3/sM//fTzgcO2Pfv0NZ0ybfvu/YJQdNPWYvLfjz/+GFnzfZu27U7Y2Rn06L1w8XKpku6rr3buOaDX3WDeoiX5ZST/vfsoAPOWnV9gMnQEt1MBTnpTlJLZqbP6pWs3cyuE/Beh4e7SsxW9+vbHpvQzGnhcZvtdtnItNq53X6OTp89J5d3LV48cM56IgyBi0JChtevU9fR+VI61o9kFSiPjwZhXg569xk4wfRKTWFmZYYFS2aN3X8Z61bqNX375JSg1nTq9p0zy2d2wp+O58+3ad9y598Cdh4+rVPmEcyZMmtLPyPi6++127TtglZyv3cSTY0w1tXVtT9oPGzkao3bT656mlg5627pNW//QSCLBKp98snKNBZpZt179LdY76jdohJ6DhBatWk+ZMUt2rUVxKWnAfrzpZOANCCdPnzV77gItHV07O/vO6l1wks4y+e/GLdZDho/EwXrcufsS8l+6scB8SV+jge/KtaPjTac0bNwYe/D99z9ExCc3afoM8l+ve76Xrt1Auw4ePfHNN9+iCUVKZcvWbRiqy9du9htg3K274Ycf/mP5aou/SP47ftIUDi9ecUNwFn8i/0UQHIJIWitKhLrpG2CKjE2GCk1+DfJfRsvr3iNCL/3uhsXs/SUcU1u27WRQCQrSKor897qHl7qGFkYQl66lrWt3RkX+a8KQ25+9qCL/Xb95a+u27ecvWlyvQcO9h46WK/lvQfsOnQx79fHw9NTS0Zu7wLwSy9awR3sOHsEKgPUHj4Pv+QWhk8ERsSvWrJ85ew4KgzO8dc+nddt2RRJ18qNO6l2u3rzFySLgJF1KzszZte+Q2bwFuA3wLGpH+QmxZUp2Pmleuw4dlTLVN8GFtMJKdwM85H4b2yPH7bmjqiWEptYy+W/bdh2ISLtoaNmckNK6AzbHkBV2Qb2rpuCt5l+Fr0z+e1ki/719HyX+/J///KVqNUGt26x5S8xMRnZOrTp1GPunyH/RhK+/+WbW3AVpWdl4VLCLYjRu2oxIslzIf4XWOZy7hOvfZLVdzKIgBC1N/oumrV63sbh21qAHGP0r5L8EvcTVew7aiAn+qieQqTkFndTUCVEqBoJoEQOJ8I+etC+SyX+JMgiN6Nf0WWbYXRJC1E8qnZ05B0AALzHvafbcheVM/lsgZftEdBLl/tKVlVvAjX0/bHsqIT1XU1OHKAzlQcFIYbBQl11ccCeYYMCGAmA0b3jdU+uqgRKKaa6HbU9q6+qRzzdo2Pj02fPEkAgKwKOEOBUGPT4tB0XFuiHtpSvXIGRZCQ33HTp6xukSACh8VgG3IP8FGzbHT4k5LqTuZSb/PXjkuIr8lzw1PTePEJR9DC1Xx+mjqKBBJv8ddE4m/73nG4h3EucPHjqcmLZho8YcamrrMGA//vRTj569OZwxZ17ZyX+XCfLfQSbDtu858MUX/168fIV6V411Gy1dXD3q1K23eOmyatWrT5o6QyL/HSCR/2IIGjdpZrnVilgRvbXetU/oqkz+O7Cs5L8TJk0lBp4+e/aY8aZWO/YgonGmk1OzCxja+g0aRsSnVhj5L9L4rWatGbNoycTDtsdIh4hKFi1ZClxojM1x++LD5hw+Mpu/qHmLVsuWr2zQqBEmrBwtBZfaue9gy1Zt1q3f0Kx5i4pfEKa0EuJksDUoYYeOne/5BBC44QlnzJ6Hi95suaVW7TrDRo66csOzbfuODKWr591Wbdr6BYfXrddg3iJzsriumlq4NeJ26+07umpo4TA57KTWJSohtX3Hzmi183WPjp3VlHJCLjwhDhOA9e0/sI/E9m0nRr+Y/HeLNZjk50XSNDoiEYkfmeEg5/wj+a/ai8h/w2KT0XK/kIjsvKLAsGjCmLCYpOy8/P4DjKvXqBGVmJaVL02TB4t48FNnnFzcPEMi40kUo5MyQqMTOD8iPoXT0H6sgv3ZC2jm45AIUljafczuDCEr0fb+w7aRCWmvQv4L4m8/8KMxjwJC2fcNCj9x+txqi017Dx5NlQsCj548vWGzNT1E+ggXcWdJM52VnDbffKnNMTu8FjHDNXcvLvLAP+SKm3RCmZ5ZYwvJRVFmNseLLuQJJ8+cT8spJL8/d+lqRVaQOrlc31XSkktXb+CR6ObiZasYBfHQD7vJ4VWZ3iI+LXv77gOEJEdO2KflFpYv+W8697JzXLhkxelzlyrxVWFmnjQ6jDsRMmMRnZQeGZ9KqAUCt+7Ys3Hrtused8BzwJMoiSs5ryg8Lpn/AglyqDUWmxhN0kJiTkS0cu2G6+5e+w4fBUhEjIIgmPAnJin5nPNVMAMOJR7qPGkUAsNjyIRXrdsgrbgkP1/k4rjZ+37BfH/e+RqH+MkDR44vMF+GFjAcQRGxF1yuc53giDhOANtlI/9dsXb9p59+umT5KhUBjopfVfWK4pnkv4pSbLm5qvPzi1cXfMUH0Fky+a94GyEupSjFL5RbclhM/vtHGtzcP5P/lt1miwfT+SWL4KnIW1U7FbY9k/xX8UfyX+k1UtHT5LNviPxXoXwdMuVyf0Uh1CBX+TvjgQqB4o1aRv4z3kkoSoiSBSOWkFtuyasFsdTMsJGjU3PyBGlvVmExD3VuCa2w4o8kWuLdVWny39IgzCgh/1WdUDby35u372PwEl62tu7b7e3237Shaff8gl67WKWca0ffkv++3f43t+cRBP/PFXCXuxReOg/r7fY/MkmiYvD2+kqYV0lrfTxlh/DASZl5Oa/bGLEceWn50q/UnMLkrDxVRdtLH9KqWHSfSq5UiUeF1ZRLJcJ/bImot1JlJuJQlRPmlizak/YGgPVnQuS/Z0j5zNFRTVFQlEoRRQ6Zkv2XSm25wvOeO4jbqZ5jvUgJBZPPxMnTVq5dL2ZUiGceqtarDou5UPN/n3hRnhpYqHwUEDpk+Eh9gx69+vQ7evJ0Zn7xtIDMgt/1RyVNQauqqgsRT4kuXbtpsWlrbkl5enKWYsmK1foGPbV09OabL8nIybM/d9HSekeh8g8/LN3fNIVUqnvY9uTk6bP2y5S7IkPIzJPoAjZYWi1fbfHq64f85a3Q9pTDpKkztu3el5SpoJ3k6mYLzM87XxP13KfPXuTQ6fJ1eR32vN37DzOOx+0c0xXl/AiXIXC6fG3aLLOd+w7KnLSVrGkqJKhmjQg8PAp8ItaKEFOCVMS7UYlpi5evcr/zYIH5Uv575LjdslVrl65c43jh8gUX1137D7+e0c+Vq3AO2BwTUBQxl4ArN01IzwUwgSVsIC9Xwhq//qbf3RB0inkVgWEx4rrxqfJhuMy9m5oV8CQ6Ij7F2ycgMUNR3iXCye06dJwzf6HH7bsHjhyrU7feFTfPpMzssNhk36BwBj44Mg4hRidlcN+Y5Izw2OT7fkEPHgeLCQSRCakPHz/eumP3wMFD8kus3ex5C2SyLXfna65t23dE6Ft37EHPA4KDUXjxQzrFZUOji0tMFdI7sUPt2nfYte9Ai1atLbftUsjP09JzC/oNMJ4waarZ/EWodHxa1pt2CNx332Hblq3b7ti9D8ms22h53N6xQ8fOVtt2tmrd9sIVt2OnHDp06rx1286Wrds4X7+5YYt1Z/Wu23buadCwke3J0+VL/mt/9oJ6V42Dh4927Kx28MjxyiL/FeYAEHrcfRiTnJkl1XDGx6ZkZiiKGMGE1LRhI8dMmzEnQyERgtzwugc8RHiFg1m8fLX77fsIMCYpo4uG5sp1GzZZbT978QrA0zfswZllxbP0HiI86tffag4YZJKuyPMJChPf+wWHJ3CsVC5dsabKJ5+o3pC/XAnr1W/Qt/+A8Oh4dQ3N/3z3PTp5yPZkaHScehcNcXjMzuH85Ws//fxLk6bN/v3llwY9e0cllttra4W80nfHTmpAh+BKooHzuBMYGn7S4TzaqKGlY7VzT6fO6r369GU/LCYBP1m3foPuPXo1bNT45Omz/qERal266nU3pBdDR4wukEMmFLVm7Tput7wL5CDtcUikh9ftbbv3//jTzxraunXq1Tvj5PwkJh7H21VTW0evm/BvjCsXxzompabJ1XCbRfyJ0rZo2SpOWltLWatOXVfPu2+6agTob7aWSuelOpVlq4xNhg4eOlwwO06dMRuPN2TYyB279wsu4Kkz5yxfvW7QkGG+AcHqXTUPletiukhv6IhR+BD7M2dPOpzD1VTWq8JcmbyrfYeOhr36dOtuGBGXNGzUmGNyvZdU5LjnQPOWrTBJ4B5ZaWrrSm/Pt+8mIMKCoIEedx6An4f+Iaji3kNHsCxcE8czdoLpijXrFWWrMebkghGjxhr07DV81JjkjBwNLW1CJ7HydnquAnQR0rVr3xFb8BIlFMtoCiVEoVet3fDRRx9ZbN5KT2rXrTdt1pwqVaqs32zVomVrTth76Og777xjsWnLlm272Dl09GR5pZF5clGyKM52cHImHkXJd+8/ZCPz3gaFR59xurz34BFP7wccEgDsPmDTqk3bzOzc1RYbR44eN9986fhJU/KLlDPnzBMch6iNb1AYKhogL+mYmiPpuVRStHVbx87q/HDhkuW4NQwkrtLHL4Ar3H3kn1kyS4XoBZXG1hDf5shBP8EYUhakQCgtWMx5895AzNjac/AIvT7hcK67YQ8Hmfx309btMvmvviD/XS+T/152df/qq68Zte++/+H2A79yLODmr46efs2atUeMGl2/QcNTZ85X1iwK7nvc7oztSQdXjzv1GzYkVupnNPCAXO/Vo3dfO8cL8xYuJh85csIek51dUOTi5gl0XT3utmzVmtAJi4xmIhzkaTp5KpHO2AmTCoqUm7Zs693XqEwDyristpAmWxyzczSRayfRulp16jRo1Pjy9RvBYZH6hj3vPHyMpSCQFFd+LuXhitUWk6ZOx8AgXOA7buKkTz79FGuBY+nT3wjRf/rpZ+Kw/4CBltY7+W9odGJoVPxnn322Zv0mRfkpIb4OcKM/hLt3H/pg1MebTkGaxjKz6H6bYxizocNH1K5dV6poOWAjWIAJHXERg4YMJ1eRigOPncIECk8Yl5Jdt159RCAmN5I4LV+1erPVjtHjJsqUpLswovQXxz5y1JhhI0aHRMaLZUOwlwS3MQlJeJieffoinAKJfdijdZt28Wk5qHTHTp0vXb3xpj2hyGRwd5o6etdu3sLeEQaTrCqlpZQ3jxg9lgG2kSeCrlq3YdyESf2MjBeYL0tMTiEgnzBpSk5ROSphIXHvuo1bpKrdBebE85VVO4plsdqxBzkMHzmqTt3612569R9gLISgL9GTX6R5G7dsIygwnTK9SKnEBJOGnDh9toVUnF3g6nmHMCEyIeVxaCQ/wezWa9AgOjGdxFtbt9urd0qmwY+sWrXaIJNhut0MiEjtzznxJZFX02YtcK3TZ8+rWas2+Pnxx59Gj5vAHZ+7IIxCOnsuro9GS+tjL1qywdL6088+o1fy/MC5S1as+fzzf6IJM+bMmzNvPhYIBzhn3sIp02dJtL9OzuXlCekAQULNWrV27D0YGZfgfudetRo16ANKZTTAuEgm/16/eWtgaAR9w+Sge4OHDhPzJFBX3Frf/gPj4xOImvoaDSwoyQmxc8QGvkGh930D2rRtv3y1hfXOvcBXVNmihMC3Z+++AHf3/sNi3Sg2rjBr7nyuNmnqjD79jKIS06+7e4XFJjVo2Nj+7EXUD719EpPwpkMyhVwtTXx1+8GjRwEhkXHxU6bPHDx0RFhklE43/T0HbGaZLTAZNlI61NPfvnu/Yc/eZgvMY2PjUEIgWL7kvyBpzHjTuPj4/gMHAXRFJS2anZSpaNKsmeW2nY8CgmvXqUt+xOgvW7X27iM/EiXHC5eRAM4Q2DDcUfHxxIcEhOR7RHZE0XjCLl01CV+HjxwdHR+/Y88BUoxMRT7BHab81c1WuqKIxJJo9pidHXkBQe9DX7+lK9fgrrBWKJH3I1+0htAUN7Bu05bEdGmF4OcsjUbMFhiGh0FfpYkh/iGxqRn41p9/qcqPuUpcagaOhUNiUbsz5+wcndDYNu06VK/xK0lIclZuOT4lww4R43FxLR1d4uxps8xwvI4XXGbPXUDAsHXHHuJGI+PBgvEfORJA8v1xe0ez+ebhcUnk1niGbgaG5stXKorn+xeRczNI7Tp0ZJs+yywzJ49kyXzZygJpwaOTXCE2KbX/wMH8EASL9XqyC5Q3vLw74fq1tJGMt0/A1Ru3GCEidoa2LelIZ/VDticqwBVk5BWR+7Vt14EwuLN619XrNoZExdPOLhpao8ZNAI5B4dIqJRzi0FOy81zk1YUYR1SUDDar/B6bYZjIqLkXV+43wDg4Mq6ymPgw1hssrRgXhrX/gEELFi8773yVQaFVtA3HiFoST3ncfUiugW3qqqF17tKV7MKibt0NLlxxve8XOHLMuPDYJEw2/wVRZy+4KOWqUcBWJssiXj/ILPdXaUZkfIput+63Hz6+cuMWcML1FcpvkrBcqNVLckIhTfCXVrIaIf2MiEsh+RFPgTkMj0tOygDYSpvjp95//4P7fkFJmTlvoraARidn5QeGx4B4URCoYnoU/MIJ6bliEaynFioUrDDEk08xEYnXD0+iE6IS0nKUJUvVqQgn88S+EhuZlJmn+mGWvLaW/5Morql6xi3aEJ2ULhHPFFXce8LSNbdisEKjE8QjeOkwRzoUY5FVKDUbbZHIZ98A+a/EZxMRW3zfyns/wShExqdig2gGSBDMOgKuDKUg9hUc1gApPi1blH/t3Htw0pTpOYW/U3XxX85UyE/suhn0CI6Ifb3QRkWUqFoSUzzpVCFQpSYveTr6FH3YMw9Bnoubh2GvPuJ1xRvlfnxx4cursLv+mSXt+TeV3nw+dc3nsbhWevFN5ZL//k2o1lT4VP0t3eXS3HMqYl/0jSgxMiHtqf+iwxevuBFYVUClSvmUrYlGvy0Be7v9v+Y1fPV//e/Wjr7d3m7/ldvLlVBV41O5m4ph8fUiH9VagqWTGTHFqzi7y3+lbpZefLx0pKfaKiwceKolqqqoZx7+udnl7kz+/5L/isZnFU9nLx5H1c5fEcsLfl4aKi9Xwlv3fKQSMEUlBww3vLz3HDzidPl6XGpWWUVD459EJ5buBcocEBZ9yPaUxB4QHJ5bJM13fugf8uJuilq2+35BEuWuEJRCWvdcWsc8PIYrcJf4CplsSUsS0nPu+QaSzIhi0eSsfN+gMLHuz1OHnBCdlOHtE5goP756Ew9m7j8Ojk5M/zuT/z61MNHv6MqT1ipk4BAmSItKSAsMiwkMi45JSgcPj0MiX69TokA0JCr+mWCQmBEj4+W19F6tgLt2nbo9evURZfL5cp2XrAO/H0qPN/KLp9jnKZXlXi+CFMyXrmjWouWYceO7aGhq63Z7EpOgqnZX8fnKCfTvM+7zlMWPVcSC8odsTw4aMkzUjuJUL7vebNK02eChw/sPNK5br/61Gx5btu8aM36ishQvsJh5oJo/mZWvvPPwsa6evqaOXhcNLU/vh6KG1ttXIv/V0zfobtCjXv0Gp89VBPkvBkXfoAct6dhZ3dXzTmhUfO++RrRh4OAh4XHJYKh33/66+gbGJkOjElJv3r6vqa0jVnL3CQwt38reJzGJxoOHdOtu2LGzmvud+9mVp4diLotq0o+YaJ8q7xRIazPvO3LCXkyBzyuBcU6h0vn6zZFjxl+5cUtNvWtqTsHAQSZIyaBHr01bt7l63h06YlRyVpmr0jk/W1q8efzo8RNzS1Cqol/IlZjy7jRq0lSia3n12tFeffrlFSr329iyM3vegtCoBBCJD+nZp9+c+Ysi4lNA5+y5C1ZbbALoJ06fLcdhRkxX3G7RBtBTJPdn8rSZl666et33Wbl2w4w589zvPDBftnLwkOHWu/amKwrcPO+uXLPedOqMsRMnBUpLxhVutto+auy4IcNGDB81Jr9Yowrad+y0YYs1Y8O2yWr7slVrduw50FVTe4LppPGTpmDA0C4cb78BxqvWrpeZ7ZWKIuXy1RZz5i1CSkOGj5xpNl+oNJ4QOxqdmLx9zwGwHp2YWgHkvwsWLxs9biKDNW2WGf2aMXue6eRpWTm5PXv3ZRRmmy0wnTI9MyfXsFdvi01bp0yfNWa8ab7EvadZ7uS/c+ZLFRqpGdmW1jvsHC9UVtlaZp4yKDzWbP4ik2Ejdu47lJlXwHBgfcDtrn2HnC5fbdm6bYeOnQPDok6fu9h/4KDxEyfj5dAHo4GDTp1xuuX9iNHHB6KBRDphMUkEEahrP6OBtqfOlLW8AQnvPXjk51+qDhsxKi41Y+7CxX4hEdxu0dIVsckZMUmp3br3+PGnnz3uPnyF2tGiYiU0Mh7scO7SJ598go5VrVadPhyzO/PJp58OGjL8l6rVMLco3jvvvNO6bbvWbdt/XKWKW/kVMUu81xu3oO207YF/yIEjx4/bOfoEBB86evKjjz9esWb9mvWbRo+b4HT5Ch4bhURzvvzyy4OyvZi/aMmR43a06ridQ7v2HQXRqPQiKCy6dt16j0MiilecL5I6jif84Ycfd+8/qK2rt3TlGoaqZas2dg5nh40c7e0TIJ1JTBuTwEgvXra8QcNGBMalyX+jk9JQbAxqBdCNifU5IuKSk9OzuvfoOXveQrDCEAhKTNx7rz79TzmcV8rV+iPHjDt36Uqt2nV69e3/W63atx/4li/5r7wugBaeUKrvi4rPrKTMUCH3HdNDJNKwceNb9x6BGdwGQsCt7bc5DnSxRM7XbjZq3MT21Onps830DXsEPIlu3aadb1D4Da97hFhe932//c93hBh4xbMXpZf1C8yX8asyvaUAFWgX0sb8DRk+CnDhD3r3M+pnZDxt5hxFYdGkqTPWbrBEYsD1RbWjIJUGYUjwafUbNEQJ8T8fffQRHfutZk0Uj4Z+/PHHAP3X32pWr/HrZqsdHJIYPAp4Ihd2by3H2tFV6zb0kXm+keB400mtWrfF9BJaIFy+FE543MTJv/xSlRN27T9Ma/meHWOs4phxVjv3cIhyGstEo3QtJDIOLfIPjRSUyaQBfgGBGyytTYYOF7Wj+Bb626Rp8wULzQnwfAKfCN+OyPCK6zZaNmnWnCFXlKy8Q2c3WloTyVTYRB7EQjjQobM62AqPTQZAp86cF1SOA2XyX7uzF+Sq9O3EWqvXbezQSW3FqrXgb8feg+VL/tuuQ8e+/Qd437sPqmZV3pr1DKXHnQcECGPHm1arXuPqjVu4uINHTyAEQItmLjBfSkwEMofJpcWB4TFt2nWwP3uhVes2xDKE9F01tIIjYtGc+37+6zZtadGyVWqWgivo6Om/ukcBXbEpGVilDVu2cSn8anQ8uV/2rzVrIfwsRf6eA0c6dOp88/a9Nu3a42PTcvOfW7aWK3NX/1azFk4DHWMgUeKvvv567+Gj+KV1Gwk7h3/9zbf7Dh9du9Fy/ebNON8PP/zQ7dZdFzfP999/f9vufeWlhAzq6fOX8MYRcUmihX36GWFLUMJBMpd2/wHGBGY3PG61advexdVj9wEbfJfgCMYnjJBWsFhTjM7BQ+TaUTSnsG37DtY794oLzpwzb5DJMHIGbJ585g5+NWnaTNIq1xs3cbmC3R1hcebFK66C6BpjKeYxy1jMR7JnnJwrjPz37MUrTZu3sD8rsW5ja4lCGXKlTDtLSDZgkMn6zVZiKhPHv5P/zitn8l88oW637pbbdiqLl8cYXSnhqGQKcwp0pbVJprt63GrbrsM199uYBpvjdoVKZfuOnR2cnOfMW4ir2Lh1m+CMJ7pp1rzlpas3mrdsFZOcQeymoamNbmDH+e89n4C69RvEpmQC7O49er16ki8KuHFRPfv0JZL67rvvDx89dveRX41ff6tTt55fYKjFJksNTZ0evfp89dXX+DBiK+z7c5SwSAnK0auffvr5/Q8+oDPXPW5/8+23hHY//PgT7vWy600O28iHplOnE1W/9957xDx8idL6Bj0pv5inKCU7b4DxYCyH+dJlmIaq1WvMmD0X3UDKRfJEFeLMhYuX0RJCU3RpoDy7Ah0DiyhG/YaNVqxcXU+eC6Iq4MYE4sPxn8NHjW3QqPGd+z5khmThYvoPd3G+6taiZetNllsMe/aW6i0LpCR+2aq1QN988VJ+ssHSikiBYC81u8DT+1HDRo1lAtUKUkK6zLhOmDSZXHffwcNkB42bNJ01dx6Q8vbxP27v2Kjk8K7P44WLlzdp2mze/IX1ZRr88iX/Rb0lZuEVK5AMMXCleEKR5wP9IcNGzlu0+Icff2R0Fi1b0bGz2uTpsz7//J+OF1wsNm/FQZ2/fJ0AZ8nylYY9emHK41IzOcfrge+NW96d1bo4X7tBUrNsxUpCCbChlDLeRYAtt4y1o6AlX54Hi4dIyczG4m/YYo2RogHJWbnZcpbXSU1dNfX0uesTpuUUOpy/tHLdBvtzF1NzCjgbzBEZYhviUjLBMWE0h/sOHU3LzgUERKGkwlY7dt995F++j6rF016yQXSAG/kEhWGoiOZxvIJBdbP1jkPHTmLMiMF8g8OxZ3zvFxwhpabo27kLqyw2nnO+iqpk5v3+1vGm3H5G62FAiEJm0CBG54cEn3QNMF1wccOLkmuhZhLLraIoOTPv4NGTi1esPmbnmCE/CSBz4GpBEbGXr7tXJPkvEcfhY6f2H7Zlu3rTC4GDs9UWG2m5eGOB9eHwpjxtlBD6gM3xRUtWnHJ0Eh0pt5YopNFxOO9Mcu7k4lqJtaPcOuBJ1Kat22xPOeAG7c9exL8RDeE/Ll11I1mNiE9BVmExSSRsy1dbEDElpOfky6zqVjv2YD/xgYiOceS/nJmYkcv/DXv1uXj1xmu4d9Ic2sNwYJrtHJ2IeONSs0kZomSqa6By2dVdpmx/8SuKEiJUFYGPKHhVEdSoDslP6Pnn//ynX0gErinrDQQkojJdUfJuXeAsu6iYmFjF+SueSgtiVnFCWil216cie1X7hcnILCj5YUHxmeKHpTlt00vJJK0Ueau05HDFTuEpvYxe6daq+pij/P3wKfLZ8m+M8mn228rSw+KBLiou6lBRHqt4qEXhvqLkzRNDf88ncNjIMUmZObl/JHqiUxeuuEkPmfMLX7s9Yn1rRckMgdJ0oaXLTsqhbE3izI9JwoTEp2W/JQV+u/3/2qQVV4PC/kzsmyGt/hATEZdSASlG+dSOClfwtoD77fb/VA+fCd2nVqJ/W8D9O0Xkm5uV93b7n51IUabvK0EJ/w5rfYilOYgZRBn36yjwH+uzRYZAupyQlqMi/33F50liQY/SI6SqlavgJxPZRb/zvpZeEObFh28iQVX87cl/xXOEZ1r2FHlVLxWuhLhkyoy8v2L3wWr288l/c0sthfTysrWRY8YvXrZKzKaXlkYqxY2rOhQ5buYbI//1fuTfXyIR696tu+G+w7YZJeS/YhKjWKdJcDGJ77MLf39EwWGBvCrqynUbcksWfktMzzZbYK7TrXsXDa3ps83SsnJPOpxbv3lrUalnG6KDT40cdyRVWLF6XWxKlopb9kl04oo16xcsXvY4JLJi9FAwGp+wPyuVPuUrE9NzLbftnDR1xtmLLrQ/IT3H0noHhzKDg3S42Uo6PO98tfwLuAuU9mcvjp80dbP1Dm5UuQ8FRJmXivxXtZNdoLznG+gbHC6+5JzskqKUiPiUBeZLb3rdmzVnvnh+g+6tWrfxcUjEhSuu1rv2vjb5L8Lfte+QmIQkHsxklZD/4k4AjH9o1KuS//76W019gx6FSqkS/7rHbZ/AsMwCUZifLh0GhXGbmOSMRwFPQqMSPO4+4AblWyIcFpvYuk1b82UrvR/6HLd3rFe/weXr7gnpmcERsUg2IT0XeV1xuxUel5yVL1XBB0fE3brn43XfV3T7SXSC1717ltY7jU1+J/+dNnO2prau+527bp5endW7LFq20mrnHpNhIx74+Nx5+FhM/IlKTLvi5hnwJLr0dKF0RcEAY5Offv45XE7ZxWvinr37TZ05Z/GylepdNeNSM990IiE9jg+LnjB56r///eXRk6eL5Ooq9a4a23bubt6y1aWrN5YsX01LpMMWLZ2v3aRhXTW0OGzWoiV6WI7v03NlLp+umlon7BwwZ/ttjlUm+a/EAfvk6k2viPjULOmNRXR0Ynqm/HwlJjFp8JDhppOnpeXkJshr7gIPEb8sXbFm+WoL9zsP2rXvkCnPQ1i9buM//vGPaze94pIzuhn0kIoWy07++zgkvFr1GgMGmaTlKrx9A9Ejaa6JXxBwzZPHq+zkv0YDQyNi2nfo9P33P/xStdqeA0eCwqNptDg8ePTEuUtX//Of7xo0bPSvL77Q1u0WQfPzyq1sbc/BI53UukjBnjzvC6MVFBaJE6jx62+aOnqbrXd27KRmNNC4s3rX0Kg4m+N2v9WshVY0aNTo6El7n8DQ9h07GfTsXaduvaEjRgnKQ8xHzVq1kbtYdDEoIvbu/Qfbdu37/ocfdfT0a9ete8rRKTgyho7ge7V09QLDY4RZ4WSLTVv79B/QoZNaWGyy8LoP/ENatmodn5rNYe269TBMb57ysCg8Ntnm2Km27dqjhBhdDS3tw8ckej80c+zEScQLR07Yczh+4pTxppP19A1sTzlwOGa86cTJU8uREC1PrmWfu8Dcxvb4sVMOr03HUl5lA3IN3UAtHb2wmAST4SMRjqi23757f8vWbdq0bU/g0H+Asa6+QZt27ddvtkrKzFVT78qXgIGdAsl9XTXs2btjZ7VL125IAjSdvGzl2rKS/6Zk5w0ZNrJPP6Pho8akZOZ21dLeufcgXrGbgWGmIu+kw/mevft26NT55eS/xQuklJD/Ll+17qOPPlq70bJFqza/1apFbFOlSpV1G7dgemvXqYuevPPOO1u27eJm7GARy5X8d40g/z19/lJ3w54oxrZde1G2+g0ahccknHe+tu/QUVfP2zTD+dqN3QdsGIncvIJ1m7YMHzUWfEyePpPfEnw+j/w3t4T8F2eSm5e/ePkqSfSr1qp10bj/0HfeoiWigBtpOF+9gfgeBoSg8MQFIrA5X4r8l52KIf8VVryf0cDDticLpWq1mbr63Y8cO1G3Xn2GZqbZfBTviO0JTM/kaTNnzJnL8HOIiMabTimvoRG8o9q6erVq1xlvOql+g4aoemXNoiDgtHN0OnbqzGVXj3oNGrq4efYbYKwi/yVglmk7rQ4fO6XeRSNPWi77TouWra/dvI0BjYhLcbvlTbAQEh5N0HfnoR8/Ibbit5uttvfq079s5L8FRUtXriFwI0YYPFQi/73gch2jD1xdPbz8g59gInGJDJDnS8l/ucrocRM5iS4NHGwybuLkTz/7TPIMOnrGJibsfCYOdfUGDx2K+snkvwkhkRL579oNm8uxgHvb7n0EVwVSPJzuExhE0DhhkiD/HSpIftGW0WPH1albX5D/itpRFfnvjr2C/PekivwXr1W3fn3hCfnG0enyosVLSWnEfEJRwD1u4qRmzVuMHT9x9NgJ0uQAKZcowgS0at126PBRX3/zDYNKQs/Pr97w5EtB/tuhYyfn6+4VwHooFKB33/4oISIKjoybt3DJ6HHjNbR0yGdiEpPnLlw8RjrUXrN+E4fYoDHjxxM3rrbYlK8sX/JftQ2W1sht/qKlDE2lkf/mKzdssQacY8dPqFe/YTH5rxwOEFL+gfx38jSlTP7bpl0HLKaK/FdXT9982apq1WqMnzj5p59+NjIeHJ2Q8hrkv77BEVWrVus/cDBjUb16jZMOjgADJWzarDlomTbLjEht7ARToshhI0ZHxCc/t3YUFZo9d8GHH36IH8DjLVqynJzq008/3Xf46KRpM6fPmk1a+dlnn+8/bGuK3Z1jZnvqDA4Qe8zV2Tl78Up5eQPhuLC1m6x2hEREXXHz+PmXqoL8t79M/tuydVuLTVt8A0PIXU+fvYjKDRoik//u2ocSkh1h1SKjoowHDyFQUdWOTpo6nZzQ28fP8+4DLOJajOTOPeieUp4PMWzkGL4hiI1LSOQ6vkHhIhx18/S2P3uBuOLX32oxrsSxF6+4Ens3atyU0XK8cBm9DY9LqoCQTCiAYY9eB48cxxPOW7gYUxUVnwgKyQnNl67cvmd/ZHyipo4uOSHDJ1MnJ2po6zi5XC9HZwVOxplOHj5yTERkJBaBVKeyyH+TJfLf5lhSb5/HNWvWOnvRBYtAx93v3CPLYGhQQiCNWrZs1SY0MpKQjYDwUWBoq9Zt/EMjGVmSmof+wQwrmtm4STNsWUZWzroNlsCpTOS/sSlZTpevnzl/furMOQRlfgGB882X4q7UunRdtXbjI/9AmRr4DIEDrU3KzH7uLAowR8v4Jcmltl431CA+PZuMgjSMrp46cz4hI2v0uAkcNm3W4uzFyxL578cfd1brQvyD0U3JVpQv+S9CJC0k8unVtz92AcUgCpVIfgulKUtdNbXRtxGj/6+9K4+K4sjDednsi+4/m2STPdxN4h0T1yMqggcKGhUVOURAEBG5FI0XCAoqIiqKKAgogggiICKgCBoVkfsGRS5BQDIgl9znzDDDMLNfd0kH0ciRgdG3vNeP19VMd1dX/Y7vV/Wrr7YesjmKFgSexHVU0tr2eGV9s5qGJmwhbrQ7dYbXPTpa1dBitHUbugHo/8DhI2yeAK4VZhI3BoaEHTluX9fcqrvZEMgBESCTNsGhk8WqG9uMKVJdQUxSGuJMhM3BYXfwHOCcoFu3h8cVkIFZSBViGH6XKCImAY2gqKx63P4MTyiCpi1ZthzFE6cceTRgBtZSVFI94eAo3sFbwuGprqkFUQHQKK1ukCD573kPL3h+RICb9I0OH7VDbLJITl5bZ5PqOo2E1MeI8RDwp2c9NbOwxMkKhdX4AeyRorIK2ie38PnWbTtIMiDsiKn5/ozsArKZjNtF74GS/3bQS1siohNs7ezh65TXrssqeJ6YlqmqplFe2ySgR+B37DbLLWL1HRPiqKxvZXhvIIKQvyZuF7NXIYoQQSG908PHf/pTbiGrpaOTIxT/fBGZbyFLijpEIoaMmKhoTTOnkdNJxuKpwRLBa4w9OH9R09SLroqEcxV1zTXNbDLBRX7P3Eg4O1iVdYS89a1MeK1MHYQUz2xdC5czvGODDL0Su4uqQEVtM7HZr4p1r4qc14tij07pEWwKVrVJlPwXXwcvRBYbEDLoRnYnbGVH9zwwmQ+kSJ+rGxra+WTO2cc/cPuO3dDGnjnPZAjgaXEZDFlpVd0f4RZDo5PZOzKjhiLziv4SPfV6/dvJf7tEcSkZwNCAZ+wPjfz33faizx+8WQcJpn28m/x3SEHye0K11ksS+kP+29jOP+fh1ZP8l1ESIPlbdyK4og8od1Q4kjs6cnyQOWu/5zlGyH9HjpHj/+XoWwmZHB9JHjzK0zJrwwYN0N/MR2XIf/ufO9ryuoGUFPlvL7RMPrCfRbGHhUORrjh8c4zdYxw9c/GYbv0jvfOO2wcQE+KIT338KKegjS9JwICPiUpIOX/RGxidGisaIEhooxfg9/wKqPTT4tJLPv4XPL2zC4qpLXhYFdSOvPx+1Sf/+QsE/WRpeX1rR0FJef7zsoKSF8VlVfS+2cPRJviEyrqWqoY2wnL54mXj49xnqBVRibKXDW8UC5s4nWIfvaTHOepTM3NrmzntgvdbD3lvb8mYxLSSipq0J3mk48gifcKtTJhNBqeBNc2cotKq3yP/LWRVMDzRfaetTZr8nZLKWsKpyqwVYBLzed1jlbzuotiH4NC1lgcPz5GW2bnHVGHlavmly0oqXjKZ+8x6amYQjNdd1fYe5L9+gSHaGzcx5L/3o2KnzZhpuMVEd7P+d1O+j4yJd3X3NDbZJupBHdCLWICZGfP2vTZrjhTNTUAvzc4vVlVTX71GeY2y6qTvvgu7+2CoM2bIXkIZ2U9V1q67EX5XIBQ9jEuSXSy/YtVqTW2dyrrmqPgU2cVyKGpt2FhV3/IwLll2kdyKlau1dHShjWJ0WWjJiOj4xfJLllKczGtgiSTLcMH7jUCAMj2kMjgR0PxdfteCiXwy4kHvdh5vtHVbbFL6QtnFFD+vUJTyKOf7H6YmP8qGZdHR069v4w6C/JctEOrqGUDAOrqllHpdN/lvdEIqXpGRnT+A3FE1dU2eQOjudWXlKsWde/YWl1W3dwrdPS8roGhqTmVIZ+fjus2xE/il//UbYnSbXErCkn+YOq2olNrHGK25/4B1VHxSamaOte3xHbvN4KhxRVNLx8n1QktHZ1xyhvWR48bbftYzMHpWUo4r9mfOQtMgjj3Jf2XmLYBfFYpEXSKRh9cV+9OOF719F8svNTTegp/RyaJCN8/LymvX2Ry1o+nKX01FPMrJnys977/TZ7zonjyEt6moa6lracNzVikq1TS1DjUwg+bnFJaorFX/7LPPg0Jvwz6inkftTnF5fJzYnTqzXnvjsZMOKCqpqJ10cNLQ2oCL3A4+zAROxEj+i+7Q0d1sts9KQJOaXfT240to1RvZrnS3mQXMkKv7pTaeAFY1IS0T8ux20ftOxMPZUtLz5i8sZJUHhYarqmnoG27JLWRButQ1tWA305/kyckvRbG6oQWm7d//+To6MRXigacFBIcOgvwXwjB23PjNhsYQEzMLS3hUIK/9B61fNrWV1zbAYH3z7di+yX/JLApD/nsz/N6o0aMNtpiMnzBxrbrm1aCbo0ePNtyybdz4CRpa2sG37nz00UewvovllpAMdDGS/zo4ueCNhKbOw9sXPi07v8g/8Mao0X9xdL1w+uy5n3eZxiQmw6ElZ2R5+13725dfhoSGo/ngP32vBc9fKHvnfuQiuSXaG/VI7ijAxpTvf3jGerXNAHGV59wv/efrbwKCbigqqcCawMNA2e5FRsNMZtK5o1Ct2qY29fXaeMWSn5b35FbDfytqm+YtWJiY9mR46MaIz4cAoSPQRGuUVOzPOPP4nVA/GBHVdRpU5iC/E+pnaGyioqaOVkJxncZ6A+OtYmSaIasoxk+YAKmaPGVKXlGppLaj4AlFdqcc9+6zgmebNn0G5Jsi/6WJHtdQeUUhevqGP+/a8yA2CQgo/F6klfURhdWK0FtpmXmIJpIysuDOeV1CU3NLBydXtFhUQiruPWx73Gjr9oGR/wpFUP51mlrO5z026VP8fTtN9wJLAi7BW3QIukx27HZx84CYpWTm9kH+C4GOSUpjd5P/7txj9umnnyoqq0yYOGns+Amr1iiPGjUKlnXCxIm44uzmARXNKy5FXDT6L6PPOJ8TY+4oXJmaxnrULToxzdTcQmb+AsI7CouFi4j09uzdZ2Bs8nU3+a8WTSzp5RuwAR7QaKu7lw+Kl/0DdbrJf1mVtVOnTSd7fZAVCVl5eXCkm/QN6dxRL8gxXkGRCO6zxLdTKIuevd2778DadRr3HsZOnzEzJimdmXrCx552ct24SZ83jDv1Mrmj+KhfHkTPlZkHTUAjQG6i4hNhQejiNzZU7kiCFF2ElTl4+KgYnRVHQKU3LldY5eTiijaBeZIg+S8AJCoDF9eb/FdNnZD/QkpPn3U1MNpKyH/hGEPv3J8rLdNIk/+uUFgVEBQ6Z650bHLagoWLgIw4PD5F/rtyYOS/8KXwRmecz5887QSMXlZV1djOmzh5MsSJK+jy8PKFV4hNTkcHATM2c/l9kP/iYyB/344dZ2yyHTYGHuZqcCiE9YyzM+T1y6/+Dk/t6Orm6OLi4x/4ySefQGkfxCR+/PHH+AAxkv/eiYiG42JV1hCiW+jeLlNzhvwXWgFP+OhJ9lvIfykd3A63RmWEnnOHchLy3zaecOGixc7n3YX0A/E06E8v8l8AG/iZjMeZgSG3WFX1xOmZWVgpq6opKqkCB+42M29o55Pp4EY2f94C2buRMVxJKCGfWrIcH5WQkl/0HIYGQCguKRWGHMUNunqAiHFJKWiZ/OLniAnRLOJSQrQJQlOpudKAxGg39AIJgSTDT8HtXKaw0tRif1pmFk3+m6G+HjCBslBAKLdfkf96uLhdhHIS4vYfZ895GJ8yW2puVUNrYvoTKKE7FVAoa6zX/gdNhl/+ssHbN0BJVa3/3UqhYlYlEAfgIQRyzJh/Xwu+kZaZM2HiZMhwTkGRywUPKhdSYz3UBwJWVl3/uwnceGtI2C9wfagN4CVaOflR1r/GjJn54yxc2b5rT1xKOlWcNfvv//gnHBEsCnQPLvHzL74ALHzGKhcj+S/aF1gCjbXf6gD8EoyKueUBwFE0FlQI+FBj/QaYQFj9Ew6O0CWinBdoFuD7UXHw5IcO23w/dSrZi4J8HRRm0uTJUNcNG/XwUTn5ReghfVp7iUuEHM+Rkj55ygE+HyiLCfEhZKzKurky8182seEMN202bOYIAH5mzJxVWd86bMP0RAmV6ARuIb0/zNJly22OHodTqqpvRrS8dNmKwyiuXFVd33LQ5uhPyxVwkWxoJc6BGYHQwvLgjB9nmZqZT/lhakjYXUmR/7byBAiSYWX27reCw3c464qoGNposmPXX//6GZDC2fPui+WX3I9OmD1nrtUh61Wr18Cv1LWyF8nJp2c9BRydv0CWDKJAPNCMAK4QBgvLQxS3/wBzR/GELpEIXYP6NLVzIC2IS1EfBGuN7A4eTWwht+QnuO53wVHqWR1CuDV48IjoBCJ/j3KfwZAE3gira+VyqSGKAgju9Rth7Tz+9ZvhgKM+V6/7+F8b9Kjuu3Lk2XzEHkC54fcfFpdV4xUl5dSYMptmW/T08YPJQFP+EhlTVFqVkZ2P60VlVfgBGf4COkecjZCyJ/kv6g9nCKVFcNjRJSr4tRzWETcCpmZkP4UwxSZnIDy4HRGFwJgZH8NJXWtHXMqjJo4A2vgwPhkXf62sTUzLHE7yX3KkPs5BO7RTbB0dvgHBrhc8UXkOvXXhlYAgV3fPQlZ38SqKlwpZFeLtmlZqe0YeUMmJ006RsUkSHBolW4x4eF8Ju/sANvFuZGxtCwdg8ubte/GpjyEkcHeQ0vKapsy8ImDFgKCbADKdNA4C9mloa09Ifcz0MkXaW9vUwuHDDQJEcAbFA/q8/CVEEab53sO4RnYnxAa1qqIsNUX+C4HBv/qeoujFfktYU3txAZNN/OAqP/v8CwS4XaIhyfTpybpLZtXbOrtpQnqQ/3K6yX9/W5TMfIWwd8UYElgiOtRjX7+RI3z7jAsxdUyyXs8TCcwyv0701N6P4hB1zXtC/svtlgRCtsvt3t2ZpP6TWSVejwmt3MJfDYxN6tu4Pd0dh57GgPk2Nd/PFvyhHIZXnE68304Y5RrAZH1/lL68llqbLHGen5Fj5BgMYU9p5Zv7K6P4a0Vt1bCEGCMJ3CPHiB7+Dvkvf4T8d+jXywz1Ap+R40NZSDGg6/+nCdyER5QMPw6S/Pf1bFqSZ1fTzKluaGM2DOlnyMRsPs48isngGzb+355Bcs8ku3eT/w4FPy/z+R8u+W9DO7+Z28UVvrYhDL2bVQcdy/0hoX179/Ffa66+09Z0NulbWR/hSk4P2wWitCd5a9U1VqxcvVxh5cXLfq08wYCahksRZETb2tkz5L/Vja1m+yyXrVi5WH7Jjt2mja3s66G3T5524vX1mRTnTckLa9tjLxvbSWRfyKo8eNh2n9Wh/QescZKamTPUWSNkTNLzsp+evpH9GWfUpI0n9AsM2b5zT1Do7VZqBLjL71owisG3qC3cals4ji7ndfUMLvn4N7H5YozbaUqVNntHZ93NBj5XrzdzO1vey0GBdj4lQln5xe1vLFJnVdVZHrJJTH+yy9QcRQ+vKxaWB833H0DTUePqbhcHJ/lQv9BfItw8vd8UBrwFoeZh2+PPSsr7S/47cdKkNcqqPAnlBFLkaC3sWXOkYAjyi5/fDL/37dhxid27K/Y3p4nKug7Q1tFlyH+tDtnIzF/4OC8/PSt3tpS07YlTFy756BttEfTxmSJ2p2iz4ZZ/jhlDiGfILoUOTi4nHZzQrH/76ssHMYlDDRx4QpFvQPCMmbOuhdzC31OOLqF37v84e46Pf+B/p01/EJsEAZo1W+qyf+DUadOjE1KdXC9ISct4Xbk6bvyE6zfCxZjW00kndi2QXeR52Rf9EnYvskP4PjpDvki0c8/eo3b2vcSYR2/GbnPsZGpmruwiOcAiOfklx046uLh53I+Or6hrXqWolFvIGii6we/LquvR2praOm8CN/LST/78Z4b8939ggFLkjgWbVgAAAABJRU5ErkJggg==;" vertex="1" parent="1">
          <mxGeometry x="829.51" y="520.5" width="59.5" height="59.5" as="geometry" />
        </mxCell>
        <mxCell id="ZSY2MWRsBAIIkU0mb_av-69" value="&lt;font style=&quot;font-size: 14px;&quot; face=&quot;Times New Roman&quot;&gt;&lt;b&gt;search&lt;/b&gt;&lt;/font&gt;" style="text;html=1;align=center;verticalAlign=middle;resizable=0;points=[];autosize=1;strokeColor=none;fillColor=none;" vertex="1" parent="1">
          <mxGeometry x="828.64" y="510.25" width="60" height="30" as="geometry" />
        </mxCell>
      </root>
    </mxGraphModel>
  </diagram>
</mxfile>
